<?xml version="1.0" encoding="UTF-8"?>
<svg xmlns="http://www.w3.org/2000/svg" xmlns:xlink="http://www.w3.org/1999/xlink" viewBox="0 0 2500 2500">
  <defs>
    <clipPath id="d">
      <rect width="2500" height="2500" style="fill: none;"/>
    </clipPath>
    <clipPath id="e">
      <rect width="2500" height="2500" style="fill: none;"/>
    </clipPath>
    <clipPath id="f">
      <rect width="2500" height="2500" style="fill: none;"/>
    </clipPath>
    <clipPath id="g">
      <rect x="674.97" y="546" width="983.74" height="1757.65" style="fill: none;"/>
    </clipPath>
  </defs>
  <g style="isolation: isolate;">
    <g id="b" data-name="Layer 2">
      <g id="c" data-name="Layer 1">
        <g style="clip-path: url(#d);">
          <g style="clip-path: url(#e);">
            <g style="clip-path: url(#f);">
              <path d="M2208.68,1456.35c-5.21,26.86-17.71,50.72-33.21,72.99-26.04,37.41-62.56,72.29-74.31,117.67-12.39,47.86,15.79,85.33,42.43,121.97,14.93,20.53,29.52,42.56,33.1,68.24,3.97,28.51-6.25,56.95-23.09,79.72-38.17,51.62-103.36,66.79-163.64,74.72-67.45,8.87-135.35,15.14-203.14,20.79-137.98,11.5-276.39,17.85-414.84,19.05-138.45,1.2-276.95-2.74-415.11-11.84-69.08-4.55-138.08-10.38-206.94-17.5-34.43-3.56-68.83-7.44-103.19-11.65-30.62-3.75-61.48-7.15-91.43-14.78-29.02-7.39-57.31-19.16-80.1-39.01-20.61-17.95-35.72-41.35-45.95-66.56-21.65-53.37-23.16-112.59-20.04-169.31,7.01-127.09,41.81-254.13,18.93-381.53-4.93-27.45-12.56-54.47-23.65-80.08-11.92-27.52-28.27-52.13-46.51-75.81-17.25-22.39-35.49-44.27-49.31-69.04-15.63-28.01-23.5-59.02-23.16-91.09.66-63.08,28.53-123.22,59.02-177.09,28.28-49.97,59.56-98.38,92.57-145.34C670.67,348.5,1014.83,108.58,1434.61,102.66c123.81-1.75,248.43,19.33,362.4,68.56,96.52,41.69,183.48,105.18,253.18,183.85,69.21,78.13,121.68,172.02,146.32,273.78,13.01,53.73,17.55,108.82,14.55,163.98-3.61,66.25-16.37,131.5-27.04,196.85-10.18,62.38-18.77,125.65-15.05,188.99,3.68,62.54,24.63,120.96,36.51,182,6.11,31.4,9.36,63.99,3.22,95.66" style="fill: #fffaec;"/>
              <path d="M2039.17,2050.27c-58.31,27.28-122.42,56.44-147.97,120.13-12.99,32.38-16.51,67.5-27.29,100.56-11.18,34.31-31.93,62.29-64.5,78.8-30.62,15.51-65.59,20.58-99.45,22.96-40.53,2.84-81.31,2.98-121.91,4.16l-538.8,15.73c-42.97,1.25-88.35,6.47-130.87-1.69-35.93-6.9-73.94-28.97-83.11-66.99-8.39-34.79,11.7-69.92,2.85-104.57-7.22-28.24-33.34-41.84-60.05-46.89-35.77-6.76-73.7-4.02-109.91-4.42-22.02-.25-44.03-.49-66.04-.74-17.5-.2-35.12.16-52.39-3.18-14.37-2.78-29.76-8.04-39.33-19.75-15.14-18.52-6.78-42.31,2.62-61.35,18.49-37.48,39.32-73.95,61.32-109.47,3.67-5.92,7.39-11.81,11.15-17.68,206.43-4.47,412.89-7.3,619.36-8.35,234.67-1.2,469.36-.17,704.01,3.14,33.76.48,67.53,1.01,101.29,1.59,19.35.33,50.04-4.68,67.25,7.22,42.97,29.71,4.14,75.67-28.2,90.8" style="fill: #b8b9b9;"/>
              <g style="mix-blend-mode: multiply; opacity: .35;">
                <g style="clip-path: url(#g);">
                  <path d="M1645.32,1991.63c2.4-141.9,13.69-283.46,13.39-425.7-.34-163.05-6.77-326.32-26.49-488.27-14.84-121.87-39.04-247.41-110.7-347.09-88.88-123.63-245.55-191.23-397.65-184.06-123.95,5.84-242.9,58.47-336.82,138.44-78.39,66.75-112.84,200.33-112.07,300.4.59,76.55,21.12,152.87,59.13,219.32,9.72,16.99,20.59,33.32,32.53,48.84,23.46,30.47,44.27,45.27,46.39,86.21,2.21,42.74-11.79,85.21-27.98,124.17-23.2,55.82-52.08,112.65-48.18,172.98,3.09,47.89,26.78,92.33,32.36,140,6.9,58.96-14.33,117.95-11.93,177.27,4.45,110.23,102.14,208.7,212.33,214.04,18.72.91,39.97.41,52.94,13.94,7.22,7.53,10.26,17.99,14.1,27.7,26.46,66.81,106.16,107.46,175.78,89.65,41.64-10.65,78.65-39.17,121.59-40.92,29.99-1.22,58.75,10.9,88.35,15.86,85.77,14.38,177.96-39.94,206.93-121.94,12.42-35.15,14.04-73.06,15.54-110.32,0-16.84.16-33.68.44-50.51" style="fill: #e8daae;"/>
                </g>
              </g>
              <path d="M1340.72,2265.7c-2.33,13.87-6.65,27.77-15.26,39.09-17.66,23.23-48.91,29.33-76.27,31.92-33.55,3.17-67.62.6-100.3-7.61-26.79-6.72-54.68-18.25-70.94-41.77-8.54-12.36-13.24-26.92-16.03-41.57-2.96-15.54-4.16-31.49-4.34-47.29-.36-32.38,4.36-64.86,13.94-95.8,1.19-3.83,2.45-7.65,3.77-11.44,26.75-5.73,53.86-9.73,81.13-11.97,33.45-2.74,67.11-2.86,100.57-.33,16.85,1.27,33.66,3.21,50.36,5.85,3.76.59,7.91.9,11.4,2.54,3.51,1.65,5.38,4.84,6.64,8.36,2.72,7.61,4.63,15.63,6.55,23.47,8,32.61,12.02,66.19,11.94,99.77-.03,15.57-.58,31.38-3.16,46.76" style="fill: #d4c9ca;"/>
              <path d="M1117.59,2100.68c1.19,18.59,5.86,37.5,17.08,52.37,15.28,20.25,41.45,30.61,66.82,30.2,17.74-.28,35.92-5.73,48.89-17.84,13.86-12.94,20.47-32.21,21.62-51.14.7-11.46-.42-22.9-2.32-34.25-4.22-.4-8.45-.77-12.69-1.09-33.46-2.53-67.12-2.42-100.57.33-12.89,1.06-25.73,2.52-38.53,4.36-.68,5.63-.66,11.41-.3,17.05" style="fill: #a31c48;"/>
              <path d="M1083.45,2233.65c18.29-17.35,42.94-26.89,67.88-30.61,24.94-3.72,50.36-2.01,75.43.67,18.34,1.96,36.76,4.46,54.24,10.32,17.49,5.86,34.14,15.3,46.13,29.31,3.7-52.89-1.18-106.37-14.35-157.73-1.83-.32-3.68-.54-5.44-.82-12.51-1.97-25.07-3.55-37.67-4.76,1.9,11.35,3.02,22.78,2.32,34.25-1.15,18.93-7.76,38.2-21.62,51.14-12.97,12.11-31.15,17.55-48.89,17.84-25.37.41-51.54-9.95-66.82-30.2-11.22-14.87-15.89-33.78-17.08-52.37-.36-5.63-.38-11.42.3-17.05-12.41,1.79-24.76,3.95-37.04,6.46-10.48,47.16-9.67,96.83,2.61,143.56" style="fill: #8e183f;"/>
              <path d="M1236.16,2131.55c-1.35-.16-3.27-.39-5.63-.68-2.36-.26-5.14-.68-8.24-.86-3.09-.22-6.47-.53-10-.71-3.53-.11-7.21-.23-10.88-.35-3.68.04-7.35.09-10.89.13-3.53.11-6.91.36-10,.51-3.09.12-5.88.48-8.24.7-2.36.24-4.29.43-5.64.56-3.27.38-6.33.95-9.24,1.42-1.45.26-2.87.45-4.23.75-1.36.3-2.68.59-3.96.87-2.56.58-4.97,1.1-7.21,1.66-2.24.6-4.31,1.27-6.24,1.9-1.93.64-3.73,1.2-5.38,1.83-1.63.65-3.15,1.26-4.56,1.82-.35.14-.69.28-1.03.42-.32.18-.65.32-.96.48-.62.31-1.23.61-1.81.9-1.15.57-2.2,1.11-3.12,1.66-3.74,2.15-5.96,3.57-7.22,4.6-1.24,1.08-1.52,1.68-1.35,2.17.17.48.79.79,2.42.92,1.62.08,4.23-.09,8.37-.55,2.05-.29,4.59-.29,7.46-.7,1.44-.23,2.98-.49,4.64-.76,1.66-.27,3.47-.46,5.39-.73,1.92-.25,3.97-.55,6.12-.96,2.18-.31,4.5-.64,6.96-.99,4.9-.84,10.46-1.26,16.62-2.06,1.28-.11,3.1-.28,5.33-.48,2.23-.18,4.87-.5,7.8-.58,2.92-.11,6.12-.32,9.46-.39,3.34,0,6.81-.01,10.29-.02,3.47.15,6.94.29,10.27.43,3.33.2,6.51.54,9.43.77,2.92.2,5.54.62,7.76.89,2.22.29,4.03.53,5.3.69,3.07.46,5.95,1.01,8.7,1.45,1.37.24,2.71.41,4,.69,1.29.26,2.54.52,3.75.76,2.43.48,4.72.92,6.87,1.34,2.13.5,4.14.94,6.02,1.35,1.88.42,3.65.73,5.28,1.11,1.62.39,3.14.73,4.55,1.03,1.41.3,2.71.55,3.92.76,1.21.2,2.32.38,3.33.58,2.02.35,3.68.57,5.09.59,1.41,0,2.52-.11,3.39-.31,1.75-.4,2.56-1.16,2.94-2.13.38-.97.3-2.06-.8-3.49-.55-.71-1.34-1.52-2.46-2.44-1.12-.91-2.61-1.83-4.48-2.9-.93-.55-1.99-1.06-3.16-1.58-1.17-.53-2.45-1.09-3.85-1.67-1.4-.58-2.92-1.19-4.57-1.82-1.65-.62-3.47-1.16-5.41-1.78-1.94-.61-4.02-1.24-6.25-1.89-2.24-.59-4.65-1.14-7.21-1.74-1.28-.29-2.6-.59-3.96-.9-1.36-.32-2.78-.52-4.23-.79-2.91-.49-5.98-1.07-9.23-1.52" style="fill: #faedee;"/>
              <path d="M1234.11,2086.33c-1.41-.1-3.42-.25-5.88-.43-2.46-.15-5.37-.43-8.6-.48-3.22-.08-6.74-.25-10.42-.29-3.67.03-7.5.05-11.32.08-15.3.36-30.5,2.19-36.07,3.06-3.37.53-6.55,1.16-9.56,1.71-1.5.3-2.97.52-4.38.86-1.41.33-2.77.65-4.1.96-2.65.63-5.14,1.21-7.47,1.82-2.31.68-4.47,1.31-6.49,1.91-8.1,2.33-13.75,4.79-17.73,6.75-.99.51-1.88.98-2.68,1.42-.75.49-1.44.94-2.08,1.36-1.22.82-2.13,1.48-2.79,2.02-1.28,1.17-1.6,1.78-1.43,2.26s.79.78,2.52,1c.85.07,1.96.08,3.41.05.76-.02,1.56-.05,2.44-.08.88-.1,1.86-.22,2.93-.37,2.13-.34,4.73-.51,7.72-1.02,1.5-.28,3.1-.57,4.83-.89,1.73-.32,3.61-.58,5.61-.92,2-.35,4.13-.71,6.41-1.1,2.29-.33,4.72-.68,7.3-1.06,1.29-.19,2.62-.39,3.98-.6,1.36-.22,2.79-.34,4.24-.52,2.91-.33,5.97-.75,9.21-1.09,1.34-.13,3.26-.26,5.6-.51,2.34-.23,5.1-.59,8.17-.74,3.06-.18,6.41-.46,9.91-.62,3.5-.1,7.14-.2,10.78-.3,3.64.04,7.28.08,10.78.11,3.5.09,6.84.31,9.91.44,3.07.1,5.83.41,8.17.6,2.34.2,4.25.36,5.59.47,3.24.32,6.29.71,9.19,1.02,1.45.17,2.86.27,4.23.48,1.36.19,2.69.38,3.97.56,2.57.34,5,.66,7.28.96,2.27.37,4.39.7,6.39.99,2,.27,3.88.45,5.62.69,1.74.26,3.35.48,4.85.66,1.5.19,2.89.34,4.17.46.64.07,1.26.09,1.86.11.59.04,1.15.08,1.7.11,8.66.54,11.07-.48,11.6-2.26.53-1.78-.88-3.87-8.9-7.99-1.99-1.1-4.48-1.98-7.45-3.04-1.49-.52-3.1-1.07-4.85-1.64-1.75-.56-3.66-1.04-5.7-1.59-2.05-.51-4.25-1.02-6.61-1.56-2.36-.48-4.9-.91-7.59-1.39-1.35-.23-2.73-.47-4.16-.72-1.43-.25-2.91-.39-4.43-.6-3.05-.36-6.26-.8-9.67-1.12" style="fill: #faedee;"/>
              <path d="M1324.55,2283.27c-18.62,16.29-43.51,23.65-68.06,26.72-31.06,3.89-62.59,1.63-93.61-2.6-25.68-3.5-52.48-8.93-72.22-25.74-14.19-12.08-23.45-29.13-29.09-46.9-.92-2.91-1.75-5.84-2.5-8.79.68,6.65,1.6,13.26,2.84,19.8,2.79,14.65,7.48,29.21,16.03,41.56,16.26,23.52,44.15,35.05,70.94,41.77,32.68,8.2,66.76,10.78,100.3,7.61,27.36-2.59,58.61-8.69,76.27-31.92,8.61-11.32,12.94-25.22,15.26-39.09.08-.48.14-.95.22-1.43-4.63,7.01-10.05,13.45-16.39,19" style="fill: #bdb3b4;"/>
              <path d="M1331.94,2119.16c-1.92-7.84-3.83-15.86-6.55-23.47-1.26-3.52-3.14-6.71-6.64-8.36-1.85-.87-3.89-1.36-5.96-1.72,13.17,51.36,18.05,104.84,14.35,157.73-12-14.01-28.65-23.45-46.13-29.31-17.49-5.86-35.91-8.36-54.24-10.32-25.07-2.68-50.49-4.39-75.43-.67-24.94,3.72-49.59,13.26-67.88,30.61-12.27-46.73-13.08-96.4-2.61-143.56-1.85.38-3.71.75-5.56,1.14-1.32,3.79-2.58,7.61-3.77,11.44-9.58,30.94-14.3,63.41-13.94,95.8.1,9.15.56,18.35,1.5,27.49.76,2.95,1.58,5.88,2.5,8.79,5.63,17.77,14.89,34.82,29.08,46.9,19.74,16.8,46.54,22.24,72.22,25.74,31.02,4.23,62.55,6.49,93.61,2.6,24.55-3.07,49.43-10.44,68.06-26.72,6.34-5.54,11.76-11.99,16.39-19,2.38-14.94,2.91-30.24,2.94-45.34.07-33.58-3.94-67.16-11.94-99.78" style="fill: #d4c9ca;"/>
              <path d="M1416.21,2211.01c-5.32-33.58-6.56-67.16-3.65-99.77.7-7.84,1.35-15.86,2.88-23.47.71-3.52,2.09-6.71,5.33-8.36,3.23-1.64,7.33-1.95,11-2.54,16.29-2.63,32.79-4.57,49.44-5.85,33.07-2.53,66.75-2.42,100.62.33,27.62,2.24,55.35,6.24,83,11.97,1.91,3.79,3.77,7.61,5.56,11.44,14.41,30.94,24.21,63.42,28.91,95.8,2.3,15.8,3.58,31.75,3.05,47.29-.5,14.65-2.92,29.21-9.53,41.56-12.58,23.52-38.67,35.05-64.41,41.77-31.4,8.2-65.07,10.78-99.12,7.61-27.77-2.59-59.97-8.69-81.26-31.92-10.38-11.32-16.88-25.22-21.37-39.09-4.98-15.39-8-31.19-10.47-46.76" style="fill: #d4c9ca;"/>
              <path d="M1624.02,2092.75c1.72,18.59,0,37.5-8.9,52.37-12.11,20.25-36.67,30.61-62.1,30.2-17.79-.28-36.81-5.73-51.68-17.84-15.88-12.94-25.5-32.21-29.61-51.14-2.49-11.46-3.16-22.9-3.03-34.25,4.16-.4,8.33-.77,12.52-1.09,33.07-2.53,66.75-2.42,100.62.33,13.05,1.06,26.13,2.52,39.21,4.36,1.56,5.63,2.44,11.41,2.96,17.05" style="fill: #a31c48;"/>
              <path d="M1678.94,2225.73c-21.01-17.35-47.15-26.89-72.66-30.61-25.52-3.72-50.67-2.01-75.32.67-18.03,1.96-36.06,4.46-52.63,10.32-16.57,5.86-31.75,15.3-41.55,29.31-11.97-52.89-15.44-106.37-10.3-157.73,1.78-.32,3.59-.54,5.31-.82,12.2-1.97,24.52-3.55,36.93-4.76-.13,11.35.54,22.78,3.03,34.25,4.11,18.93,13.73,38.2,29.61,51.14,14.87,12.11,33.89,17.55,51.68,17.84,25.43.41,49.98-9.95,62.1-30.2,8.89-14.87,10.61-33.78,8.9-52.37-.52-5.63-1.4-11.42-2.96-17.05,12.69,1.79,25.38,3.95,38.05,6.46,17.85,47.16,24.8,96.83,19.83,143.56" style="fill: #8e183f;"/>
              <path d="M1510.28,2123.63c1.32-.16,3.21-.39,5.53-.68,2.32-.26,5.03-.68,8.1-.86,3.06-.22,6.38-.53,9.89-.71,3.51-.11,7.17-.23,10.83-.34,3.68.04,7.37.09,10.91.13,3.55.11,6.97.36,10.08.51,3.11.12,5.96.48,8.35.7,2.4.24,4.35.43,5.72.56,3.32.38,6.48.95,9.46,1.42,1.49.26,2.94.45,4.34.75,1.41.3,2.77.59,4.1.87,2.65.58,5.14,1.1,7.47,1.66,2.33.6,4.51,1.27,6.54,1.9,2.03.64,3.92,1.2,5.67,1.83,1.73.65,3.34,1.26,4.85,1.82.37.14.73.28,1.09.42.35.18.7.32,1.04.48.67.31,1.32.61,1.95.9,1.24.57,2.37,1.11,3.39,1.66,4.07,2.15,6.52,3.57,7.94,4.6,1.4,1.08,1.78,1.68,1.69,2.17-.1.48-.66.79-2.28.92-1.6.08-4.24-.09-8.45-.55-2.1-.29-4.63-.29-7.57-.7-1.47-.24-3.06-.49-4.76-.76-1.7-.27-3.54-.46-5.5-.73-1.96-.25-4.05-.55-6.27-.96-2.23-.31-4.6-.64-7.11-.99-5.03-.84-10.65-1.26-16.94-2.06-1.3-.11-3.14-.28-5.41-.48-2.26-.18-4.95-.5-7.89-.58-2.94-.11-6.17-.32-9.52-.39-3.34,0-6.81-.01-10.29-.02-3.45.15-6.9.29-10.21.43-3.3.2-6.43.54-9.31.77-2.89.19-5.44.62-7.62.89-2.17.29-3.95.53-5.2.69-3,.46-5.8,1.01-8.48,1.45-1.33.24-2.65.41-3.89.69-1.25.26-2.46.52-3.63.76-2.36.48-4.57.92-6.66,1.34-2.06.5-3.99.94-5.81,1.35-1.81.42-3.54.73-5.1,1.11-1.56.39-3.02.73-4.38,1.03-1.36.3-2.63.55-3.8.76-1.18.2-2.26.38-3.24.58-1.97.35-3.6.57-5,.59-1.41,0-2.54-.11-3.44-.31-1.81-.4-2.74-1.16-3.27-2.13-.53-.97-.62-2.06.25-3.49.43-.71,1.11-1.52,2.08-2.44.98-.91,2.32-1.83,4.03-2.9.85-.55,1.82-1.06,2.91-1.58,1.09-.53,2.28-1.08,3.59-1.67,1.31-.58,2.74-1.19,4.29-1.82,1.56-.62,3.29-1.16,5.13-1.78,1.85-.61,3.83-1.24,5.96-1.89,2.15-.59,4.47-1.14,6.94-1.74,1.24-.29,2.51-.59,3.82-.9,1.31-.32,2.7-.52,4.11-.79,2.83-.49,5.81-1.07,9-1.52" style="fill: #faedee;"/>
              <path d="M1505.25,2078.4c1.39-.1,3.38-.25,5.81-.43,2.44-.15,5.31-.43,8.52-.48,3.21-.08,6.7-.25,10.37-.29,3.68.03,7.51.05,11.33.08,15.36.36,30.84,2.19,36.55,3.06,3.46.53,6.73,1.16,9.83,1.71,1.55.3,3.05.52,4.51.86,1.46.33,2.88.65,4.25.96,2.75.63,5.33,1.21,7.75,1.82,2.41.68,4.67,1.31,6.79,1.91,8.46,2.33,14.5,4.79,18.79,6.75,1.07.51,2.03.98,2.9,1.42.82.49,1.58.94,2.3,1.36,1.35.82,2.36,1.48,3.1,2.02,1.46,1.17,1.87,1.78,1.79,2.26s-.67.78-2.36,1c-.84.07-1.95.08-3.4.05-.76-.02-1.57-.05-2.45-.08-.9-.1-1.89-.22-2.98-.37-2.18-.34-4.81-.51-7.88-1.02-1.54-.28-3.19-.57-4.97-.89-1.78-.32-3.7-.58-5.76-.92-2.05-.35-4.24-.71-6.58-1.1-2.34-.33-4.82-.68-7.47-1.06-1.32-.19-2.68-.39-4.08-.6-1.4-.22-2.84-.34-4.32-.52-2.96-.33-6.09-.75-9.38-1.09-1.36-.13-3.3-.26-5.68-.51-2.38-.23-5.19-.59-8.28-.74-3.09-.18-6.48-.46-10-.62-3.51-.1-7.17-.2-10.83-.3-3.64.04-7.27.08-10.77.11-3.48.09-6.79.31-9.84.44-3.05.1-5.77.41-8.08.6-2.31.2-4.19.36-5.51.47-3.19.32-6.18.71-9.04,1.02-1.42.17-2.82.27-4.15.48-1.33.19-2.63.38-3.89.56-2.52.34-4.89.66-7.13.96-2.21.37-4.28.7-6.23.99-1.96.27-3.81.45-5.51.69-1.7.26-3.28.48-4.75.66-1.47.19-2.84.34-4.1.46-.63.07-1.25.09-1.84.11-.58.04-1.14.08-1.68.11-8.57.54-11.14-.48-11.95-2.26-.81-1.78.28-3.87,7.65-7.99,1.82-1.1,4.17-1.98,6.98-3.04,1.41-.52,2.93-1.07,4.59-1.64,1.67-.56,3.5-1.04,5.46-1.59,1.98-.5,4.09-1.02,6.36-1.56,2.29-.48,4.75-.91,7.37-1.39,1.31-.23,2.66-.47,4.05-.72,1.39-.25,2.85-.39,4.34-.6,2.99-.36,6.13-.8,9.49-1.12" style="fill: #faedee;"/>
              <path d="M1445.59,2275.34c21.17,16.29,47.21,23.65,72.23,26.72,31.67,3.89,62.85,1.63,93.2-2.6,25.14-3.5,51.09-8.93,68.2-25.74,12.3-12.08,18.9-29.13,21.76-46.9.47-2.91.83-5.84,1.13-8.79.36,6.65.48,13.26.25,19.8-.5,14.65-2.92,29.21-9.53,41.56-12.58,23.52-38.67,35.05-64.41,41.77-31.4,8.2-65.07,10.78-99.12,7.61-27.77-2.59-59.97-8.7-81.26-31.92-10.38-11.32-16.88-25.22-21.37-39.09-.15-.48-.29-.95-.44-1.43,5.72,7.01,12.15,13.45,19.36,19" style="fill: #bdb3b4;"/>
              <path d="M1412.56,2111.23c.7-7.84,1.35-15.86,2.88-23.47.71-3.52,2.09-6.71,5.33-8.36,1.71-.87,3.68-1.36,5.69-1.72-5.14,51.36-1.66,104.84,10.3,157.73,9.81-14.01,24.98-23.45,41.55-29.31,16.57-5.86,34.6-8.36,52.63-10.32,24.65-2.68,49.8-4.39,75.32-.67,25.52,3.72,51.66,13.26,72.66,30.61,4.97-46.73-1.98-96.4-19.83-143.56,1.91.38,3.82.75,5.73,1.14,1.92,3.79,3.77,7.61,5.56,11.44,14.41,30.94,24.21,63.41,28.91,95.8,1.33,9.15,2.3,18.35,2.8,27.49-.3,2.95-.66,5.88-1.13,8.79-2.86,17.77-9.45,34.82-21.76,46.9-17.11,16.8-43.06,22.24-68.2,25.74-30.36,4.23-61.53,6.49-93.2,2.6-25.03-3.07-51.07-10.44-72.23-26.72-7.21-5.54-13.63-11.99-19.36-19-4.71-14.94-7.64-30.24-10.03-45.34-5.32-33.58-6.55-67.16-3.65-99.78" style="fill: #d4c9ca;"/>
              <path d="M996.62,2111.31c-18.62-8.12-36.71-20.37-54.14-37.96-15.34-15.47-27.42-33.99-36.36-53.81-9.69-21.48-15.59-44.49-18.61-67.83-.38-2.91-.7-5.83-.99-8.76,8.42-8.12,17.47-15.58,27.01-22.35,12.34-8.76,25.46-16.38,39.07-22.98,14.82-7.19,30.2-13.17,45.87-18.23,125.51-40.51,265.3-39.32,393.38-9.58,27.08,6.29,55.25,14.79,74.33,35.02,22.11,23.44,27.51,57.59,31.88,89.52,3.79,27.69,5.8,60.46-15.34,78.73-12.66,10.95-30.77,13.41-47.4,11.52-16.63-1.89-32.57-7.58-48.94-11.06-129.81-27.61-270.59,89.74-389.76,37.76" style="fill: #ad5b5f;"/>
              <path d="M1096.89,1859.89c-2.46,5.43-8.59,8.71-13.78,11-6.75,2.97-13.74,5.41-20.54,8.28-7.1,3-14.14,6.14-21.11,9.43-13.94,6.58-27.61,13.74-40.95,21.45-26.57,15.35-51.87,32.9-75.56,52.42-11.27,9.29-23.32,21.38-39.1,20.54-7.21-.38-13.46-4.01-17.22-10.18-3.46-5.66-4.81-12.37-5.9-18.82-5.38-31.85-8.01-64.2-8.14-96.49-.13-32.36,2.33-64.73,7.34-96.7,3.79-24.23,9.03-48.24,15.7-71.84,6.02,11.55,13.49,22.37,21.94,32.32,17.95,21.13,39.99,38.39,63.46,52.99,27.27,16.96,56.31,30.76,84.65,45.8,14.02,7.44,28.1,15.06,41.35,23.84,5.3,3.51,10.99,9.08,7.88,15.98" style="fill: #fad030;"/>
              <path d="M1089.02,1843.91c-13.25-8.77-27.33-16.4-41.35-23.84-28.33-15.04-57.38-28.84-84.65-45.8-23.46-14.6-45.5-31.86-63.46-52.98-8.45-9.95-15.93-20.77-21.94-32.32-6.66,23.6-11.91,47.61-15.7,71.84-2.1,13.43-3.75,26.94-4.95,40.49,18.65,30.94,49.42,54.37,84.23,64.06,9.17,2.55,20.2,5.6,22.95,14.71,1.62,5.37-.38,11.13-2.76,16.21-15.47,33.02-47.56,56.12-82.21,67.47-4.34,1.42-8.71,2.68-13.12,3.78.71,1.83,1.53,3.61,2.56,5.3,3.77,6.17,10.01,9.8,17.22,10.18,15.78.83,27.84-11.26,39.11-20.54,23.68-19.52,48.99-37.06,75.56-52.42,13.35-7.71,27.01-14.87,40.95-21.45,6.97-3.29,14.01-6.43,21.11-9.43,6.8-2.87,13.79-5.31,20.54-8.28,5.19-2.29,11.32-5.57,13.78-10.99,3.12-6.89-2.58-12.47-7.88-15.98" style="fill: #edc528;"/>
              <path d="M1851.29,1567.71c-22.82-43.49-50.41-84.49-82.21-121.92-64.82-76.27-147.39-137.18-241.09-172.98-97.58-37.28-206.2-47.73-308.37-24.38-33.35,7.62-65.92,18.8-97.02,33.18-35.98,12.89-70.15,30.84-101.01,53.31-78.53,57.18-132.1,143.59-151.58,238.52-9.71,47.34-10.97,96.47-2.84,144.14,4.15,24.34,10.66,48.98,24.06,70.01,12.02,18.86,29.55,33.12,50.08,41.86,45.88,19.52,96.89,10.4,140.27-11.17,23.98-11.92,45.21-27.67,66.82-43.29,22.84-16.5,46.7-29.69,75.67-29.36,15.28.17,30.35,3.06,45.29,6,14.56,2.86,29.13,5.7,43.71,8.44,29.59,5.56,59.25,10.78,89,15.42,59.42,9.27,119.25,16.22,179.35,18.86,58.98,2.59,119.21,1.96,177.66-7.11,47.12-7.32,98.86-26.83,119.83-73.43,21.86-48.57-5.01-103.01-27.62-146.1" style="fill: #fedc56;"/>
              <path d="M1690.65,1607.89c-24.56-36.26-64.29-65.88-108.07-64.5-26,.82-51.01,12.79-75.5,20.53-28.07,8.88-56.48,16.84-85.48,22.08-45.13,8.15-92.16,9.53-136.45-2.36-26.01-6.98-50.69-18.42-76.85-24.83-63.45-15.55-133.93,1.07-183.75,43.33-23.15,19.64-42.64,46.3-44.55,76.6-1.46,23.12,7.41,45.6,17.74,66.33,15.19,30.46,33.68,58.74,54.45,85.39,10.06-3.35,19.9-7.47,29.37-12.18,23.98-11.92,45.21-27.67,66.82-43.29,22.84-16.5,46.7-29.69,75.67-29.36,15.28.18,30.35,3.06,45.29,6,14.56,2.86,29.13,5.7,43.71,8.44,29.59,5.56,59.25,10.78,89,15.42,59.42,9.27,119.25,16.22,179.35,18.86,58.98,2.59,119.21,1.96,177.66-7.11,4.24-.66,8.51-1.42,12.8-2.29-10.33-18.57-20.32-36.89-28.17-57.24-15.77-40.86-28.49-83.57-53.05-119.83" style="fill: #fad444;"/>
              <path d="M1851.29,1567.71c-22.82-43.49-50.41-84.49-82.21-121.92-64.82-76.27-147.39-137.18-241.09-172.98-97.58-37.28-206.2-47.73-308.37-24.38-33.35,7.62-65.92,18.8-97.02,33.18-35.98,12.89-70.15,30.84-101.01,53.31-78.53,57.18-132.1,143.59-151.58,238.52-9.71,47.34-10.97,96.47-2.84,144.14,4.15,24.34,10.66,48.98,24.06,70.01,12.02,18.86,29.55,33.12,50.08,41.86,4.71,2,9.47,3.69,14.27,5.1-24.04-25.81-42.68-56.66-53.72-90.18-21.31-64.73-13.96-138.34,19.72-197.58,17.32-30.46,45.92-59.32,80.95-58.82,22.82.33,43.28,13.03,64.13,22.29,36.44,16.19,76.4,22.38,115.81,28.41,100.16,15.33,203.98,30.48,301.53,3.09,61.27-17.21,119.78-51.05,183.39-48.91,74.38,2.51,141.33,57.95,167.44,127.63,13.89,37.07,17.17,77.49,11.97,116.6-.66,4.97-1.48,11.44-2.67,18.55,14.68-10.65,26.9-24.33,34.77-41.83,21.86-48.57-5.01-103.01-27.62-146.1" style="fill: #fad444;"/>
              <path d="M1697.5,1712.13c-9.26-51.68-31.85-103.98-74.39-138.41-19.13-15.49-41.54-27.04-65.14-31.87-38.95-7.96-76.21,6.24-103.54,31.57-38.6,35.77-60.26,85.92-73.05,137.29-10.5,42.15-17.75,85.54-21.51,129.3-3.74,43.52-3.81,87.71,1.3,131.76,5.06,43.6,15.23,87.06,31.67,128.57,2.08,5.25,4.26,10.46,6.52,15.64.15.33.44.5.78.43,37.81-7.68,76.01-13.87,114.52-18.5,38.19-4.59,76.67-7.65,115.31-9.18,21.82-.86,43.69-1.22,65.6-1.1.33,0,.55-.27.54-.59-1.23-63.46-.36-126.82,2.64-189.91,2.9-61.21,9.83-123.17-1.24-184.98" style="fill: #d47c80;"/>
              <path d="M1450.17,2073.06c-17.56-.05-39.49-2.86-46.74-19.53-6.6-15.17,5.33-31.92,20.35-36.43,15.02-4.52,31.66-.51,47.52,2.92,34.31,7.42,69.52,12.06,103.43,7.3,33.91-4.76,66.64-19.74,87.21-46.32,9.67-12.5,16.44-27.19,26.23-39.58,2.74-3.46,5.81-6.77,9.17-9.72.41-11.54.86-23.07,1.4-34.59,2.9-61.21,9.83-123.17-1.25-184.98-5.89-32.88-17.19-65.99-35.57-94.61-27.65,21.17-52.16,46.7-77.79,70.46-35.75,33.15-76.28,64.22-125.26,72.61-13.67,2.34-30.09,1.91-39.74-9.08-10.3-11.72-7.57-29.26-2.18-42.96,18.42-46.83,59.26-80.62,104.76-101.12,33.17-14.94,68.94-23.62,105.19-30.54-1.25-1.08-2.52-2.14-3.81-3.18-19.13-15.49-41.54-27.04-65.14-31.87-38.95-7.96-76.21,6.24-103.54,31.57-38.6,35.76-60.26,85.92-73.05,137.29-10.5,42.15-17.75,85.54-21.51,129.3-3.74,43.51-3.81,87.71,1.3,131.76,5.06,43.6,15.23,87.06,31.67,128.57,2.08,5.25,4.26,10.46,6.52,15.64.15.33.44.5.78.43,37.81-7.68,76.02-13.87,114.52-18.5,38.19-4.59,76.67-7.65,115.31-9.18,21.82-.87,43.69-1.22,65.6-1.1.33,0,.55-.27.54-.59-.29-14.79-.45-29.57-.51-44.35-74.88,29.96-161.88,30.61-245.44,30.39" style="fill: #bf6f73;"/>
              <path d="M1381.7,1722.69c-.49,59.64-5.19,119.28-11.64,178.55-6.52,59.89-15.29,119.47-24.02,179.07-1.42,9.69-2.86,19.38-4.3,29.07-2.53,1.54-5.23,2.77-7.99,3.63-13.59,4.26-28.26,1.26-41.99-.56-29.01-3.84-58.35-5.18-87.59-4.04-28.91,1.13-57.74,4.68-86.05,10.64-24.07,5.06-54.38,15.36-75.23-3.46-17.71-15.99-20.37-43.56-22.84-65.8-3.07-27.67-3.62-55.6-2.04-83.39,3.21-56.32,15.11-111.88,31.91-165.63,8.43-26.98,18.12-53.57,28.7-79.78,10.29-25.49,21.13-50.89,33.47-75.47,22.95-45.68,54.72-89.95,104.26-108.72,22.76-8.62,48-11,71.46-3.73,21.89,6.79,40.64,21.26,54.91,38.97,34.08,42.29,39.41,98.29,38.97,150.66" style="fill: #d17a7e;"/>
              <path d="M1326.49,2078.99c-61.09-1.26-122.17-2.52-183.26-3.78-19.33-.4-40.55-1.52-54.74-14.66-13.54-12.54-16.78-33-14.34-51.3,1.03-7.75,3.28-15.96,9.35-20.89,6.89-5.59,17.06-5.37,25.27-2.02,8.21,3.36,15.01,9.34,21.97,14.84,61.32,48.4,147.94,61.57,221.53,36.27,6.55-45.32,12.81-90.68,17.77-136.21,5.57-51.18,9.83-102.64,11.21-154.14-14.46-7.17-29.97-13-43.52-21.71-28.13-18.07-49.99-49.58-83.19-53.58-8.39-1.01-16.93-.1-25.33-1.08-8.4-.98-17.17-4.34-21.61-11.54-5.19-8.41-2.97-19.47,1.31-28.39,16.33-34.07,59.09-50.06,96.21-43.01,24.15,4.59,45.8,17.19,64.09,33.86-5.88-17.76-14.36-34.57-26.5-49.64-14.27-17.71-33.02-32.17-54.91-38.96-23.46-7.27-48.7-4.89-71.46,3.73-49.54,18.77-81.31,63.03-104.26,108.72-12.34,24.57-23.18,49.98-33.47,75.47-10.58,26.21-20.27,52.79-28.7,79.78-16.8,53.76-28.7,109.31-31.91,165.63-1.59,27.79-1.04,55.72,2.04,83.39,2.47,22.24,5.13,49.81,22.84,65.81,20.85,18.82,51.16,8.52,75.23,3.46,28.32-5.95,57.14-9.51,86.05-10.64,29.24-1.14,58.58.2,87.59,4.04,13.73,1.82,28.4,4.82,41.99.56,2.75-.86,5.46-2.09,7.99-3.63,1.44-9.69,2.88-19.38,4.3-29.07.06-.42.12-.84.19-1.26-6.61.18-13.23.08-19.74-.05" style="fill: #bf6f73;"/>
              <path d="M948.34,1798.28c18.89,27.05,45.76,47.72,75.19,62.2,34.22,16.84,71.55,26,108.74,33.6,40.59,8.3,81.42,15.48,122.38,21.71,25.18,3.84,50.42,7.27,75.71,10.33,11.96,13.53,26.1,25.13,41.4,34.67,19.8,12.35,41.62,21.2,64.18,27.05,23.81,6.18,48.47,9.17,73.04,9.7,21.48.46,43.74-1.35,63.65-10.03,4.93-2.15,9.69-4.73,14.13-7.77,4.25-2.9,8.49-6.16,11.54-10.36,2.66-3.67,4.12-8.15,3.01-12.63,3.05-.98,6.03-2.16,8.88-3.62,5.28-2.71,10.25-6.55,13.3-11.73,2.7-4.59,4.04-10.15,3.38-15.46-.55-4.4-2.58-8.38-5.9-11.18,5.62-1.84,11.2-3.83,16.71-6,6.49-2.56,13.26-5.39,18.13-10.58,2.1-2.24,3.78-4.98,4.29-8.05.51-3.05-.11-6.19-1.71-8.84-2.35-3.89-6.29-6.54-10.55-8.26,3.73-.3,7.43-.84,10.93-2.09,4.87-1.73,9.49-5.06,11.59-9.92,2.16-5,1.01-10.67-1.84-15.13-3.08-4.82-7.95-7.96-13.17-10.07-5.89-2.37-12.24-3.66-18.44-4.92-13.36-2.72-26.93-4.29-40.53-5.19-11.43-.76-23-1.33-34.46-1.17-11.07.16-22.19-2.32-33.16-3.95,12.14-7.93,26.07-10.49,35.82-21.94,3.91-4.59,6.7-10.44,6.43-16.47-.27-6.03-4.15-12.07-9.95-13.71-3.53-.99-7.28-.33-10.91.2-41.83,6.11-84.95-5.81-126.53,1.82-22.25,4.08-38.51,15.81-51.6,33.85-.33.45-.64.92-.96,1.38-3.38-1.38-6.76-2.76-10.12-4.17-35.7-14.89-70.57-31.7-104.36-50.53-33.56-18.7-66.03-39.32-97.22-61.73-30.26-21.75-60.34-45.72-96.15-57.68-31.88-10.65-69.47-11.49-97.95,8.57-23.3,16.41-36.88,43.8-40.3,71.66-3.79,30.83,5.8,61.21,23.42,86.44" style="fill: #fcbc7a;"/>
              <path d="M1494.04,1817.3c17.29-5.51,34.43-12.77,48.03-24.79,7.56-6.68,13.93-15.04,17.96-24.25.34.07.68.13,1.01.23,5.81,1.63,9.68,7.68,9.95,13.71s-2.52,11.87-6.43,16.47c-9.7,11.39-23.52,13.98-35.61,21.81-11.83.39-23.65-.67-34.92-3.17" style="fill: #fbb66f;"/>
              <path d="M1500.03,1947.06c-3.3-.66-7.45-2.49-6.99-5.82.44-3.16,4.58-3.97,7.77-3.98,41.53-.09,83.49,3.59,124.66-.08-.54,1.47-1.19,2.89-1.98,4.23-3.04,5.18-8.02,9.02-13.3,11.73-2.85,1.46-5.83,2.64-8.88,3.62h0c-33.97.21-67.96-3.02-101.27-9.7" style="fill: #fbb66f;"/>
              <path d="M928.68,1746.68c37.86,51,97.22,81.26,156.4,104.33,68.23,26.6,139.24,46.09,211.49,58.03,17.83,2.95,35.92,5.49,52.76,12.04,20.57,8.01,38.38,21.65,57.74,32.23,57.84,31.61,128.72,34.35,191.9,15.07-.22.34-.44.68-.68,1.01-3.04,4.2-7.29,7.46-11.54,10.36-4.44,3.04-9.2,5.62-14.13,7.77-19.91,8.68-42.17,10.49-63.65,10.03-24.57-.52-49.23-3.52-73.04-9.7-22.56-5.86-44.38-14.71-64.18-27.05-15.3-9.54-29.45-21.14-41.4-34.67-25.29-3.06-50.52-6.49-75.71-10.33-40.95-6.24-81.79-13.41-122.38-21.72-37.19-7.6-74.52-16.76-108.74-33.6-29.43-14.48-56.29-35.14-75.19-62.2-11.81-16.91-20-36.14-22.98-56.26,1.08,1.58,2.19,3.14,3.32,4.66" style="fill: #fbb66f;"/>
              <path d="M1600.51,1873.27c-19.43-1.5-40.67-3.89-58.73-12.01-1.68-.76-3.17-2.28-3.45-4.1-.3-1.94,1.14-3.83,2.92-4.64,1.79-.82,3.83-.79,5.79-.64,15.06,1.15,29.99,3.62,45.01,5.58,25.93,3.39,53.21,4.67,77.31-5.49.51-.22,1.03-.45,1.54-.68.85,3.2.8,6.6-.56,9.73-2.1,4.86-6.72,8.19-11.59,9.92-3.51,1.24-7.2,1.79-10.93,2.09.18.07.36.16.54.24-15.85,1.45-31.93,1.23-47.86,0" style="fill: #fbb66f;"/>
              <path d="M1517.34,1903.59c-4.61-1.2-10.32-4.19-9.37-8.86.86-4.25,6.43-5.24,10.77-5.12,25.77.7,51.05,7.21,76.76,9,21.32,1.49,42.86-.38,63.65-5.35-.8,1.82-1.97,3.47-3.34,4.92-4.87,5.2-11.64,8.02-18.13,10.58-5.51,2.17-11.08,4.16-16.71,6,.04.03.07.07.11.1-34.89,1.29-69.96-2.44-103.73-11.27" style="fill: #fbb66f;"/>
              <path d="M1849.72,1711.84c-3.43-27.86-17-55.25-40.31-71.66-28.48-20.06-66.07-19.21-97.95-8.57-35.81,11.96-65.89,35.93-96.15,57.68-31.19,22.42-63.67,43.04-97.22,61.74-33.79,18.83-68.67,35.64-104.36,50.52-3.37,1.4-6.74,2.79-10.12,4.17-.32-.46-.63-.92-.96-1.38-13.09-18.03-29.35-29.77-51.6-33.85-41.58-7.62-84.7,4.3-126.53-1.82-3.63-.53-7.38-1.19-10.91-.2-5.81,1.63-9.68,7.68-9.96,13.71-.27,6.03,2.52,11.87,6.43,16.47,9.75,11.45,23.68,14.01,35.82,21.94-10.97,1.63-22.09,4.1-33.16,3.95-11.46-.16-23.03.41-34.46,1.17-13.6.9-27.17,2.48-40.53,5.19-6.2,1.26-12.55,2.55-18.44,4.92-5.22,2.1-10.09,5.24-13.17,10.07-2.86,4.47-4.01,10.14-1.84,15.14,2.1,4.86,6.72,8.19,11.59,9.92,3.51,1.24,7.2,1.79,10.93,2.09-4.25,1.72-8.19,4.37-10.55,8.26-1.6,2.65-2.22,5.78-1.71,8.84.51,3.07,2.18,5.8,4.29,8.05,4.87,5.2,11.64,8.02,18.13,10.58,5.51,2.17,11.08,4.16,16.71,6-3.32,2.8-5.35,6.79-5.9,11.18-.66,5.31.68,10.87,3.38,15.46,3.05,5.18,8.02,9.02,13.3,11.73,2.85,1.46,5.84,2.64,8.88,3.62-1.11,4.48.35,8.96,3.01,12.63,3.04,4.2,7.29,7.46,11.54,10.36,4.45,3.04,9.2,5.62,14.13,7.77,19.91,8.68,42.17,10.49,63.65,10.03,24.57-.52,49.23-3.52,73.04-9.7,22.56-5.86,44.38-14.71,64.18-27.05,15.3-9.54,29.45-21.14,41.4-34.67,25.29-3.06,50.52-6.49,75.71-10.33,40.95-6.24,81.79-13.41,122.38-21.72,37.19-7.6,74.52-16.76,108.74-33.6,29.43-14.48,56.29-35.14,75.19-62.2,17.62-25.23,27.2-55.62,23.42-86.44" style="fill: #fdcb97;"/>
              <path d="M1280.61,1817.3c-17.29-5.51-34.43-12.77-48.03-24.79-7.56-6.68-13.92-15.04-17.96-24.25-.34.07-.68.13-1.01.23-5.81,1.63-9.68,7.68-9.95,13.71s2.52,11.87,6.43,16.47c9.7,11.39,23.52,13.98,35.61,21.81,11.83.39,23.65-.67,34.92-3.17" style="fill: #fdc286;"/>
              <path d="M1274.62,1947.06c3.29-.66,7.45-2.49,6.99-5.82-.44-3.16-4.58-3.97-7.77-3.98-41.53-.09-83.49,3.59-124.66-.08.54,1.47,1.19,2.89,1.98,4.23,3.04,5.18,8.02,9.02,13.3,11.73,2.85,1.46,5.84,2.64,8.88,3.62h0c33.97.21,67.96-3.02,101.28-9.7" style="fill: #fdc286;"/>
              <path d="M1845.97,1746.68c-37.86,51-97.22,81.26-156.4,104.33-68.23,26.6-139.24,46.09-211.49,58.03-17.83,2.95-35.92,5.49-52.76,12.04-20.57,8.01-38.38,21.65-57.74,32.23-57.84,31.61-128.72,34.35-191.9,15.07.22.34.44.68.68,1.01,3.04,4.2,7.29,7.46,11.54,10.36,4.44,3.04,9.2,5.62,14.13,7.77,19.91,8.68,42.17,10.49,63.65,10.03,24.57-.52,49.23-3.52,73.04-9.7,22.56-5.86,44.38-14.71,64.18-27.05,15.3-9.54,29.45-21.14,41.4-34.67,25.29-3.06,50.52-6.49,75.71-10.33,40.95-6.24,81.79-13.41,122.37-21.72,37.19-7.6,74.52-16.76,108.74-33.6,29.43-14.48,56.29-35.14,75.19-62.2,11.81-16.91,20-36.14,22.98-56.26-1.08,1.58-2.19,3.14-3.32,4.66" style="fill: #fdc286;"/>
              <path d="M1202.02,1987.52c.12-.28,1.83.19,5.05,1.13,3.21.95,7.97,2.24,14.22,3.46,6.25,1.18,14,2.22,23.11,2.62,9.11.43,19.55.22,31.17-.56,11.6-.78,24.32-2.17,37.87-4.63,13.54-2.46,27.93-5.98,42.63-11.17,14.69-5.19,29.72-12.06,44.19-21.18,14.46-9.11,28.43-20.42,40.52-34.17l1.17-1.33,1.78-.22c23.98-2.98,48.9-6.38,74.43-10.26,46.08-7,89.82-14.75,129.38-22.73,19.75-4,38.36-8.33,55.43-13.45,17.07-5.1,32.59-10.99,46.26-17.42,13.63-6.47,25.39-13.52,35.14-20.5.61-.43,1.22-.86,1.82-1.29.59-.44,1.17-.88,1.75-1.32,1.16-.87,2.29-1.73,3.41-2.57,2.17-1.75,4.31-3.38,6.24-5.07.98-.83,1.94-1.65,2.88-2.44.91-.82,1.81-1.63,2.68-2.41,1.77-1.55,3.36-3.12,4.89-4.58,12.12-11.85,17.6-19.64,18.26-19.16.26.18-.83,2.3-3.29,6.13-2.52,3.77-6.48,9.2-12.28,15.63-1.46,1.59-2.99,3.3-4.7,4.99-.84.85-1.71,1.73-2.6,2.62-.92.86-1.85,1.75-2.81,2.65-1.89,1.84-4,3.6-6.14,5.51-1.1.91-2.22,1.84-3.37,2.79-.57.47-1.15.95-1.74,1.43-.6.46-1.2.93-1.81,1.4-9.7,7.58-21.53,15.24-35.36,22.29-13.83,7-29.59,13.41-46.9,18.93-17.3,5.55-36.12,10.23-55.97,14.5-39.66,8.5-83.5,16.54-129.75,23.56-25.63,3.89-50.66,7.23-74.74,10.06l2.95-1.55c-12.88,14.46-27.65,26.17-42.85,35.5-15.23,9.35-30.96,16.25-46.23,21.34-15.29,5.1-30.16,8.39-44.08,10.56-13.93,2.17-26.95,3.2-38.77,3.57-11.81.37-22.5.14-31.8-.76-9.31-.88-17.22-2.44-23.51-4.16-6.3-1.75-11-3.59-14.07-5.07-3.07-1.47-4.56-2.45-4.46-2.7" style="fill: #fbb66f;"/>
              <path d="M1174.13,1873.27c19.42-1.5,40.67-3.89,58.73-12.01,1.68-.76,3.17-2.28,3.45-4.1.3-1.94-1.14-3.83-2.92-4.64-1.79-.82-3.83-.79-5.79-.64-15.06,1.15-29.99,3.62-45.01,5.58-25.93,3.39-53.21,4.67-77.31-5.49-.51-.22-1.03-.45-1.54-.68-.85,3.2-.8,6.6.56,9.73,2.1,4.86,6.72,8.19,11.59,9.92,3.51,1.24,7.2,1.79,10.93,2.09-.18.07-.36.16-.54.24,15.85,1.45,31.93,1.23,47.86,0" style="fill: #fdc286;"/>
              <path d="M1257.31,1903.59c4.61-1.2,10.32-4.19,9.37-8.86-.86-4.25-6.43-5.24-10.77-5.12-25.77.7-51.05,7.21-76.76,9-21.32,1.49-42.86-.38-63.65-5.35.8,1.82,1.98,3.47,3.34,4.92,4.87,5.2,11.64,8.02,18.13,10.58,5.51,2.17,11.08,4.16,16.71,6-.04.03-.07.07-.11.1,34.89,1.29,69.96-2.44,103.74-11.27" style="fill: #fdc286;"/>
              <path d="M1127.01,1873.37c.02-.42,1.53-.78,4.24-1.08,1.35-.15,3.01-.28,4.93-.42,1.92-.11,4.09-.24,6.5-.38,2.4-.13,5.04-.28,7.86-.43,2.82-.14,5.83-.35,9-.55,1.58-.09,3.2-.24,4.86-.36,1.66-.12,3.34-.24,5.06-.41,3.44-.28,6.98-.67,10.62-1.04,3.63-.43,7.17-.83,10.58-1.31,1.71-.21,3.38-.45,5.02-.7,1.64-.25,3.25-.45,4.81-.71,3.13-.5,6.11-.95,8.89-1.44,2.79-.44,5.37-.93,7.74-1.34,2.37-.41,4.52-.79,6.41-1.11,1.9-.3,3.53-.57,4.88-.74,2.7-.35,4.26-.35,4.38.06.12.41-1.2,1.23-3.71,2.34-1.25.57-2.8,1.2-4.64,1.84-1.83.64-3.91,1.39-6.26,2.06-2.34.7-4.91,1.45-7.7,2.14-2.78.73-5.78,1.39-8.94,2.06-1.58.35-3.21.62-4.88.94-1.66.32-3.37.61-5.11.86-3.47.56-7.09,1-10.8,1.43-3.71.36-7.34.7-10.85.89-1.75.12-3.48.2-5.17.26-1.69.06-3.34.15-4.96.15-3.23.04-6.29.06-9.16-.02-2.87-.04-5.54-.19-7.97-.34-2.43-.13-4.63-.37-6.56-.56-1.93-.19-3.58-.45-4.93-.7-2.7-.5-4.18-.96-4.16-1.39" style="fill: #fbb66f;"/>
              <path d="M1154.13,1915.25c0-.41,1.54-.83,4.29-1.2,1.38-.18,3.06-.35,5.01-.55,1.95-.17,4.17-.37,6.62-.59,4.9-.4,10.73-.91,17.19-1.52,3.23-.34,6.62-.63,10.12-1.05,3.51-.37,7.13-.83,10.85-1.27,3.71-.5,7.33-.95,10.82-1.47,3.5-.47,6.85-1.03,10.06-1.5,6.41-1.02,12.18-1.98,17.03-2.82,2.43-.4,4.63-.76,6.56-1.08,1.94-.28,3.62-.53,4.99-.71,2.76-.35,4.35-.3,4.45.05.1.36-1.26,1.18-3.85,2.23-1.29.54-2.89,1.14-4.77,1.77-1.88.63-4.02,1.33-6.41,2-4.78,1.4-10.53,2.82-16.97,4.18-3.23.64-6.61,1.33-10.15,1.89-3.53.61-7.2,1.12-10.97,1.63-3.77.45-7.46.88-11.03,1.17-3.57.34-7.02.52-10.3.71-6.58.3-12.51.36-17.48.2-2.49-.05-4.74-.2-6.71-.33-1.97-.13-3.67-.31-5.06-.51-2.77-.4-4.29-.83-4.29-1.24" style="fill: #fbb66f;"/>
              <path d="M1173.21,1956.53c0-.41,1.37-.81,3.85-1.18,2.47-.38,6.06-.65,10.45-1.02,4.4-.34,9.63-.75,15.43-1.2,2.9-.24,5.94-.49,9.09-.76,3.15-.29,6.41-.59,9.75-.9,3.34-.34,6.59-.67,9.74-1.02,3.14-.36,6.17-.71,9.06-1.04,5.78-.67,10.99-1.28,15.37-1.79,2.19-.23,4.18-.43,5.93-.62,1.75-.16,3.28-.24,4.52-.31,2.5-.1,3.93.03,4.01.43s-1.17,1.09-3.52,1.98c-2.35.89-5.81,1.95-10.15,3.01-4.33,1.08-9.53,2.16-15.35,3.11-2.91.49-5.97.93-9.15,1.34-3.18.41-6.48.77-9.87,1.1-3.39.31-6.7.57-9.9.75-3.2.18-6.29.32-9.24.38-5.89.15-11.2.07-15.66-.15-4.46-.19-8.04-.59-10.52-.94-2.48-.38-3.85-.78-3.84-1.19" style="fill: #fbb66f;"/>
              <path d="M1704.64,1633.42c-4.35,1.56-10.82,3.87-18.77,7.77-7.97,3.83-17.48,9.1-28.09,15.93-10.65,6.78-22.38,15.12-35.31,24.37-25.79,18.55-57.44,39.64-94.43,60.66-36.34,20.71-77.88,41.2-123.33,59.68-2.33-3.18-4.83-6.28-7.54-9.23-3.3-3.58-6.91-6.93-10.82-9.95-7.81-6.07-16.93-10.68-26.61-13.42l-3.9-1.01-3.92-.82c-2.6-.44-5.2-.81-7.78-1.22-2.59-.32-5.19-.55-7.77-.82-2.59-.21-5.17-.32-7.74-.48-10.3-.43-20.45-.11-30.41.39-19.91,1.04-39.18,2.76-57.72,1.86-2.31-.16-4.61-.32-6.9-.49-2.29-.18-4.55-.51-6.81-.76-2.24-.21-4.51-.68-7.05-.86-2.5-.18-5.32-.1-8.04.93-2.7,1-4.98,2.78-6.7,4.87-1.71,2.1-2.92,4.52-3.62,7.06-1.43,5.22-.43,10.52,1.58,14.95,1.01,2.23,2.28,4.29,3.73,6.17.71.96,1.5,1.83,2.3,2.68.77.88,1.62,1.66,2.47,2.45,3.4,3.15,7.27,5.56,11.11,7.61,3.85,2.06,7.72,3.74,11.41,5.48,1.35.64,2.68,1.29,3.98,1.95-4.36.75-8.63,1.48-12.82,2.02-3.29.42-6.53.71-9.71.8-.8.04-1.59.02-2.38.03-.82,0-1.64,0-2.46,0-1.64.01-3.27.03-4.89.04-6.47.11-12.75.41-18.84.78-6.08.39-11.99.81-17.72,1.38-11.45,1.12-22.12,2.75-31.86,4.84-4.83,1.03-9.54,2.07-13.95,3.51-4.39,1.43-8.58,3.25-12.07,5.83-3.49,2.55-6.22,5.88-7.75,9.47-1.54,3.58-1.98,7.42-1.19,10.8.78,3.4,2.68,6.1,4.74,8.03,2.08,1.94,4.32,3.23,6.4,4.12,4.2,1.74,7.64,2.06,9.9,2.26.11,0,.2.01.31.02-1.82.53-4.45,1.64-7.12,4.08-1.32,1.24-2.66,2.82-3.64,4.9-.98,2.05-1.54,4.52-1.43,7.13.1,2.63,1,5.36,2.43,7.68.71,1.17,1.54,2.27,2.46,3.28.92.99,1.89,1.94,2.95,2.79,4.22,3.47,8.83,5.48,12.89,7.03,4.07,1.51,7.74,2.64,10.89,3.48,6.29,1.66,10.33,2.1,10.6,1.26.28-.85-3.26-2.8-9.05-5.52-2.9-1.33-6.34-2.92-10.16-4.67-3.74-1.75-7.72-3.73-11.08-6.52-3.44-2.79-5.67-6.06-6.03-9.27-.2-1.63-.02-3.24.45-4.67.45-1.42,1.23-2.73,2.06-3.86,1.69-2.26,3.64-3.82,4.97-4.94,1.35-1.12,2.13-1.85,1.96-2.27-.08-.21-.42-.32-.98-.31-.56-.12-1.35-.26-2.37-.46-2.18-.46-5.52-1.05-9.33-2.92-1.89-.94-3.89-2.24-5.67-4.07-1.77-1.81-3.28-4.23-3.82-7.08-.56-2.85-.08-6.11,1.36-9.18,1.44-3.08,3.87-5.88,7.05-8.08,3.18-2.22,7.05-3.8,11.28-5.07,4.23-1.27,8.83-2.17,13.68-3.1,9.63-1.86,20.17-3.27,31.5-4.18,5.66-.47,11.53-.79,17.58-1.09,6.05-.29,12.27-.49,18.64-.52,1.59,0,3.19.01,4.81.02.81.01,1.62.02,2.44.04.85,0,1.7.03,2.54,0,3.4-.06,6.81-.32,10.22-.72,6.82-.79,13.65-2.07,20.55-3.07l6.97-1.01-5.89-3.9c-7.06-4.67-15-7.65-22.16-11.53-3.58-1.95-6.99-4.14-9.9-6.88-.73-.69-1.46-1.37-2.11-2.13-.68-.74-1.35-1.48-1.93-2.28-1.2-1.58-2.22-3.28-3.01-5.06-1.58-3.53-2.19-7.52-1.19-11,.97-3.54,3.51-6.75,6.71-7.88,1.57-.59,3.45-.7,5.51-.53,2.05.15,4.32.61,6.69.86,2.35.27,4.7.62,7.06.82,2.37.18,4.75.36,7.13.53,19.12,1.01,38.62-.68,58.36-1.66,9.87-.48,19.83-.77,29.82-.34,2.49.16,4.99.26,7.49.47,2.49.27,4.99.49,7.48.8,2.47.39,4.95.78,7.44,1.17l3.64.76,3.6.94c8.94,2.54,17.24,6.73,24.45,12.31,3.61,2.78,6.96,5.88,10.05,9.22,3.08,3.35,5.9,6.91,8.53,10.62l1.45,2.05,2.34-.95c46.55-18.92,89.05-40.13,126.04-61.62,37.01-21.45,68.59-43.06,94.11-62.13,12.78-9.49,24.26-18.03,34.64-25.02,10.35-7.04,19.58-12.54,27.31-16.65,7.71-4.17,13.96-6.8,18.15-8.71,4.26-1.73,6.46-2.73,6.4-2.92-.06-.19-2.4.43-6.82,1.81" style="fill: #fbb66f;"/>
              <path d="M1948.42,1217.89c.87-11.79-.97-23.85-6.09-35.15-4.61-10.19-11.72-19.7-21.06-27.21-9.28-7.46-20.62-12.65-32.74-14.74-3.3-.57-6.65-.91-9.98-1.02,8.46-37.55,12.26-76.18,11.22-114.92-1.49-55.16-12.78-110.98-35.62-163.67-22.43-51.76-56.45-100.45-102.27-139.72-50.39-43.19-113.02-73.45-178.51-93.04-67-20.04-137.22-29.58-206.61-31.87-68.25-2.26-136.61,3.05-201.44,18.52-63.6,15.17-123.54,40.32-173.85,76.58-43.41,31.29-79.81,70.38-104.44,115.06-21.71,31.94-38.34,66.68-48.72,103.2-7.76-4.34-16.68-6.82-25.82-7.31-14.15-.77-28.1,2.99-39.26,9.91-11.51,7.14-20.16,17.34-25.99,28.61-6.66,12.88-9.59,27.15-10.57,41.48-.96,13.98-.64,28.35,1.89,42.4,2.34,12.97,6.89,26,15.24,37.33,7.69,10.43,18.51,19.55,31.44,24.71,13.66,5.45,28.51,5.48,42.14,1.9,2.56-.67,5.05-1.46,7.49-2.35,1.39,6.2,2.91,12.38,4.6,18.53,15.68,57.3,44.16,112.61,83.62,161.52,39.71,49.22,90.03,91.87,146.57,126.06,57.36,34.68,121.18,60.74,187.47,76.54,62.83,14.97,127.98,20.47,191.56,16.26,63.02-4.18,124.69-17.95,180.41-41.87,56.8-24.38,106.27-59.45,145.63-102.42,12.78-13.95,24.47-28.64,35.11-43.94,1.78.89,3.59,1.73,5.44,2.5,11.3,4.69,23.66,7.09,35.85,7.18,12.34.09,24.31-2.37,35.23-6.79,11.13-4.5,21.05-10.96,29.48-18.63,8.6-7.81,15.7-16.89,21.13-26.72,6.31-11.43,10.48-23.96,11.44-36.91" style="fill: #fdcb97;"/>
              <path d="M1942.32,1182.74c-4.62-10.19-11.73-19.7-21.06-27.21-9.28-7.46-20.62-12.65-32.74-14.74-3.3-.57-6.65-.91-9.98-1.02,8.46-37.55,12.26-76.18,11.22-114.92-1.49-55.16-12.78-110.98-35.62-163.67-22.43-51.76-56.45-100.45-102.27-139.72-50.39-43.19-113.02-73.46-178.51-93.04-67-20.04-137.22-29.58-206.61-31.87-68.25-2.26-136.61,3.05-201.44,18.52-63.6,15.17-123.54,40.32-173.85,76.58-43.41,31.29-79.81,70.38-104.44,115.06-21.71,31.94-38.34,66.68-48.72,103.2-7.76-4.34-16.68-6.82-25.82-7.31-14.15-.77-28.1,2.99-39.26,9.91-11.52,7.14-20.16,17.34-25.99,28.61-2.31,4.46-4.16,9.09-5.64,13.83,40.24,6.99,78.27,34.53,87.49,70.13,30.48-60.82,98.97-100.11,171.68-119.97,72.71-19.86,150.81-23.12,227.39-30.18,76.59-7.06,154.42-18.68,218.91-52.99,99.04,69.06,181.64,156.7,239.92,254.53,18.14-28.99,36.28-57.98,54.42-86.98,43.86,58.2,69.46,126.26,72.99,194.09,44.01-16.55,102.93.42,130.34,37.55.98,1.33,1.91,2.69,2.8,4.05.4-2.41.7-4.83.88-7.27.87-11.79-.97-23.85-6.09-35.15" style="fill: #fdc286;"/>
              <path d="M2048.33,773.73c-.06-30.14-4.13-60.29-12.14-89.35-7.69-27.91-19.08-54.76-33.79-79.69-14.22-24.11-31.47-46.43-51.18-66.3-12.79-12.89-26.61-24.73-41.32-35.36,12.81,2.7,25.47,6.18,37.88,10.42,12.61,4.31,24.94,9.42,36.92,15.25.4.19.85-.17.72-.6-11.29-37.43-32.71-71.03-59.74-99.06-28.87-29.94-63.75-53.32-101.2-71.14-43.14-20.52-89.29-33.91-135.76-44.49-48.4-11.01-97.44-20-146.87-24.79-21.95-2.12-44.28-4.07-66.35-2.95-9.68.49-19.6,1.7-29.07,4.31,1.25-4.56,2.71-9.06,4.42-13.47,3.13-8.11,7-15.93,11.55-23.33,4.57-7.43,9.83-14.44,15.7-20.89,5.9-6.48,12.42-12.4,19.48-17.58.86-.63,1.74-1.26,2.62-1.87.44-.31.11-.89-.37-.8-14.61,2.62-29.21,5.29-43.71,8.49-14.38,3.17-28.67,6.84-42.65,11.5-13.79,4.59-27.29,10.15-40.08,17.08-6.39,3.46-12.59,7.26-18.54,11.42-6.26,4.38-12.32,9.12-17.71,14.55-.45.45-.88.91-1.32,1.37-10.92-6.34-22.34-11.8-34.09-16.4-23.2-9.08-47.56-14.69-72.32-17.36-28.13-3.03-56.55-2.44-84.67.44-28.21,2.89-56.13,8.05-83.79,14.22-3.42.76-6.83,1.55-10.24,2.34-.48.11-.4.82.04.93,28.5,6.74,56.12,17.12,82.03,30.74-16.79-.45-33.6-.02-50.36,1.36-43.88,3.61-87.25,13.71-127.8,30.96-37.28,15.86-72.15,37.56-102.34,64.61-31.89,28.57-58.2,63.12-76.58,101.82-18.98,39.95-29.61,84.01-29.48,128.31.02,5.46.2,10.92.56,16.37.03.46.59.53.82.19,16.54-24.14,36.17-46.08,58.22-65.29-6.48,10.71-12.38,21.79-17.64,33.16-14.09,30.42-23.75,62.89-28.45,96.09-4.5,31.79-4.34,64.14.46,95.88,4.59,30.36,13.3,60.08,25.77,88.14,12.44,27.98,28.57,54.35,48.1,77.96,2.42,2.93,4.9,5.82,7.42,8.66.21.24.71.16.83-.14,12.53-30.21,29.63-58.47,50.5-83.65,20.87-25.17,45.45-47.26,72.81-65.17,25.19-16.49,52.52-29.35,79.98-41.55,24.06-10.69,48.37-20.9,71.92-32.71-2.71,3.55-5.49,7.06-8.34,10.5-19,22.9-41.1,43.24-65.53,60.24-13.66,9.5-28.03,17.87-42.97,25.18-.32.16-.21.7.13.75,32.02,4.91,64.53,5.61,96.75,2.38,32.2-3.22,63.99-10.22,94.74-20.27,30.86-10.09,60.64-23.31,89.1-38.92,27.36-15.01,53.48-32.21,78.43-50.95-3.41,5.35-6.98,10.6-10.73,15.72-9.61,13.13-20.3,25.46-31.96,36.81-5.91,5.75-12.07,11.25-18.46,16.46-2.86,2.33-6.28,4.49-8.37,7.6-1.65,2.45-2.18,5.99-.29,8.48,2.4,3.15,6.73,1.74,9.92.96,4.15-1.02,8.29-2.07,12.42-3.15,8.21-2.14,16.4-4.39,24.54-6.79,16.32-4.81,32.47-10.23,48.26-16.56,15.68-6.28,31.01-13.44,45.73-21.74,13.82-7.79,27.05-16.61,39.43-26.53,9.88-7.92,19.22-16.54,27.81-25.85,3.25,9.14,7.48,17.96,12.37,26.31,14.26,24.33,34.16,44.52,54.35,63.94,10.68,10.28,21.51,20.41,31.85,31.03,9.66,9.92,18.78,20.33,27.2,31.33,16.08,21.01,29.69,43.91,40.51,68.06,10.81,24.11,18.84,49.47,23.79,75.43.62,3.28,1.2,6.57,1.72,9.86.09.58.89.71,1.06.09,4.99-18.55,8.99-37.36,11.97-56.33,2.97-18.84,4.94-37.84,5.93-56.89,1-19.18.99-38.42-.03-57.6-.06-1.14-.14-2.29-.2-3.43.23.26.46.52.68.78,15.53,17.9,30.34,36.44,43.69,56.03,12.83,18.83,24.3,38.61,33.58,59.43,8.91,19.99,15.87,40.89,20.15,62.37,4.25,21.32,5.81,43.23,3.93,64.9-.24,2.78-.54,5.55-.89,8.31-.07.56.7.94.99.37,10.95-21.19,20.05-43.33,27.2-66.09,1.64-5.23,3.16-10.49,4.6-15.78,1.56,5.45,3.03,10.93,4.4,16.44,7.21,29.1,11.57,59.02,11.31,89.05-.15,16.87-1.8,33.71-5.1,50.26-.08.41.41.83.78.55,25.17-18.8,47.94-40.74,67.71-65.15,19.76-24.41,36.55-51.23,49.8-79.71,13.37-28.73,23.09-59.12,28.79-90.3,5.81-31.76,7.53-64.26,5.21-96.46-.43-5.94-1-11.88-1.7-17.8,5.88,5.57,11.57,11.33,17.08,17.27,4.98,5.38,9.81,10.9,14.47,16.56.29.35.84.31.97-.17,8.06-29.16,12.06-59.4,12-89.65" style="fill: #b4762a;"/>
              <path d="M2036.19,684.38c-7.69-27.91-19.08-54.75-33.79-79.69-14.22-24.11-31.47-46.43-51.18-66.3-12.79-12.89-26.61-24.73-41.32-35.36,12.81,2.7,25.47,6.18,37.88,10.42,12.61,4.31,24.94,9.42,36.93,15.25.4.19.85-.17.72-.6-4.85-16.07-11.58-31.43-19.8-45.96-71.03-38.81-150.09-63-230.8-69.44,90.9,46.94,170.67,115.25,231.03,197.84-40.45-37.29-87.99-66.85-139.33-86.62,88.16,135.09,114.78,308.72,71.12,464.01-18.18-256.43-168.99-499.86-390.51-630.33,76.94,72.97,128.79,171.57,156.02,273.54,14.14,52.95,19.41,108.95,9.07,162.77-4.58-54.47-31.39-105.16-66.43-147.11-35.04-41.95-78.19-76.24-121-110.22-2.92,73.99-38.21,146.14-94.82,193.87,41.52-84.63,41.8-188.36.72-273.22-9.27,56.38-29.59,111.64-61.73,158.82-14.91,21.88-31.58,42.38-50.58,60.85-9.47,9.2-19.43,17.89-29.85,25.99-7.16,5.56-26.85,14.02-30.96,21.47,30.98-56.26,57.17-115.15,78.2-175.83-51,53.65-106.9,102.64-166.77,146.16,76.37-98.7,123.19-219.97,132.95-344.38-72.42,143.2-214.73,235.34-350.64,320.65,41.33-95.17,102.92-181.5,179.47-251.55-89.28,32.7-171.38,84.84-238.93,151.75,11.7-64.27,53.52-120.29,105.6-159.72,52.08-39.43,113.96-63.84,176.47-82.78-47.02-14.78-96.76-20.49-145.93-17.38-11.29,3.62-22.42,7.73-33.34,12.38-37.28,15.86-72.15,37.55-102.34,64.61-31.89,28.57-58.2,63.12-76.59,101.82-18.98,39.95-29.61,84.01-29.48,128.31.02,5.46.2,10.92.56,16.37.03.46.59.53.82.19,16.54-24.14,36.17-46.08,58.22-65.29-6.48,10.71-12.38,21.79-17.64,33.16-14.08,30.42-23.75,62.89-28.45,96.09-4.5,31.79-4.34,64.14.46,95.88,4.59,30.36,13.3,60.08,25.77,88.14,12.44,27.98,28.57,54.35,48.1,77.96,2.42,2.93,4.9,5.82,7.42,8.66.21.24.71.16.83-.14,12.53-30.21,29.63-58.47,50.5-83.65,20.87-25.17,45.45-47.26,72.81-65.17,25.19-16.49,52.52-29.35,79.98-41.55,24.06-10.69,48.37-20.9,71.92-32.71-2.71,3.55-5.49,7.06-8.34,10.5-19,22.9-41.1,43.24-65.53,60.24-13.66,9.5-28.03,17.87-42.97,25.18-.32.15-.21.7.13.75,32.02,4.91,64.53,5.61,96.75,2.38,32.2-3.22,63.99-10.22,94.74-20.27,30.86-10.09,60.64-23.31,89.1-38.92,27.36-15.01,53.48-32.21,78.43-50.95-3.41,5.35-6.98,10.6-10.73,15.72-9.61,13.13-20.3,25.46-31.96,36.81-5.91,5.75-12.07,11.25-18.46,16.46-2.86,2.33-6.28,4.49-8.37,7.6-1.65,2.45-2.18,5.99-.29,8.48,2.4,3.15,6.73,1.74,9.92.96,4.15-1.02,8.29-2.07,12.42-3.15,8.21-2.14,16.4-4.39,24.54-6.79,16.32-4.81,32.47-10.23,48.26-16.56,15.68-6.28,31.01-13.44,45.73-21.74,13.82-7.79,27.05-16.61,39.43-26.53,9.89-7.92,19.22-16.54,27.81-25.85,3.25,9.14,7.48,17.96,12.37,26.31,14.26,24.33,34.16,44.52,54.35,63.94,10.68,10.28,21.51,20.41,31.85,31.03,9.65,9.92,18.78,20.33,27.2,31.33,16.08,21.01,29.69,43.91,40.51,68.06,10.81,24.11,18.84,49.47,23.79,75.43.62,3.28,1.2,6.57,1.72,9.86.09.58.89.71,1.06.09,4.99-18.55,8.99-37.36,11.97-56.33,2.97-18.84,4.94-37.84,5.93-56.89,1-19.18.99-38.41-.02-57.6-.06-1.14-.14-2.28-.2-3.43.23.26.46.52.68.78,15.53,17.9,30.34,36.44,43.69,56.03,12.82,18.83,24.3,38.61,33.57,59.43,8.91,19.99,15.87,40.89,20.15,62.37,4.25,21.32,5.81,43.22,3.93,64.9-.24,2.78-.54,5.55-.89,8.31-.07.56.7.94.99.37,10.95-21.19,20.05-43.33,27.2-66.09,1.64-5.23,3.16-10.49,4.6-15.78,1.56,5.45,3.03,10.93,4.4,16.45,7.21,29.1,11.57,59.02,11.3,89.05-.15,16.87-1.8,33.71-5.1,50.26-.08.41.41.83.78.55,25.17-18.8,47.94-40.73,67.71-65.15,19.76-24.41,36.55-51.23,49.8-79.71,13.37-28.73,23.09-59.12,28.8-90.3,5.81-31.76,7.53-64.26,5.21-96.46-.43-5.94-1-11.88-1.7-17.8,5.87,5.57,11.57,11.33,17.08,17.27,4.98,5.38,9.81,10.9,14.47,16.56.29.35.84.31.97-.17,8.06-29.16,12.06-59.4,12-89.65-.06-30.15-4.13-60.29-12.14-89.35" style="fill: #a76f29;"/>
              <path d="M1187.78,886.54c-24.31-5.12-50.06-2.52-72.59,8.09-10.92,5.14-20.98,12.09-29.6,20.53-20.7,20.25-28.83,51.84-59.98,59.84-6.62,1.7-13.56,2.13-20.3.84-.67-.13-1.53.56-1.05,1.28,5.23,7.76,10.92,15.35,18.25,21.27,7.09,5.73,15.83,9.57,25.05,9.64,2.04.02,4.07-.18,6.05-.56,6.16,60.28,57.23,108.83,119.13,110.83,63.52,2.05,112.25-46.85,114.11-106.95,1.79-57.89-40.54-112.48-99.07-124.81" style="fill: #fcbd86;"/>
              <path d="M1278.34,1034.93c-10.19,52.7-62.2,88.51-120.72,77.19-64.76-12.53-108.14-75.88-91.09-137.64,16.31-59.06,80.07-85.97,137.7-64.41,52.45,19.62,83.93,74.09,74.11,124.85" style="fill: #fff4ec;"/>
              <path d="M1266.47,992.77c-6.55,33.88-42.26,55.46-79.76,48.2-37.5-7.25-62.58-40.59-56.03-74.47,6.55-33.88,42.26-55.46,79.76-48.2,37.5,7.25,62.58,40.6,56.03,74.47" style="fill: #bd8051;"/>
              <path d="M1243.42,988.31c-4.19,21.66-27.66,35.34-52.43,30.54-24.77-4.79-41.45-26.23-37.26-47.89,4.19-21.66,27.67-35.33,52.43-30.54,24.77,4.79,41.45,26.23,37.26,47.89" style="fill: #805637;"/>
              <path d="M1252.61,977.8c-1.65,8.52-11.53,13.78-22.08,11.74-10.55-2.04-17.76-10.6-16.11-19.12,1.65-8.52,11.53-13.78,22.08-11.74,10.55,2.04,17.76,10.6,16.11,19.12" style="fill: #fff4ec;"/>
              <path d="M1036.06,1068.25c-5.06,26.15,43.52,57.53,108.5,70.1,64.98,12.57,121.76,1.56,126.82-24.58,5.06-26.15-43.52-57.53-108.5-70.1-64.98-12.57-121.76-1.57-126.82,24.58" style="fill: #fdcb97;"/>
              <path d="M1433.95,1044.65c-24.22,55.03-1.31,120.16,56.9,145.67,56.72,24.86,123.73,3.05,155.26-48.69,1.63,1.21,3.37,2.25,5.22,3.12,8.35,3.91,17.89,4.21,26.75,2.09,9.16-2.19,17.56-6.59,25.63-11.33.75-.44.27-1.43-.4-1.6-6.63-1.73-12.71-5.11-17.96-9.5-24.66-20.64-18.39-52.65-28.34-79.84-4.15-11.34-10.23-21.94-17.87-31.28-15.76-19.28-37.88-32.72-62.03-38.58-58.13-14.1-119.85,16.94-143.17,69.95" style="fill: #fcbd86;"/>
              <path d="M1431.46,1069.61c-13.51,51.95,18,106.68,75.68,121.67,63.83,16.59,130.28-21.89,141.5-84.96,10.73-60.32-35.22-112.08-96.51-117.45-55.78-4.89-107.66,30.7-120.67,80.74" style="fill: #fff4ec;"/>
              <path d="M1509.17,1047.73c-8.68,33.39,14.25,68.25,51.21,77.86,36.96,9.61,73.97-9.67,82.65-43.07,8.68-33.39-14.25-68.25-51.21-77.86s-73.97,9.67-82.65,43.06" style="fill: #bd8051;"/>
              <path d="M1531.89,1053.64c-5.55,21.35,9.74,43.81,34.16,50.15,24.41,6.35,48.71-5.82,54.26-27.17,5.55-21.35-9.74-43.81-34.16-50.15-24.42-6.35-48.71,5.82-54.26,27.17" style="fill: #805637;"/>
              <path d="M1592.37,1054.75c-2.18,8.4,4.47,17.4,14.87,20.11,10.4,2.7,20.6-1.92,22.78-10.32s-4.47-17.4-14.87-20.11c-10.4-2.7-20.59,1.92-22.78,10.32" style="fill: #fff4ec;"/>
              <path d="M1635.75,1204.06c-6.7,25.77-64.06,33.17-128.12,16.52-64.06-16.65-110.55-51.05-103.85-76.82,6.7-25.77,64.06-33.17,128.12-16.52,64.06,16.65,110.55,51.05,103.85,76.82" style="fill: #fdcb97;"/>
              <path d="M909.18,1116.99c-5.67,44.41,32.52,85.88,85.31,92.62,52.79,6.75,100.18-23.79,105.86-68.19,5.67-44.41-32.52-85.88-85.31-92.62-52.79-6.74-100.18,23.79-105.86,68.19" style="fill: #fcc29f;"/>
              <path d="M1531.44,1252.82c-5.67,44.41,32.52,85.88,85.31,92.62,52.79,6.75,100.18-23.79,105.86-68.19,5.67-44.41-32.52-85.88-85.31-92.62-52.79-6.74-100.18,23.79-105.86,68.19" style="fill: #fcc29f;"/>
              <path d="M1204.41,874.76c-16.37,6.07-33.53,9.66-50.7,12.64-18.72,3.25-37.56,5.79-56.47,7.65-18.84,1.85-37.75,2.96-56.67,3.52-.25,0-.49.02-.74.03,7.67-6.6,16.71-11.66,26.03-15.54,16.1-6.7,33.25-10.51,49.93-15.46,17.09-5.08,34-10.71,50.78-16.72,16.79-6.01,33.45-12.4,50.03-18.97,16.59-6.58,33.09-13.35,49.59-20.15l5.12-2.11c-3.85,15.23-12.72,28.7-24.05,39.45-12.22,11.6-27.13,19.83-42.86,25.66" style="fill: #b4762a;"/>
              <path d="M1535.07,914.28c-5.6-14.59-7.8-30.56-4.71-45.96,1.24,1.37,2.48,2.74,3.71,4.11,11.96,13.24,23.94,26.47,36.07,39.55,12.13,13.08,24.41,26.01,36.97,38.67,12.56,12.65,25.39,25.02,38.62,36.97,12.91,11.66,26.76,22.48,38.4,35.47,6.73,7.51,12.72,15.97,16.79,25.24-.22-.11-.44-.23-.66-.34-16.83-8.66-33.42-17.81-49.62-27.59-16.27-9.82-32.17-20.23-47.66-31.23-14.2-10.09-28.15-20.72-40.3-33.25-11.68-12.04-21.58-25.89-27.62-41.62" style="fill: #b4762a;"/>
              <path d="M1380.22,1142.22c-2.09,3.35-4.84,6.24-8.1,8.46-6.23,4.23-13.9,6.01-21.37,5.94-9.33-.09-18.41-3.11-26.87-6.82-2.23-.98-4.43-2.01-6.62-3.08-1.59-.77-3.16-1.58-4.63-2.55-2.84-1.86-5.49-4.54-5.57-8.15-.09-4.15,3.26-7.43,6.32-9.75,1.77-1.34,3.66-2.5,5.53-3.7,1.99-1.27,3.97-2.55,5.95-3.83,8.04-5.22,16-10.58,23.87-16.07,2-1.39,3.99-2.8,5.98-4.21,1.8-1.28,3.64-2.53,5.37-3.91,2.87-2.29,5.57-5.34,5.5-9.24-.01-.54-.1-1.07-.22-1.58,3.73.17,7.46,1.55,10.57,3.66,6.31,4.29,9.49,11.58,10.54,18.94.56,3.89.59,7.85.33,11.76-.28,4.17-.84,8.35-1.84,12.41-1.01,4.1-2.49,8.11-4.73,11.71" style="fill: #fdc286;"/>
              <path d="M1382.62,1077.01c-3.57-2.85-7.87-4.66-11.92-5.49-4.08-.84-7.95-.94-11.6-.8-3.65.15-7.09.56-10.39.98l-4.82.62c-.73.09-1.28.14-1.59.14-.11,0-.04,0-.06,0h0s0,.01,0,0c0,0,0,0,0-.02-.07-.11-.12-.3-.18-.49-.07-.17-.1-.44-.17-.66l-.13-.79c-.14-1.13-.15-2.47-.05-3.85.02-.34.07-.69.1-1.04l.16-1.28.32-2.58c1.47-11.14,2.63-19.9,3.54-26.84.88-6.92,1.41-11.98,1.6-15.69.09-.92-.05-1.79-.09-2.57,0-.77-.02-1.45-.06-2.07-.08-1.24-.21-2.19-.41-2.92-.39-1.46-1.01-2.04-1.76-2.22-.75-.18-1.56.07-2.55,1.22-.5.58-1.04,1.38-1.64,2.48-.3.55-.62,1.17-.95,1.87-.36.69-.86,1.44-1.16,2.33-1.39,3.5-2.99,8.42-4.77,15.3-1.77,6.88-3.71,15.73-5.61,27.07l-.43,2.63-.21,1.33c-.07.52-.16,1.04-.21,1.57-.24,2.11-.34,4.3-.15,6.66.05.59.13,1.21.22,1.82.12.64.21,1.24.39,1.91.17.66.35,1.31.62,2.01.28.81.65,1.61,1.08,2.38,1.7,3.07,4.55,5.44,7.87,6.53.78.24,1.57.42,2.38.53.4.05.81.09,1.22.12.39.03.86.04,1.16.04,1.32,0,2.4-.13,3.29-.23l4.9-.6c3.18-.39,6.23-.72,9.11-.81,2.87-.1,5.57.04,7.9.54,2.33.51,4.17,1.38,5.71,2.61,2.61,2.01,4.23,5.41,5.31,8.99.52,1.79.93,3.59,1.24,5.37.33,1.8.58,3.5.8,5.09.82,6.39,1.05,11.14,1.25,14.61.23,3.48.64,5.73,1.34,7.19.76,1.47,1.71,2.11,2.79,2.35s2.2.06,3.51-1.1c1.2-1.18,2.49-3.38,3.54-7.23.96-3.84,1.94-9.34,1.67-16.97-.08-1.91-.23-3.94-.5-6.11-.27-2.19-.69-4.58-1.36-7.17-.69-2.58-1.63-5.39-3.21-8.31-.78-1.46-1.74-2.94-2.9-4.38-1.15-1.43-2.53-2.88-4.11-4.06" style="fill: #fbb880;"/>
              <path d="M809.69,1070.9c2.14-.86,5.11-2.52,7.74-5.08,1.33-1.27,2.55-2.72,3.7-4.28,1.12-1.57,2.14-3.25,3.06-4.99,1.84-3.5,3.23-7.23,4.49-10.87,1.28-3.74,2.49-7.82,3.3-12.14.82-4.3,1.21-8.92.96-13.34-.22-4.39-.99-8.44-1.9-11.98-1.87-7.1-4.21-12.22-5.44-15-3.07-6.74-6.67-12.64-10.72-17.45-2.02-2.4-4.16-4.53-6.33-6.37-1.1-.91-2.17-1.79-3.3-2.53-1.09-.75-2.28-1.43-3.4-2.05-4.52-2.42-8.76-3.65-12.48-4.22-3.72-.56-6.91-.51-9.53-.05-1.3.2-2.47.56-3.49.86-1.02.39-1.92.68-2.68,1.09-1.54.74-2.57,1.55-3.29,2.21-1.39,1.44-1.49,2.4-1.14,3.22.36.82,1.19,1.39,2.81,1.68.83.2,1.84.3,3.13.5.63.06,1.35.24,2.11.34.78.19,1.6.31,2.51.58,1.8.47,3.91,1.03,6.27,2.07,1.19.48,2.41,1.15,3.7,1.87,1.26.78,2.6,1.63,3.89,2.69.65.55,1.29,1.06,1.96,1.72.68.61,1.38,1.26,2.07,1.95,1.39,1.39,2.79,2.99,4.17,4.84,2.76,3.69,5.44,8.36,7.94,14.08,1.01,2.36,2.93,6.85,4.24,12.22.64,2.69,1.13,5.59,1.23,8.53.12,2.91-.17,5.94-.82,9.13-.64,3.17-1.64,6.42-2.78,9.59-1.18,3.27-2.33,6.11-3.53,8.29-.6,1.09-1.19,2.02-1.75,2.78-.57.73-1.1,1.33-1.56,1.75-.94.86-1.58,1.12-2.03,1.33-.14.04-.28.09-.41.15-.12.01-.23.06-.36.08-.25.04-.51.09-.79.08-.56.01-1.21-.07-1.85-.25-1.31-.36-2.58-1.14-3.45-1.98-1.96-1.86-3.21-4.82-3.72-7.64-.53-2.82-.4-5.52-.09-7.83.32-2.34.89-4.32,1.39-6.04,1.05-3.43,2.03-5.67,2.23-7.55.25-1.84,0-3.04-.71-3.95-.7-.89-1.78-1.5-3.95-1.22-1.07.16-2.41.57-3.88,1.53-1.5.93-3.19,2.33-4.97,4.4-1.76,2.08-3.59,4.85-4.98,8.57-1.38,3.7-2.44,8.35-2.07,13.94.19,2.78.74,5.78,1.9,8.93,1.18,3.13,2.99,6.43,5.8,9.44,2.9,3.07,6.63,5.55,11.19,6.96,2.28.7,4.78,1.11,7.45,1.07,1.33,0,2.71-.16,4.09-.43.69-.13,1.38-.33,2.08-.52.66-.22,1.32-.46,1.98-.71" style="fill: #fbb880;"/>
              <path d="M1853.37,1258.12c-.76-.5-1.85-1.24-2.84-2.33-.22-.29-.48-.57-.72-.87-.19-.33-.47-.63-.65-.98-.18-.35-.42-.7-.55-1.08-.08-.2-.18-.37-.25-.58-.07-.22-.14-.45-.22-.67-.56-1.81-.75-4.1-.36-6.93.35-2.81,1.31-6.06,2.58-9.43.65-1.69,1.36-3.42,2.12-5.17.78-1.8,1.55-3.53,2.31-5.19,1.53-3.32,3.07-6.32,4.59-8.87,3.04-5.14,6.05-8.3,7.8-9.86,2.1-1.9,4.2-3.42,6.26-4.52,2.07-1.1,4.04-1.77,6-2.15,3.97-.78,8.08-.22,11.85.36,3.77.66,7.21,1.7,10.13,2.65,2.91.99,5.41,1.83,7.5,2.62,2.11.76,3.77,1.49,5.25,1.92,1.51.39,2.67.7,3.58.89,2.02.14,2.73.15,3.06-.24.32-.38.24-1.08-.4-3.08-.42-.87-1.05-1.98-1.99-3.38-.97-1.36-2.39-2.79-4.24-4.51-1.86-1.69-4.18-3.64-7.23-5.56-3.04-1.92-6.66-4-11.44-5.84-2.38-.91-5.05-1.77-8.11-2.23-3.04-.51-6.45-.73-10.18-.36-7.55.73-15.55,4.27-22.02,10.1-1.35,1.19-3.2,2.96-5.2,5.32-2.01,2.35-4.11,5.22-6.1,8.47-2,3.24-3.88,6.84-5.64,10.52-.88,1.84-1.73,3.7-2.56,5.55-.85,1.9-1.7,3.88-2.52,5.94-1.61,4.14-3.08,8.62-3.79,13.48-.73,4.82-.54,10.1.86,14.79.19.58.37,1.15.55,1.72.19.57.45,1.13.68,1.68.44,1.12,1.01,2.12,1.56,3.1.54.98,1.18,1.83,1.76,2.69.62.82,1.25,1.56,1.85,2.28,2.49,2.77,4.93,4.48,6.64,5.6,2.08,1.37,4.26,2.37,6.42,3.23,2.19.77,4.36,1.41,6.55,1.73,2.17.39,4.34.47,6.45.45,1.06-.07,2.12-.12,3.12-.25,1-.14,1.97-.29,2.92-.51,7.6-1.68,13.39-5.47,17.5-9.62,4.14-4.17,6.6-8.87,7.88-12.94.64-2.05.99-3.98,1.2-5.75.17-1.78.17-3.4.04-4.86-.24-2.92-.91-5.19-1.64-6.91-.69-1.73-1.7-2.88-2.56-3.65-1.79-1.5-3-1.6-3.97-1.26-1.01.35-1.78,1.24-2.67,3.02-.99,1.77-1.36,4.26-2.56,7.75-1.25,3.44-2.97,7.97-7.69,11.79-2.35,1.91-5.53,3.62-9.22,4.26-.46.09-.92.14-1.4.19-.46.04-.9.03-1.37.07-.93-.04-1.91-.07-2.91-.28-1.01-.14-2.02-.48-3.05-.83-1-.42-2.03-.86-2.95-1.48" style="fill: #fbb880;"/>
              <path d="M1391.87,1294.3c-6.47-.98-13.05-1.38-19.64-1.18-12.38.38-24.77,2.84-37.16,3.65-12.39.81-25.12-.15-35.97-6.19-16.78-9.35-26.79-29.44-42.66-40.55-16.88-11.82-38.77-12.18-58.86-6.73,16.42-15.16,33.81-26.87,53.76-34.46,18.67-7.1,39.96-8.42,55.77,4.68,3.59,2.98,6.73,6.64,9.15,10.91,2.44,4.3,4.14,9.16,6.89,13.23,2.69,3.99,6.36,6.59,10.75,7.61,4.96,1.15,10.19.54,15.27-.13,10.8-1.43,21.46-1.97,32.08-.17,10.51,1.79,20.71,5.6,29.62,11.85,17.23,12.1,25,32.79,31.35,54.22-8.09-4.24-16.84-6.1-25.14-9.4-8.25-3.27-16.37-6.02-25.21-7.36" style="fill: #fdc286;"/>
              <path d="M1454.47,1331.57c.01-.8.04-1.75-.07-2.8-.12-1.06-.3-2.26-.55-3.62-.13-.68-.27-1.41-.42-2.17-.18-.75-.42-1.53-.66-2.36-.25-.83-.52-1.7-.8-2.61-.15-.46-.3-.93-.46-1.41-.18-.47-.37-.94-.57-1.43-.4-.98-.83-1.99-1.28-3.06-.23-.53-.47-1.08-.71-1.64-.27-.54-.55-1.09-.84-1.65-.58-1.12-1.2-2.28-1.85-3.49-.63-1.23-1.44-2.39-2.22-3.66-.4-.63-.81-1.26-1.23-1.91-.21-.32-.42-.65-.64-.98-.23-.32-.46-.64-.7-.96-.95-1.29-1.94-2.62-2.98-4-1.06-1.36-2.25-2.68-3.46-4.08-.62-.69-1.21-1.42-1.89-2.09-.67-.68-1.35-1.37-2.05-2.06-6.47-6.61-13.83-11.39-21.44-16.13-1.11-.6-2.23-1.21-3.38-1.82-1.14-.63-2.36-1.12-3.57-1.69-1.22-.55-2.46-1.09-3.71-1.64-1.28-.48-2.59-.96-3.92-1.44-2.63-1.02-5.44-1.74-8.31-2.54-2.87-.76-5.85-1.35-8.91-1.83-8.48-1.34-17.14-1.67-25.79-1.25-5.63.24-11.78.84-17.95,1.64-3,.38-5.76.68-8.2.58-2.45-.11-4.41-.56-6.43-1.58-2-1-3.92-2.51-5.68-4.38-.88-.93-1.71-1.94-2.49-3.02-.81-1.11-1.61-2.31-2.42-3.58-1.62-2.54-3.31-5.37-5.36-8.14-1.02-1.38-2.13-2.75-3.34-4.03-.62-.61-1.24-1.21-1.86-1.81-.62-.59-1.22-1.2-1.88-1.68-5.12-4.22-10.48-6.72-15.05-8.39-2.3-.76-4.41-1.44-6.29-1.85-.94-.22-1.82-.46-2.63-.61-.81-.15-1.56-.28-2.24-.4-6.55-1.16-12.85-1.2-18.74-.83-5.89.39-11.4,1.28-16.52,2.46-5.15,1.19-9.77,2.68-14.13,4.21-4.32,1.61-8.29,3.31-11.92,5.11-7.27,3.56-13.21,7.28-18.1,10.79-1.23.86-2.38,1.74-3.48,2.59-1.1.85-2.14,1.66-3.11,2.49-.97.82-1.89,1.61-2.78,2.37-.86.78-1.68,1.54-2.44,2.27-2.95,2.83-5.2,5.27-6.91,7.35-1.4-1.4-2.82-2.7-4.11-3.77-1.64-1.26-2.94-2.31-3.7-2.8-.9-.62-1.77-1.19-2.59-1.72-.84-.51-1.66-.95-2.42-1.37-1.53-.86-2.98-1.43-4.24-1.94-1.34-.4-2.58-.56-3.63-.73-1.06-.15-1.95-.25-2.74-.25-.39,0-.75,0-1.08.02-.34.05-.65.09-.93.14-.56.1-1,.23-1.35.39-.71.31-1.08.71-1.32,1.21-.24.5-.33,1.03-.13,1.72.1.35.27.74.51,1.2.12.23.27.47.43.73.18.24.38.49.6.76.46.52.99,1.16,1.65,1.87.65.71,1.43,1.46,2.29,2.38.94.78,2.05,1.57,3.24,2.56.61.48,1.25.98,1.93,1.51.66.56,1.36,1.13,2.1,1.74,1.21,1.01,4.42,3.84,7.27,6.98,2.86,3.13,5.28,6.62,6.1,7.95,2.03,3.2,3.55,5.74,4.74,7.76,1.27,1.97,2.19,3.42,3.23,4.3,1.04.88,1.93,1.34,2.91,1.42.93.1,1.7-.07,2.45-.4.74-.33,1.42-.79,2.04-1.64.67-.87,1.04-2,1.22-3.72.07-.85-.05-1.76-.22-2.85-.09-.54-.2-1.12-.36-1.73-.17-.6-.36-1.24-.59-1.92-.91-2.71-2.44-5.98-4.93-9.7-.72-1.11-2.43-3.48-4.59-6.03,1.99-1.49,4.42-3.28,7.48-5.35,9.34-6.33,19.22-11.77,29.47-15.56,7.89-3.08,15.88-4.97,23.98-6.74,4.54-.79,9.38-1.32,14.45-1.44,5.07-.12,10.36.24,15.71,1.12.55.1,1.16.2,1.82.32.66.12,1.35.32,2.11.49,1.52.32,3.15.87,4.95,1.45,3.52,1.29,7.49,3.19,11.02,6.07.48.33.86.75,1.28,1.14.42.39.84.79,1.26,1.2.81.84,1.59,1.78,2.38,2.83,1.58,2.09,3.16,4.62,4.99,7.44.92,1.41,1.9,2.87,3.01,4.36,1.13,1.52,2.35,2.99,3.7,4.4,2.67,2.81,5.83,5.36,9.5,7.21,1.83.93,3.78,1.66,5.8,2.16,2.01.51,4.02.74,5.94.83,3.84.16,7.34-.26,10.45-.63,6.08-.76,11.77-1.28,17.02-1.48,7.81-.04,15.57-.1,23.24,1.21,2.69.43,5.29.94,7.76,1.6,2.46.69,4.88,1.28,7.16,2.16,1.15.4,2.28.81,3.39,1.21,1.09.46,2.17.93,3.22,1.39,1.05.48,2.12.88,3.11,1.41,1,.51,1.99,1.02,2.95,1.52,6.69,3.42,13.42,8.14,19.1,13.37.64.57,1.27,1.14,1.88,1.69.62.55,1.17,1.16,1.74,1.72,1.12,1.15,2.24,2.22,3.24,3.33.99,1.12,1.94,2.21,2.86,3.26.23.26.46.52.68.78.21.27.42.54.62.8.41.53.81,1.05,1.21,1.56.77,1.03,1.59,1.97,2.24,2.97.68.98,1.32,1.92,1.94,2.83.31.45.62.89.91,1.33.27.45.54.89.8,1.32.53.85,1.03,1.67,1.51,2.45.24.39.48.77.71,1.14.21.38.41.76.61,1.12.41.73.79,1.42,1.16,2.08.37.65.73,1.27,1.06,1.86.31.6.6,1.17.87,1.7.56,1.07,1.08,2,1.57,2.81.48.82.84,1.54,1.23,2.13,1.58,2.36,2.7,2.99,3.63,2.71.93-.28,1.64-1.41,1.83-4.64" style="fill: #f7987a;"/>
              <path d="M1047.36,1070.72c-.73,6.23-1.65,12.49-3.63,18.46-1.8,5.43-4.64,11.19-9.8,14.14-4.41,2.52-10.78,2.45-14.03-1.9-2.93-3.91-2.39-9.36-1.17-13.8,1.38-5.01,3.79-9.82,6.53-14.21,2.81-4.52,6.19-8.67,10-12.39,4.47-4.36,9.53-8.04,15-11-1.54,6.8-2.09,13.93-2.89,20.7" style="fill: #fedfbf;"/>
              <path d="M1626.4,1174.74c3.66,5.02,6.64,10.53,8.79,16.39,1.83,4.99,3.09,10.2,3.69,15.49.58,5.15.68,10.53-.23,15.64-.81,4.53-2.67,9.68-7,11.95-4.81,2.51-10.59-.17-13.48-4.34-3.39-4.88-3.47-11.3-2.75-16.98.79-6.24,2.66-12.29,4.68-18.23,2.2-6.46,4.77-13.12,6.31-19.93" style="fill: #fedfbf;"/>
              <path d="M1327.84,1356.58c-.78-.33-1.91-.79-3.3-1.33-1.39-.53-3.01-1.24-4.87-1.78-1.85-.57-3.86-1.27-5.99-1.86-2.14-.53-4.38-1.08-6.61-1.63-9-1.96-18.21-2.38-21.59-2.38-2.05.04-3.99.22-5.83.34-.92.08-1.8.11-2.66.24-.86.13-1.69.26-2.5.38-1.61.26-3.13.49-4.54.78-1.41.35-2.72.69-3.93,1.02-1.22.32-2.34.69-3.36,1.11-1.02.44-1.95.85-2.82,1.25-.86.4-1.64.77-2.35,1.13-.72.35-1.36.69-1.92,1.08-4.54,2.92-5.16,4.46-4.69,5.87.47,1.41,2.01,2.31,6.91,2.41.61,0,1.28.04,2.01.08.73.04,1.52.07,2.37.09.85.02,1.75.03,2.72.03.97,0,2.03.14,3.13.1,1.1,0,2.28-.03,3.52-.07,1.25.03,2.58.07,3.99.1.7,0,1.42.02,2.17.03.74,0,1.51.1,2.29.14,1.57.13,3.23.18,4.97.33.36.04.8.1,1.3.16.5.04,1.07.08,1.7.13,1.25.11,2.74.16,4.37.45,1.62.26,3.41.46,5.25.8,1.83.39,3.74.8,5.64,1.21,1.87.53,3.75,1.06,5.55,1.57,1.78.56,3.45,1.22,5,1.74,1.56.5,2.89,1.16,4.05,1.64,1.15.5,2.09.9,2.75,1.16,1.58.71,3.04,1.46,4.45,2.11.7.34,1.41.61,2.04.97.65.34,1.27.68,1.88,1.01,1.23.63,2.39,1.22,3.49,1.78,1.06.61,2.06,1.17,3.01,1.68.95.52,1.88.94,2.7,1.4.82.46,1.57.91,2.33,1.24.76.34,1.47.64,2.14.91.68.26,1.31.49,1.86.72.57.22,1.1.41,1.6.55.53.12,1.02.21,1.47.28.91.13,1.69.15,2.36.07,1.35-.15,2.28-.69,3.04-1.46.76-.77,1.28-1.69,1.3-3.05.01-.68-.1-1.48-.37-2.42-.13-.47-.3-.99-.52-1.54-.24-.53-.53-1.1-.87-1.7-.33-.62-.75-1.24-1.25-1.88-.49-.65-1.04-1.35-1.66-2.08-.61-.74-1.34-1.47-2.13-2.27-.79-.78-1.72-1.51-2.71-2.33-.99-.81-2.06-1.66-3.22-2.54-1.19-.83-2.51-1.66-3.9-2.54-.7-.44-1.42-.88-2.17-1.34-.74-.47-1.56-.84-2.38-1.28-1.65-.83-3.38-1.76-5.26-2.6" style="fill: #fbb880;"/>
            </g>
          </g>
        </g>
      </g>
    </g>
  </g>
</svg>