<?xml version="1.0" encoding="UTF-8"?>
<svg id="b" data-name="Layer 2" xmlns="http://www.w3.org/2000/svg" viewBox="0 0 1714.92 812.87">
  <g id="c" data-name="Layer 1">
    <g>
      <g>
        <g id="d" data-name="Layer 10">
          <path d="M805.91,645.06c-30.51,9.09-113.22,18.13-143.73,27.22C317.37,775.46,90.85,737.83,3.01,571.21c0-26.39-7.87-81.95,1.82-281.5,186.15-48.74,340.87-108.92,382.66-101.61,10.06,1.75,12.85,3.98,27.1,6.56,31.02,5.6,50.21.88,67.86-.74-7.44,7.94-14.57,12.38-20.03,15.06-39.64,19.42-80.74-10.49-106.25,13.15-2.88,2.67-9.47,8.77-9.02,16.39.1,1.68.53,3.29,1.26,4.87-42.51,8.4-90.93,18.09-136.11,29.25-73.81,18.25-143.04,38.5-207.47,59.71.68,30.87,3.37,152.97,3.97,180.35l158.86,26.38c57.94,39.15,115.88,78.28,173.82,117.42,0,0,194.6-17.06,344.67-31.33l119.75,19.88h0Z" style="fill: #eaaf7c;"/>
          <path d="M1101.44,556.94l106.47-93.69c-28.21-15.87-62.58-32.03-102.92-45.06-91.06-29.38-172.05-29.64-226.1-24.91-59.26-10.38-123.4-24.19-191.32-42.65-64.94-17.65-124.81-37.22-179.3-57.34-6.4-2.89-12.96-5.36-19.33-7.24-14.97-.36-33.93-1.96-55.41-6.66-.02,0-.03,0-.04,0-.04,0-.09-.02-.14-.03-6.2-1.09-74.69-13.62-84.92-35.97-.73-1.58-1.15-3.2-1.26-4.87-.45-7.62,6.14-13.73,9.02-16.39,25.5-23.64,66.61,6.27,106.25-13.15,5.45-2.68,12.59-7.12,20.03-15.06,2.59-.25,5.15-.42,7.69-.48,37.98-.94,47.8,22.86,124.3,64.58,19.82,10.81,45.97,23.84,77.99,36.56,84.55,24.6,184.4,45.99,297.34,56.05,45.72,4.07,89.28,5.91,130.39,6.09,27.77-3.27,70.35-4.65,119.42,8.53,29.48,7.91,53.59,19.02,71.9,29.25,28.14,4.01,63.22,11.99,101.27,28.18,19.36,8.24,36.38,17.28,51.06,26.2-120.8,36.02-241.59,72.04-362.38,108.05h0Z" style="fill: #f9cba2;"/>
          <path d="M1432.13,442.44s-73.12-31.48-110.59-37.88c-37.47-6.4-35.64-19.47-85-29.39-49.35-9.91-88.65-13.57-124.3-13.57s-85-9.54-80.43,7.11-7.62,19.89,106.63,57.07c51.18,16.66,112.72,69.16,126.43,71.49s167.25-54.83,167.25-54.83h0Z" style="fill: #e2ab7d;"/>
        </g>
        <g id="e" data-name="Layer 9">
          <path d="M1207.91,463.25l-106.47,93.69c-98.51,29.38-197.02,58.74-295.53,88.12l-119.75-19.88c93.88-8.92,170.33-16.76,170.8-18.63,1.22-4.88.06-100.1.06-100.1-10.42-4.93-28.15-12.89-50.8-20.76-104.44-36.31-159.55-17.39-235.64-46.09-22.5-8.49-54.4-23.99-89.29-54.87h0c-5.58-5.28-11.15-10.54-16.72-15.8,50.76-.03,89.11-12.09,92-29.25,2.51-14.9-21.59-34.32-48.3-46.38,54.5,20.12,114.36,39.69,179.3,57.34,67.92,18.46,132.06,32.27,191.32,42.65,54.04-4.74,135.04-4.47,226.1,24.91,40.34,13.03,74.71,29.19,102.92,45.06h0Z" style="fill: #efb98b;"/>
        </g>
        <g id="f" data-name="Layer 7">
          <path d="M1637.52,450.56l-2.96,7.14-5.94,14.3-50.26,121.14-563.02-62.19-221.76-24.5c113.58-40.15,207.41-53.21,272.97-57.57,9.36-.62,17.83-1.05,25.64-1.32,63.03-2.21,83.52,5.44,188.83-1.88,92.03-6.4,129.62-15.94,207.16-13.41,64.51,2.11,116.57,11.26,149.34,18.28h0Z" style="fill: #f9c091;"/>
          <path d="M1204.86,493.82c-53.47,14.7-127.33,27.86-189.52,37.13l-221.76-24.5c113.58-40.15,207.41-53.21,272.97-57.57,9.36-.62,17.83-1.05,25.64-1.32,85.69,12.32,171.67,30.03,112.67,46.25h0Z" style="fill: #e0a16c;"/>
          <path d="M1634.56,457.7l-5.94,14.3c-47.57-2.69-269.75-15.8-269.47-25.03.04-1.24,2.59-1.77,6.37-2.5,81.55-15.77,160.05-4.87,160.05-4.87,31.36,4.35,68.04,10.17,109,18.1h0Z" style="fill: #e0a16c;"/>
        </g>
        <g id="g" data-name="Layer 8">
          <path d="M856.95,606.55c-.47,1.87-76.92,9.71-170.8,18.63l-518.5-86.1c-53.56-36.17-107.1-72.35-160.66-108.53-.03-1.2-.05-2.4-.09-3.61,23.04,7.96,54.09,15.81,90.86,16.91.65.02,1.29.03,1.93.05h.02c.48,0,.95.02,1.42.03.56,0,1.11.02,1.67.02,20.56.18,40.37-2.79,107.89-18.11,122.98-27.91,162-41.85,231.52-42.29,16.64-.11,30.28.59,39.06,1.18h0c34.89,30.88,66.79,46.39,89.29,54.87,76.09,28.7,131.2,9.79,235.64,46.09,22.64,7.87,40.38,15.83,50.8,20.76,0,0,1.16,95.22-.06,100.1h0Z" style="fill: #d89964;"/>
          <path d="M481.28,384.72c-8.78-.59-22.42-1.29-39.06-1.18-69.51.44-108.54,14.38-231.52,42.29-67.52,15.33-87.33,18.29-107.89,18.11-.56,0-1.11,0-1.67-.02-.47,0-.94-.02-1.42-.03h-.02c-23.83-5.1-47.66-10.29-71.46-15.56,2.21.3,4.45.58,6.74.85,1.15.14,2.3.27,3.47.4,1.79.2,3.6.39,5.44.57.79.09,1.57.15,2.36.23,2.19.21,4.41.4,6.67.58,1.24.1,2.5.2,3.76.28,2.06.15,4.15.28,6.25.4.82.05,1.65.09,2.48.14,1.87.1,3.76.19,5.67.26.63.03,1.27.05,1.91.08,1.1.03,2.21.07,3.32.1,1.36.03,2.72.07,4.09.09.82.02,1.65.03,2.48.03.77.02,1.55.03,2.32.03,12.11.1,24.86-.29,38.15-1.33,58.21-4.56,92.66-18.89,146.23-32.91,45.35-11.86,111.05-25.24,194.98-29.24,5.63,5.68,11.21,10.93,16.72,15.8h0Z" style="fill: #f9cba2;"/>
        </g>
        <g id="h" data-name="Layer 12">
          <path d="M859.8,501.74c-.93,1.57-1.85,3.14-2.79,4.71-10.42-4.93-28.15-12.89-50.8-20.76-104.44-36.31-159.55-17.39-235.64-46.09-22.5-8.49-54.4-23.99-89.29-54.87h0c-5.5-4.87-11.09-10.13-16.72-15.8,3.79,0,7.52-.07,11.17-.21,16.15,17.27,41.81,40.5,78.2,57.88,58.12,27.77,99.22,19.38,181.17,36.15,29.72,6.09,73.14,17.18,124.7,38.99h0Z" style="fill: #f9cba2;"/>
        </g>
        <g id="i" data-name="Layer 6">
          <path d="M1605.18,465.19c-20.25-1.41-51.77-2.83-90.18-1.22-127.66,5.37-150.94,36.74-265.66,48.74-105.44,11.04-212.32-2.22-244.94-6.26-26.19-3.25-49.51-5.08-96.15-8.73-57.75-4.53-78.44-4.85-102.49-.86-39.33,6.52-65.73,20.95-77.99,26.82-40.8,19.55-111.82,33.99-243.72,6.09,142.98,53.21,285.97,106.42,428.95,159.64h553.25c2.44,0,138.92-224.22,138.92-224.22Z" style="fill: #f9cba2;"/>
          <path d="M630.29,558.78c33.8-3.49,59.06-11.82,75.96-18.85,23.5-9.77,31.07-17.1,55.28-26.15,14.52-5.42,32.1-14.41,68.61-14.88,116.41-1.5,166.74,7.93,176.7,18.68,7.4,7.99,6.91,15.38,6.91,15.38-.12,3.03-1.72,5.97-4.79,10.42-9.4,13.63-216.18,146.26-346.78,46.7-15.32-11.68-25.81-23.67-31.89-31.32h0Z" style="fill: #edb17f;"/>
        </g>
        <g id="j" data-name="Layer 5">
          <path d="M1648.47,448.89v95.93h-395.37c46.7-15.82,96.5-31.02,149.28-44.99,87.52-23.17,170.09-39.5,246.08-50.94Z" style="fill: #e59a5c;"/>
          <path d="M1653.11,442.44v41.03l-4.64.8v-35.39c-75.99,11.44-158.56,27.77-246.08,50.94-52.79,13.97-102.58,29.17-149.28,44.99h45.3l-42.15,7.29-14.22-7.29c74.93-25.62,157.82-49.97,248.19-70.69,56.63-13,111.06-23.39,162.89-31.68h0Z" style="fill: #fcddc2;"/>
        </g>
        <g id="k" data-name="Layer 4">
          <path d="M1657.79,506.45l-9.32,225.4s-624.28-33.54-865.9-131.41c-5.98-2.43-11.73-4.89-17.22-7.39-11.18-5.09-21.33-10.34-30.31-15.76,48.67,3.88,114.23,3.23,188.38-15.02,33.62-8.27,63.36-18.77,88.97-29.65,85.75.5,174.17-.56,265.13-3.49,132.3-4.27,259.19-12.13,380.26-22.68h0Z" style="fill: #f9cba2;"/>
          <path d="M1356.06,630.21c-2.86,15.14-40.96,30.43-208.16,26.3l-365.32-56.07c-5.98-2.43-11.73-4.89-17.22-7.39,95.92-1.76,156.47-17.61,195.46-33.37,11.61-4.69,35.12-14.96,69.19-20.59,38.96-6.44,69.45-3.14,117.91,2.47,51.92,6.01,77.87,9.01,105.69,18.86,41.18,14.58,106.56,48.17,102.46,69.79h0Z" style="fill: #e59a5c;"/>
        </g>
        <g id="l" data-name="Layer 3">
          <path d="M1648.47,558.78v125.59l-636.08-75.01c92.39-12.27,188.99-22.93,289.55-31.39,120.69-10.16,236.39-16.25,346.53-19.19h0Z" style="fill: #ecb68a;"/>
          <path d="M1648.47,566.64v48.31l-347.34,21.45c-69.26-7.26-138.52-14.5-207.77-21.75,86.21-10.97,175.62-20.7,268.1-28.82,98.87-8.68,194.62-14.94,287.01-19.19Z" style="fill: #dd9c6f;"/>
        </g>
        <g id="m" data-name="Layer 2">
          <path d="M1648.47,654.72v77.13H3.01v-309.13c8.41,1.88,16.82,3.76,25.23,5.62,23.81,5.27,47.64,10.45,71.48,15.56,241.36,51.67,483.96,94.61,727.76,128.83,272.13,38.19,545.79,65.52,820.98,81.98h0Z" style="fill: #fed295;"/>
          <path d="M556.56,339.67c-2.68,15.87-35.7,27.39-80.83,29.04-3.65.14-7.38.21-11.17.21-83.92,4-149.63,17.38-194.98,29.24-53.57,14.02-88.02,28.35-146.23,32.91-13.29,1.04-26.03,1.44-38.15,1.33-.78,0-1.56,0-2.32-.03-.83,0-1.66-.02-2.48-.03-1.38-.03-2.74-.06-4.09-.09-1.11-.03-2.21-.07-3.32-.1-.64-.03-1.28-.05-1.91-.08-1.91-.07-3.79-.16-5.67-.26-.83-.04-1.66-.09-2.48-.14-2.1-.12-4.19-.26-6.25-.4-1.26-.09-2.52-.18-3.76-.28-2.26-.18-4.48-.38-6.67-.58-.79-.08-1.57-.15-2.36-.23-1.84-.18-3.65-.38-5.44-.57-1.17-.13-2.32-.26-3.47-.4-2.29-.27-4.54-.56-6.74-.85-7.65-1.03-14.79-2.19-21.38-3.38-.68-30.86-1.35-61.74-2.03-92.61,64.44-21.21,133.66-41.46,207.47-59.71,45.18-11.16,93.6-20.85,136.11-29.25,10.24,22.34,78.73,34.88,84.92,35.97.05,0,.09.02.14.03.02,0,.03,0,.04,0,21.48,4.7,40.45,6.3,55.41,6.66,6.37,2.42,12.8,4.84,19.33,7.24,26.71,12.06,50.81,31.48,48.3,46.38h0Z" style="fill: #d89964;"/>
        </g>
      </g>
      <g id="n" data-name="s">
        <g id="o" data-name="t">
          <g id="p" data-name="u">
            <g id="q" data-name="v">
              <path d="M1407.32,560.71c-6.7-11.34-46.61-17.5-71.22-9.17-20.42,19.21-25.07,23.58-41.83,34.97-19.37-5.56-29.5,1.9-32.75,6.52-4.09,5.79-4.85,14.41-3.36,21.77.91,4.57,4.92,8.87,9.56,8.51.43-.05.87-.11,1.28,0,.53.16.91.59,1.28,1.01,4.83,5.28,13.13,7.02,19.67,4.14.41-.18.85-.39,1.3-.43.71-.07,1.42.23,2.08.5,5.76,2.29,12.74.89,17.82-2.68,6.22-4.37,9.54-7.11,16.33-12.35,9.4-7.3,16.83-13.36,25.71-19.17,26.69-17.38,33.21-21.02,54.13-33.62h0Z" style="fill: #fdc382;"/>
              <path d="M1407.32,560.71c-6.7-11.34-46.61-17.5-71.22-9.17-20.42,19.21-25.07,23.58-41.83,34.97-19.37-5.56-29.5,1.9-32.75,6.52-4.09,5.79-4.85,14.41-3.36,21.77.91,4.57,4.92,8.87,9.56,8.51.43-.05.87-.11,1.28,0,.53.16.91.59,1.28,1.01,4.83,5.28,13.13,7.02,19.67,4.14.41-.18.85-.39,1.3-.43.71-.07,1.42.23,2.08.5,5.76,2.29,12.74.89,17.82-2.68,6.22-4.37,9.54-7.11,16.33-12.35,9.4-7.3,16.83-13.36,25.71-19.17,26.69-17.38,33.21-21.02,54.13-33.62h0Z" style="fill: #fdc382; isolation: isolate; opacity: .4;"/>
              <path d="M1298.37,583.69c-1.28.89-2.63,1.83-4.07,2.81h-.07c7.98,3.13,14.5,7.96,19.35,12.56-.53-4.76-7.96-10.91-15.21-15.35v-.02ZM1269.03,623.3c-.18-11.55,1.23-28.68,18.27-30.42-12.42-.27-23.51-1.05-18.27,30.42ZM1291.26,628.01c-1.69-10.98-1.92-24.88,9.83-29.34-9.15-.39-18.09,7.71-9.83,29.34Z" style="fill: #fdc382; isolation: isolate; opacity: .5;"/>
            </g>
            <g>
              <path d="M1381.05,378.82c-91.34,13.36-117.85,97.27-98,146.89,16.51,41.33,66.67,35.56,66.67,35.56,0,0-23.65,18.11-14,18.11s20.67-7.41,20.67-7.41c0,0-9.42,20.35-1.21,19.33,8.21-1.03,38.74-9.61,60.97-27.74,21.38-17.47,5.83-46.68,26.03-66.57,20.19-19.9,5.58-107.92-61.15-118.19l.02.02Z" style="fill: #f3b57b;"/>
              <path d="M1381.05,378.82c-91.34,13.36-117.85,97.27-98,146.89,16.51,41.33,66.67,35.56,66.67,35.56,0,0-23.65,18.11-14,18.11s20.67-7.41,20.67-7.41c0,0-9.42,20.35-1.21,19.33,8.21-1.03,38.74-9.61,60.97-27.74,21.38-17.47,5.83-46.68,26.03-66.57,20.19-19.9,5.58-107.92-61.15-118.19l.02.02Z" style="fill: #f3b57b; isolation: isolate; opacity: .3;"/>
              <path d="M1402.82,454.89c-20.1-11.5-43.64-16.1-66.8-15.92-17.61.14-35.68,3.16-51.11,11.41-9.97,24.95-10.41,51.85-2.7,73.05,14.23,3.11,27.7,9.88,40.05,17.79,12.85,8.21,24.49,18.68,37.32,26.67,8.6,5.35,20.13,9.72,31.61,11.3,8.48-4.09,17.24-9.26,25-15.57,21.2-17.31,6.13-46.15,25.52-66.05-7.59-17.93-21.89-32.91-38.88-42.65v-.02Z" style="fill: #f3b57b; isolation: isolate; opacity: .2;"/>
              <path d="M1402.82,454.89c-20.1-11.5-43.64-16.1-66.8-15.92-17.61.14-35.68,3.16-51.11,11.41-9.97,24.95-10.41,51.85-2.7,73.05,14.23,3.11,27.7,9.88,40.05,17.79,12.85,8.21,24.49,18.68,37.32,26.67,8.6,5.35,20.13,9.72,31.61,11.3,8.48-4.09,17.24-9.26,25-15.57,21.2-17.31,6.13-46.15,25.52-66.05-7.59-17.93-21.89-32.91-38.88-42.65v-.02Z" style="fill: #f3b57b; isolation: isolate; opacity: .4;"/>
            </g>
          </g>
          <g id="r" data-name="w">
            <path d="M1237.6,699.67c4.71-2.29,7.98-4.28,11.39-6.72,9.08-6.56,14.48-10.52,13.74-34.74-1.35-45.53-26.58-191.15-26.58-191.15l-81.42-34.19c20.77,58.02,63.67,172.56,63.51,224.33,0-1.42-11.18-1.78-12.49-1.72-6.52.41-11.46,2.72-15.6,7.68-3.98,4.76-10.22,14.34-7.43,20.88,1.85,4.35,7.36,5.92,11.66,5.37.55-.07,1.17-.16,1.6.18.3.25.43.64.55,1.01,1.42,4.09,4.83,7.43,8.94,8.78,4.12,1.35,8.83.69,12.4-1.78-.53.37,3.57,3.68,4,3.89,1.65.8,3.54.96,5.35.87,3.64-.18,7.07-1.14,10.34-2.72l.02.02Z" style="fill: #ac6dad;"/>
            <path d="M1237.6,699.67c4.71-2.29,7.98-4.28,11.39-6.72,9.08-6.56,14.48-10.52,13.74-34.74-1.35-45.53-26.58-191.15-26.58-191.15l-81.42-34.19c20.77,58.02,63.67,172.56,63.51,224.33,0-1.42-11.18-1.78-12.49-1.72-6.52.41-11.46,2.72-15.6,7.68-3.98,4.76-10.22,14.34-7.43,20.88,1.85,4.35,7.36,5.92,11.66,5.37.55-.07,1.17-.16,1.6.18.3.25.43.64.55,1.01,1.42,4.09,4.83,7.43,8.94,8.78,4.12,1.35,8.83.69,12.4-1.78-.53.37,3.57,3.68,4,3.89,1.65.8,3.54.96,5.35.87,3.64-.18,7.07-1.14,10.34-2.72l.02.02Z" style="fill: #e4a974; isolation: isolate;"/>
            <path d="M1241.47,498.66c-3.11-18.98-5.31-31.61-5.31-31.61l-81.42-34.19c3.7,10.34,8.12,22.48,12.85,35.75,1.14-2.72,1.72-5.67,1.67-8.62,2.97,9.26,5.79,14.77,9.26,20.88,5.15,9.03,17.93,23.26,21.59,20.29,2.49-2.04,2.15-5.74,1.83-8.32,8.35,10.11,15.99,21.2,28.13,26.09,1.07.43,2.22.82,3.36.69,2.86-.37,4.23-3.61,4.99-6.4,1.28-4.8,2.29-9.65,3.04-14.55Z" style="fill: #ac6dad;"/>
            <path d="M1241.47,498.66c-3.11-18.98-5.31-31.61-5.31-31.61l-81.42-34.19c3.7,10.34,8.12,22.48,12.85,35.75,1.14-2.72,1.72-5.67,1.67-8.62,2.97,9.26,5.79,14.77,9.26,20.88,5.15,9.03,17.93,23.26,21.59,20.29,2.49-2.04,2.15-5.74,1.83-8.32,8.35,10.11,15.99,21.2,28.13,26.09,1.07.43,2.22.82,3.36.69,2.86-.37,4.23-3.61,4.99-6.4,1.28-4.8,2.29-9.65,3.04-14.55Z" style="fill: #e4a974; isolation: isolate;"/>
            <path d="M1236.16,467.08l-50.47-21.2-13.65-1.26c8.94,10.34,17.95,20.79,24.54,32.77,5.72,10.41,9.47,21.75,12.94,33.12,18.94,61.86,30.58,127.25,21.84,191.31,2.15-.46,4.23-1.17,6.24-2.15,4.71-2.29,7.98-4.28,11.39-6.72,9.08-6.56,14.48-10.52,13.74-34.74-1.35-45.53-26.58-191.15-26.58-191.15v.02Z" style="fill: #010101; isolation: isolate; opacity: .2;"/>
            <path d="M1236.16,467.08l-50.47-21.2-13.65-1.26c8.94,10.34,17.95,20.79,24.54,32.77,5.72,10.41,9.47,21.75,12.94,33.12,18.94,61.86,30.58,127.25,21.84,191.31,2.15-.46,4.23-1.17,6.24-2.15,4.71-2.29,7.98-4.28,11.39-6.72,9.08-6.56,14.48-10.52,13.74-34.74-1.35-45.53-26.58-191.15-26.58-191.15v.02Z" style="fill: #dc9343; isolation: isolate; opacity: .4;"/>
          </g>
          <g id="s" data-name="x">
            <path d="M1484.33,353.8c29.41,15.21,55.09,41.21,66.03,79.06,7.59,26.3,3.27,64.88-9.51,89.08-23.49,44.48-86.43,60.93-134.84,53.61-22.92-3.48-45.95-15.23-64.61-29.02-9.35-6.91-21.8-14.52-31.58-20.79-16.19-10.36-25.25-12.53-25.25-12.53l-3.75,19.94c-2.47-4.07-4.07-9.26-6.34-13.49-4.73,14.18-2.36,30.69-9.45,44.87-4.73,11.8-9.45-9.45-16.54-11.8,0,4.73-2.36,14.18-4.73,11.8-14.18-4.73-7.09-33.07-28.34-33.07-.09,0-.18.02-.3.02.55-18.2.43-34.51-.55-46.24-16.01-7.11-34.69-22.96-58.8-51.41-20.86-24.61-54.55-82.26-61.15-126.27-3-19.99,5.49-58.62,38.56-147.4,17.79-47.71,72.22,57.54,119.45,56.65,10.84-.21,23.1-5.15,29.11-14.2,46.04,35.08,49.45,70.81,96.03,105.16,24.65,18.16,57.13,20.47,106.55,46.01v.02Z" style="fill: #ac6dad;"/>
            <path d="M1484.33,353.8c29.41,15.21,55.09,41.21,66.03,79.06,7.59,26.3,3.27,64.88-9.51,89.08-23.49,44.48-86.43,60.93-134.84,53.61-22.92-3.48-45.95-15.23-64.61-29.02-9.35-6.91-21.8-14.52-31.58-20.79-16.19-10.36-25.25-12.53-25.25-12.53l-3.75,19.94c-2.47-4.07-4.07-9.26-6.34-13.49-4.73,14.18-2.36,30.69-9.45,44.87-4.73,11.8-9.45-9.45-16.54-11.8,0,4.73-2.36,14.18-4.73,11.8-14.18-4.73-7.09-33.07-28.34-33.07-.09,0-.18.02-.3.02.55-18.2.43-34.51-.55-46.24-16.01-7.11-34.69-22.96-58.8-51.41-20.86-24.61-54.55-82.26-61.15-126.27-3-19.99,5.49-58.62,38.56-147.4,17.79-47.71,72.22,57.54,119.45,56.65,10.84-.21,23.1-5.15,29.11-14.2,46.04,35.08,49.45,70.81,96.03,105.16,24.65,18.16,57.13,20.47,106.55,46.01v.02Z" style="fill: #faa64c; isolation: isolate;"/>
            <path d="M1341.37,546.53c17.98,13.29,40.05,24.7,62.14,28.61.21-4.23.41-8.48.62-12.72.62-12.85,1.26-25.73,1.9-38.58.27-5.6,1.26-11.64.85-17.22-.53-7.41-9.03-15.03-14.52-19.37-6.24-4.94-13.29-8.74-20.38-12.35-6.75-3.45-13.79-6.84-21.36-7.25,2.45-.87,5.03-1.83,6.56-3.91-10.75-4.99-22.8-7-34.6-6.04-7.82.64-15.71,3.25-22.02,8-3.48,2.61-5.85,5.44-7.57,9.4-1.94,4.51-3.18,9.31-4.05,14.13l-4.37,23.97s9.06,2.17,25.25,12.53c9.79,6.27,22.23,13.86,31.58,20.77l-.02.02Z" style="fill: #f1f0f0;"/>
            <path d="M1274.45,519.66c2.38,4.39,4.46,8.9,6.34,13.49,3.57-18.71,6.52-35.01,8.12-43.91-1.3-3.41-3.59-4-7.02.78s-6.88,9.58-10.31,14.36c-1.4-1.69-1.44-4.09-2.01-6.22s-2.38-4.39-4.53-3.91c-1.4.32-2.29,1.65-3.02,2.9-6.13,10.61-10.91,22-14.16,33.82-.25.94-.64,2.01-1.56,2.29-1.37.41-2.4-1.24-2.88-2.58-.87-2.38-4.67-19.28-8.42-18.55-.87.18-1.4,1.03-1.83,1.83-1.56,2.88-3.09,5.74-4.64,8.62-3.38-5.42-6.77-10.84-10.15-16.26-.78-1.24-1.81-2.58-3.06-3.06.14,8.53.05,18.07-.23,28.24.09,0,.18-.02.3-.02,21.25,0,14.18,28.34,28.34,33.07,2.36,2.36,4.73-7.09,4.73-11.8,7.09,2.36,11.8,23.62,16.54,11.8,7.09-14.16,4.73-30.69,9.45-44.87l.02-.02Z" style="fill: #fff; isolation: isolate; opacity: .2;"/>
            <path d="M1200.3,476.77c-9.63-24.15-17.31-49.49-17.45-75.45-.09-18.04,3.45-35.91,8.12-53.33,4.46-16.63,7.55-34.35,13.13-50.52,5.81-16.79,9.56-34.28,11.07-51.98-24.08,21.34-56.1,32.02-75.01,58.75-4.8,6.79-8.81,14.18-11.82,21.93,4.73-3.16,9.61-6.08,14.59-8.78-10.5,14.64-15.39,33.16-13.54,51.07,2.42-1.12,4.78-2.45,6.98-3.96-1.81,8.48-1.81,17.38,0,25.87,2.2-.21,4.19-1.81,4.83-3.91-.78,11.57.71,23.26,4.19,34.31,3.29,4.57,6.45,8.67,9.35,12.1,17.77,20.97,32.59,35.08,45.58,43.91h0Z" style="fill: #fff; isolation: isolate; opacity: .2;"/>
            <path d="M1179.38,454.73c2.84,5.01,6.17,9.51,10.09,13.22,7.09,6.68,15.19,12.3,24.08,16.33-5.95-21.13,18.89-36.27,33.05-46.77,9.61-7.11,21.96-17.29,21.25-30.53-5.76,3.27-12.1,5.56-18.64,6.7,11.71-13.01,23.69-26.46,29.59-42.95,1.35-3.75,2.36-7.89,1.12-11.66-10.31,10.22-23.03,18.02-36.82,22.62,6.29-17.56,18.07-32.54,26.87-48.99,8.39-15.71,14.02-32.89,16.67-50.47,1.35-8.94,1.92-18,1.72-27.03-.16-7.36,1.69-17.2-7.68-18.39-14.75-1.88-30.42,4.71-43.86,10.11-13.93,5.58-27.42,12.92-38.06,23.69-6.24,6.31-11.37,13.63-16.28,21.04-12.12,18.23-23.56,37.9-25.71,59.69,6.86-6.91,14.73-12.81,23.28-17.47-14.23,24.11-15.05,56.7-14.29,68.63,1.03,16.19,4.8,36.64,13.61,52.24h.02Z" style="fill: #f1f0f0;"/>
            <path d="M1317.67,239.08c-5.08-.87-10.38-.91-15.51-.46-13.79,1.26-27.03,5.79-40.09,10.38s-26.21,9.33-39.95,11.02c-7.57.94-15.14.69-22.62-1.07-3.84-.91-7.62-2.13-11.34-3.45-1.88-.69-3.73-1.4-5.58-2.13-.69-.27-4.62-1.33-4.8-1.94,2.56,7.87,8.21,14.68,15.48,18.62,2.63,1.42,5.44,2.49,8.26,3.45,13.01,4.48,25.59,5.26,38.24-.59,8.51-3.96,17.04-7.36,26.28-9.03,4.92-.89,10.84-1.37,15.83-1.1,5.03.3,10.95,1.74,15.92,2.49,8.42,1.26,16.15,3.38,24.38.37,3.7-1.35,7.16-3.73,9.77-6.75-4.67-6.61-9.24-13.22-14.27-19.83l.02.02Z" style="fill: #010101; isolation: isolate; opacity: .2;"/>
          </g>
          <g id="t" data-name="y">
            <g>
              <path d="M1231.16,109.89c8.32-25.82,25.07-29.41,30.9-47.73,5.83-18.32,10.82-58.3,39.98-53.31,29.16,4.99,35.93,99.97,8,145.61l-78.86-44.57h-.02Z" style="fill: #faa64c;"/>
              <path d="M1231.16,109.89c8.32-25.82,25.07-29.41,30.9-47.73,5.83-18.32,10.82-58.3,39.98-53.31,29.16,4.99,35.93,99.97,8,145.61l-78.86-44.57h-.02Z" style="fill: #fff; isolation: isolate; opacity: .3;"/>
              <g>
                <path d="M1316.74,140.95c19.78-48.6,11.78-127.55-14.73-132.1-19.62-3.36-28.29,13.65-33.64,30.71,7.02-19.99,24.52-33.02,36.89-24.27,15.69,11.09,28.91,70.78,11.48,125.65Z" style="fill: #ac6dad;"/>
                <path d="M1316.74,140.95c19.78-48.6,11.78-127.55-14.73-132.1-19.62-3.36-28.29,13.65-33.64,30.71,7.02-19.99,24.52-33.02,36.89-24.27,15.69,11.09,28.91,70.78,11.48,125.65Z" style="fill: #fff; isolation: isolate; opacity: .85;"/>
              </g>
            </g>
            <path d="M1319.75,169.54c2.61,6.66,3.41,12.97,2.08,20.63-2.06,11.98-10.36,26.25-15.71,37.26-5.26,10.84-8.67,17.47-18,23.92-15.28-1.62-47.07,1.23-64.1,21.66-52.08,0-94.27-42.22-94.27-94.27,0-15.53,7.27-29.41,13.91-41.44,15.64-28.29,43.82-45.65,80.37-45.65,48.03,0,75.4,34.88,94.13,74.24.59,1.23,1.12,2.45,1.58,3.64l.02.02Z" style="fill: #faa64c;"/>
            <path d="M1319.75,169.54c2.61,6.66,3.41,12.97,2.08,20.63-2.06,11.98-10.36,26.25-15.71,37.26-5.26,10.84-8.67,17.47-18,23.92-19.44-1.62-48.35,2.7-64.1,21.66-52.08,0-94.27-42.22-94.27-94.27,0-15.53,7.27-29.41,13.91-41.44,15.64-28.29,43.82-45.65,80.37-45.65,48.03,0,75.4,34.88,94.13,74.24.59,1.23,1.12,2.45,1.58,3.64l.02.02Z" style="fill: #faa64c; isolation: isolate;"/>
            <path d="M1314.72,176.42c-1.49.73-2.88,1.72-4.05,2.9-4.83,4.96-6.15,14.2-5.08,20.77.78,4.71,3.22,9.31,7.23,11.92.25.16.53.32.8.48,3.64-7.48,7-15.3,8.21-22.32.96-5.6.78-10.47-.39-15.3-2.24-.02-4.6.5-6.72,1.56Z" style="fill: #f5f6f6;"/>
            <path d="M1312.5,167.09c.23-.27.32-1.12-.14-1.26-.94-.32-2.01.78-2.63,1.37-1.19,1.14-1.78,2.72-2.08,4.3-.11.62-.23,1.23-.32,1.85-.16,1.03-.25,2.06-.16,3.09,0,.27.32.59.43.18.55-2.06.82-4.28,1.94-6.11.43-.71.94-1.35,1.49-1.97.46-.53,1.05-.94,1.49-1.49l-.02.02ZM1317.95,168.16c-1.81.21-3.61.91-4.85,2.29-.64.71-1.23,1.4-1.72,2.22-.43.73-.78,1.51-1.01,2.33,0,.07.09.27.14.16.34-.71.78-1.37,1.3-1.97.48-.53,1.07-1.1,1.72-1.44.69-.37,1.37-.75,2.08-1.07.75-.37,1.56-.59,2.38-.73.75-.14.8-1.85-.07-1.74l.02-.05Z" style="fill: #dc9343; isolation: isolate; opacity: .5;"/>
            <g>
              <path d="M1310.99,184.17c.96-1.35,2.24-2.45,3.8-3.02,1.56-.57,3.73-1.1,4.44.85.14.39.18.8.23,1.23.09,1.07.16,2.29,0,3.36-.55,4.32-1.33,8.67-3.06,12.67-.5,1.17-1.58,3.11-3.04,1.74-.89-.85-1.53-1.9-2.08-2.97-1.49-2.88-2.45-6.17-1.99-9.4.21-1.58.82-3.16,1.74-4.46h-.02Z" style="fill: #010101;"/>
              <path d="M1315.45,183.42c-.59-.62-1.28-1.14-2.01-1.58-.96.59-1.78,1.4-2.45,2.33-.91,1.3-1.53,2.86-1.74,4.46-.43,3.22.5,6.52,1.99,9.4.55,1.07,1.21,2.13,2.08,2.97.16.16.32.25.46.32.05,0,.09-.02.11-.05,1.21-.96,2.24-2.17,3.02-3.52.71-1.9,1.23-3.84,1.65-5.83v-.25c0-2.93-1.1-6.08-3.13-8.28l.02.02Z" style="fill: #384850;"/>
              <path d="M1313.81,190.3c-.09-2.06-.5-4.09-1.3-5.99-.09-.18-.21-.37-.3-.55-.27.21-.53.41-.8.66-.96,3.25.25,8.64,1.74,11.89,1.17-1.23.71-4.92.66-6.04v.02Z" style="fill: #010101;"/>
              <path d="M1315.45,186.62c.27,1.14-.46,2.29-1.6,2.56s-2.29-.46-2.56-1.6.46-2.29,1.6-2.56,2.29.46,2.56,1.6Z" style="fill: #fff;"/>
            </g>
            <path d="M1345.21,229.41c-.59,7.27-2.61,21.57-11.69,21.86-4.32,10.04-18.39,13.04-34.79,9.29-14.96-3.41-25.73-4.09-42.68.73-16.95,4.85-25.82,14.52-32.18,12.1-6.34-2.4-3.45-19.46-3.45-19.46-14.96.89-18.57,6.56-28.61,5.24-10.77-1.4-3.77-27.49,10.77-38.22,6.04-4.46,11.78-6.84,21.09-8.19,7.64-1.12,17.63-1.49,32.2-1.74,12.12-.21,16.88-11.48,23.81-20.97,5.42-7.43,12.17-13.72,24.81-12.72,2.74,11.82,9.88,25.87,23.83,34.35,1.69,1.05,3.22,1.97,4.64,2.84,10.09,6.2,12.76,8.51,12.21,14.87l.02.02Z" style="fill: #faa64c;"/>
            <path d="M1345.21,229.41c-.59,7.27-2.61,21.57-11.69,21.86-4.32,10.04-18.39,13.04-34.79,9.29-14.96-3.41-25.73-4.09-42.68.73-16.95,4.85-25.82,14.52-32.18,12.1-6.34-2.4-3.45-19.46-3.45-19.46-14.96.89-18.57,6.56-28.61,5.24-10.77-1.4-3.77-27.49,10.77-38.22,6.04-4.46,11.78-6.84,21.09-8.19,7.64-1.12,17.63-1.49,32.2-1.74,12.12-.21,16.88-11.48,23.81-20.97,5.42-7.43,12.17-13.72,24.81-12.72,2.74,11.82,9.88,25.87,23.83,34.35,1.69,1.05,3.22,1.97,4.64,2.84,10.09,6.2,12.76,8.51,12.21,14.87l.02.02Z" style="fill: #dc9343; isolation: isolate;"/>
            <path d="M1345.21,229.41c-.59,7.27-2.61,21.57-11.69,21.86-4.32,10.04-18.39,13.04-34.79,9.29-14.96-3.41-25.73-4.09-42.68.73-16.95,4.85-25.82,14.52-32.18,12.1-6.34-2.4-3.45-19.46-3.45-19.46-14.96.89-18.57,6.56-28.61,5.24-10.77-1.4-3.77-27.49,10.77-38.22,6.04-4.46,11.78-6.84,21.09-8.19-.18,0-.34.02-.55.02-2.74,0-6.08-1.37-8.23-2.9-.73-.55-1.44-1.21-1.53-2.1-.11-1.05.57-1.97,1.3-2.72,3.64-3.8,8.55-6.36,13.74-7.18-2.74-.02-4.76-2.93-4.64-5.65.09-2.74,1.76-5.15,3.66-7.09,14.41-14.66,39.36-9.26,52.28,4.92,2.01,2.17,3.73,4.53,5.08,7.07,3.54,6.75,5.97,14.45,8.46,21.61,2.17,6.15,8.23,12.21,15.23,10.73,1.69-.37,3.29-1.37,4.12-2.86.8-1.44.87-3.22.48-4.85-.37-1.62-1.14-3.11-1.9-4.6-1.28-2.52-2.56-5.01-3.84-7.52-.39-.75-.78-1.56-.71-2.4.14-1.6,2.01-2.58,3.59-2.4,1.6.16,2.97,1.14,4.32,2.01,5.76,3.75,11.92,5.74,18.46,7.71,10.09,6.2,12.76,8.51,12.21,14.87h0Z" style="fill: #f5f6f6;"/>
            <g>
              <path d="M1340.15,247.52c-4.78,1.83-5.03-2.9-5.03-2.9l-1.6.59c-1.92,4.62-8.69,7.78-17.95,8.21-9.26.43-16.58-5.08-27.63-8.81-11.05-3.73-22.71-.41-22.71-.41,0,0,5.47-1.3,14.43.18,8.97,1.49,18.57,9.19,29.94,11.44s18.52-.62,23.95-4.55c2.86-.09,5.01-1.58,6.63-3.77l-.02.02Z" style="fill: #384850;"/>
              <path d="M1332.54,245.53c1.12.46,2.31.53,3.48-.23.64-.43,1.14-1.05,1.6-1.69,2.47-3.64,3.64-8.55,3.61-12.88,0-1.99-.43-4.62-2.33-5.69-.8-.46-1.78-.57-2.7-.57-4.41-.02-9.01,1.74-12.56,4.32-.85.62-1.69,1.35-2.1,2.31-.27.64-.34,1.37-.34,2.06.02,2.38.96,4.76,2.58,6.52.75.82,1.72,1.56,2.84,1.62.3,0,.66-.07.73-.37.05-.18-.07-.37-.18-.5-.48-.64-1.14-1.21-1.3-2.01-.02-.16-.05-.34.07-.48.09-.09.21-.11.32-.14.91-.11,1.62.78,1.97,1.62.3.73.46,1.51.48,2.31,0,.23,0,.48.09.71.09.25.27.43.46.62.91.91,2.08,1.94,3.34,2.47h-.05Z" style="fill: #273339;"/>
            </g>
            <g>
              <path d="M1257.59,184.24c.59.07,1.19.16,1.76.27,2.86.57,5.58,1.99,7.84,3.87,2.31,1.92,3.8,4.39,5.4,6.88,1.85,2.9,3.2,6.06,4.51,9.24.21.48.39,1.07.07,1.51-.48.66-1.56.21-2.22-.27-2.31-1.62-5.05-1.65-7.73-.94-2.06.55-4.05,1.46-6.17,1.72-2.22.27-4.35.5-6.56.02-.27-.05-.53-.11-.8-.21-3.09-.89-5.17-2.84-7.32-5.1-1.07-1.14-1.65-2.74-2.17-4.21-.59-1.62-1.05-3.27-1.49-4.92-.39-1.37-1.19-3.5-.18-4.78.39-.48.91-.8,1.46-1.1,1.99-1.03,4.21-1.6,6.43-1.88,2.4-.3,4.8-.41,7.18-.14v.02Z" style="fill: #273339;"/>
              <path d="M1266.33,187.74c-2.08-1.53-4.46-2.7-6.95-3.2-.59-.11-1.17-.21-1.76-.27-1.17-.14-2.33-.16-3.5-.14-5.26,1.4-9.17,6.15-9.17,11.85,0,1.65.34,3.22.91,4.67.16.23.32.46.5.64,2.15,2.26,4.23,4.21,7.32,5.1.25.07.53.14.8.21,2.22.48,4.35.23,6.56-.02,1.33-.16,2.58-.57,3.84-.98,2.84-2.26,4.67-5.69,4.67-9.58,0-3.18-1.23-6.04-3.2-8.21l-.02-.05Z" style="fill: #384850;"/>
              <path d="M1257.59,184.24c-1.17-.14-2.33-.16-3.5-.14-.14.02-.25.09-.39.14,1.78,2.01,3,4.53,3.77,7.14.96,3.25,1.33,6.63,1.83,9.99.05.27.09.59.25.82.16.25.46.43.73.34.23-.05.39-.25.53-.43,2.95-3.87,3.32-8.62,3.27-13.36,0-.82-.09-1.76-.34-2.61-1.4-.73-2.86-1.33-4.41-1.62-.57-.11-1.17-.21-1.76-.27h.02Z" style="fill: #010101;"/>
              <path d="M1266.79,191.77c0,1.42-1.14,2.56-2.56,2.56s-2.56-1.14-2.56-2.56,1.14-2.56,2.56-2.56,2.56,1.14,2.56,2.56Z" style="fill: #fff;"/>
            </g>
            <g>
              <path d="M1314.79,239.93c0-.34-.46-.73-.69-.91-.89-.69-1.92-1.07-3.06-1.01-.55.02-.71.89-.3,1.19.5.34,1.12.5,1.69.64.23.05.43.11.64.16.37.09,1.21.5,1.53.18.09-.09.14-.18.14-.27l.05.02Z" style="fill: #465b65;"/>
              <path d="M1314.79,247.29c0-.34-.46-.73-.69-.91-.89-.69-1.92-1.07-3.06-1.01-.55.02-.71.89-.3,1.19.5.34,1.12.5,1.69.64.23.05.43.11.64.16.37.09,1.21.5,1.53.18.09-.09.14-.18.14-.27l.05.02Z" style="fill: #465b65;"/>
              <path d="M1305.09,242.84s.16-.18.16-.3c0-.09-.05-.18-.11-.27-.69-1.03-2.17-1.6-3.34-1.65-.5,0-.62.55-.55.94.09.59.55.66,1.07.8.69.16,1.37.32,2.04.5.18.05.37.09.55.05.07,0,.14-.05.18-.09v.02Z" style="fill: #465b65;"/>
            </g>
            <path d="M1270.42,177.45c-.94-1.03-1.97-1.81-3.06-2.63-2.13-1.6-4.87-2.08-7.48-1.88-1.26.11-.69,2.52.39,2.49,1.21-.05,2.4.07,3.59.37,1.1.27,2.17.62,3.25.94.98.3,2.01.94,2.84,1.56.91.69,1.72,1.51,2.4,2.42.11.14.21-.16.16-.25-.55-1.1-1.26-2.1-2.08-3v-.02ZM1280.55,173.63c-.23-.89-.5-1.83-.87-2.7-.27-.71-.59-1.37-.98-1.99-.34-.59-1.17-1.4-1.88-.82-1.28,1.01.66,2.77,1.17,3.59.57.96,1.05,1.97,1.44,3,.21.55.32,1.17.5,1.74.09.25.18.73.41.89.46.32.57-.14.57-.55,0-1.05-.14-2.13-.41-3.16h.05ZM1275.39,174.77c-.87-2.15-2.17-4.23-4.16-5.51-1.03-.66-2.88-1.92-4.12-1.21-.59.34-.23,1.49.16,1.83.75.64,1.72,1.05,2.49,1.67.94.73,1.85,1.49,2.65,2.36,2.13,2.26,3.13,5.35,4.48,8.1.27.55.62,0,.57-.39-.18-1.49-.59-2.93-1.1-4.32-.3-.87-.64-1.69-.98-2.54v.02Z" style="fill: #ac6dad; isolation: isolate; opacity: .5;"/>
            <g>
              <path d="M1231.16,154.44c-5.1,2.63-14,7.52-23.19,9.17-21.98,3.91-35.65,5.37-61.54-4.03-13.58-4.92-24.29-15.28-32.75-29.66-.02-.02-.02-.09-.07-.11-7.62-12.97-13.4-29.27-17.88-47.84C1086.32,42.74,1100.84-.05,1113.51,0c14.8.07,20.4,19.07,33.05,36.55,3.48,4.8,7.48,9.49,12.37,13.65,25.66,21.84,33.89,49.19,45.69,60.95,13.36,13.31,18.34,11.3,25.91,23.3,3.84,6.13,4,10.11.59,20.01l.02-.02Z" style="fill: #dc9343;"/>
              <path d="M1231.16,154.44c-5.1,2.63-14,7.52-23.19,9.17-21.98,3.91-35.65,5.37-61.54-4.03-13.58-4.92-24.29-15.28-32.75-29.66-.02-.02-.02-.09-.07-.11-7.62-12.97-13.4-29.27-17.88-47.84C1086.32,42.74,1100.84-.05,1113.51,0c14.8.07,20.4,19.07,33.05,36.55,3.48,4.8,7.48,9.49,12.37,13.65,25.66,21.84,33.89,49.19,45.69,60.95,13.36,13.31,18.34,11.3,25.91,23.3,3.84,6.13,4,10.11.59,20.01l.02-.02Z" style="fill: #fff; isolation: isolate; opacity: .3;"/>
              <path d="M1231.16,154.44c-5.1,2.63-14,7.52-23.19,9.17-21.98,3.91-35.65,5.37-61.54-4.03-13.58-4.92-24.29-15.28-32.75-29.66-.02-.02-.02-.09-.07-.11-12.58-28.98-24.27-78.76-12.49-106.44,9.93-23.37,21.27-16.76,28.84-1.28,7.52,15.48,20.74,35.52,30.44,43.45,9.7,7.91,17.61,23.78,20.65,33.57,3.02,9.81,14.71,23.05,23.78,29.46,9.03,6.45,28.98,11.55,26.32,25.87h0Z" style="fill: #dc9343;"/>
              <path d="M1231.16,154.44c-5.1,2.63-14,7.52-23.19,9.17-21.98,3.91-35.65,5.37-61.54-4.03-13.58-4.92-24.29-15.28-32.75-29.66-.02-.02-.02-.09-.07-.11-12.58-28.98-24.27-78.76-12.49-106.44,9.93-23.37,21.27-16.76,28.84-1.28,7.52,15.48,20.74,35.52,30.44,43.45,9.7,7.91,17.61,23.78,20.65,33.57,3.02,9.81,14.71,23.05,23.78,29.46,9.03,6.45,28.98,11.55,26.32,25.87h0Z" style="fill: #fff; isolation: isolate; opacity: .5;"/>
              <path d="M1132.45,92.65c2.15,3.8,5.24,7.04,8.92,9.4-3.89-.75-8.51-1.3-11.21,1.58-1.1,1.17-1.67,2.74-1.85,4.32-.53,4.83,2.42,9.33,5.65,12.97,5.42,6.13,11.96,11.27,19.21,15.07-1.92.5-3.96,0-5.92.21s-4.16,1.56-4.05,3.52c.07,1.17.91,2.1,1.74,2.93,6.52,6.34,15.23,10.38,24.27,11.23-1.4.59-3.09,1.97-2.31,3.29.25.43.73.69,1.17.91,10.45,5.28,22.92,5.33,34.31,2.63,3.52-.85,7.52-2.45,8.44-5.95,1.01-3.8-2.22-7.32-5.17-9.93-8.07-7.2-16.24-14.34-23.46-22.37-6.63-7.36-12.46-15.46-19.23-22.71-6.38-6.84-13.54-11.71-21.52-16.44-2.31-1.37-5.44-3.66-8.19-2.13-4.16,2.31-2.63,8.28-.8,11.5l.02-.05Z" style="fill: #ac6dad; isolation: isolate; opacity: .2;"/>
              <path d="M1137.39,40.09c-1.03,7.43.18,13.42,2.45,17.4,4.96,8.78,10.82,17.04,17.47,24.61-5.26-2.9-10.77-5.33-16.47-7.23-2.26-.75-4.99-1.37-6.91.05-.91.69-1.49,1.76-1.74,2.88-.73,3.29,1.14,6.56,3.11,9.31,6.04,8.44,13.63,15.76,22.25,21.52-4.16-.02-8.1-1.85-12.24-2.22-4.14-.37-9.13,1.56-9.81,5.65-.62,3.77,2.65,6.95,5.65,9.31,10.13,7.98,21.52,15.6,34.4,16.4-4.3.11-8.58.53-12.83,1.19-1.67.27-3.84,1.46-3.13,3,.27.59.94.91,1.56,1.19,9.79,4.12,20.42,6.15,31.03,5.92-3.09,1.69-6.2,3.38-9.31,5.08,0,0,6.27,2.47,6.98,2.65,1.78.46,3.52,1.14,5.31,1.58,5.95,1.46,12.81,1.05,18.85.43,4.14-.43,13.15-1.37,15.94-5.08,3.59-4.78-2.1-11.96-5.42-15.12-7.11-6.82-16.12-11.02-24.15-16.58-9.15-6.36-12.33-13.13-16.47-23.24-2.97-7.25-6.75-14.13-10.38-21.06-1.6-3.06-3.22-6.15-5.42-8.83-2.58-3.13-5.9-5.58-9.19-8-7.43-5.47-20.61-28.24-21.64-20.81h.11Z" style="fill: #dc9343;"/>
              <path d="M1137.39,40.09c-1.03,7.43.18,13.42,2.45,17.4,4.96,8.78,10.82,17.04,17.47,24.61-5.26-2.9-10.77-5.33-16.47-7.23-2.26-.75-4.99-1.37-6.91.05-.91.69-1.49,1.76-1.74,2.88-.73,3.29,1.14,6.56,3.11,9.31,6.04,8.44,13.63,15.76,22.25,21.52-4.16-.02-8.1-1.85-12.24-2.22-4.14-.37-9.13,1.56-9.81,5.65-.62,3.77,2.65,6.95,5.65,9.31,10.13,7.98,21.52,15.6,34.4,16.4-4.3.11-8.58.53-12.83,1.19-1.67.27-3.84,1.46-3.13,3,.27.59.94.91,1.56,1.19,9.79,4.12,20.42,6.15,31.03,5.92-3.09,1.69-6.2,3.38-9.31,5.08,0,0,6.27,2.47,6.98,2.65,1.78.46,3.52,1.14,5.31,1.58,5.95,1.46,12.81,1.05,18.85.43,4.14-.43,13.15-1.37,15.94-5.08,3.59-4.78-2.1-11.96-5.42-15.12-7.11-6.82-16.12-11.02-24.15-16.58-9.15-6.36-12.33-13.13-16.47-23.24-2.97-7.25-6.75-14.13-10.38-21.06-1.6-3.06-3.22-6.15-5.42-8.83-2.58-3.13-5.9-5.58-9.19-8-7.43-5.47-20.61-28.24-21.64-20.81h.11Z" style="fill: #fff; isolation: isolate; opacity: .7;"/>
              <path d="M1231.16,154.44c2.68-14.29-17.27-19.42-26.32-25.87-9.08-6.4-20.77-19.65-23.78-29.46-3.02-9.79-10.95-25.66-20.65-33.57-9.7-7.96-22.89-27.97-30.44-43.45-7.57-15.48-18.89-22.09-28.84,1.28-11.78,27.67-.09,77.46,12.49,106.44-7.62-12.97-13.4-29.27-17.88-47.84C1086.32,42.74,1100.84-.05,1113.51,0c14.8.07,20.4,19.07,33.05,36.55,5.6,9.97,12.28,19.58,19.26,25.98,12.72,11.69,14.84,23.78,22,37.37s15.46,19.33,30.17,30.67c14.71,11.32,15.76,11.76,13.15,23.88h.02Z" style="fill: #ac6dad;"/>
              <path d="M1231.16,154.44c2.68-14.29-17.27-19.42-26.32-25.87-9.08-6.4-20.77-19.65-23.78-29.46-3.02-9.79-10.95-25.66-20.65-33.57-9.7-7.96-22.89-27.97-30.44-43.45-7.57-15.48-18.89-22.09-28.84,1.28-11.78,27.67-.09,77.46,12.49,106.44-7.62-12.97-13.4-29.27-17.88-47.84C1086.32,42.74,1100.84-.05,1113.51,0c14.8.07,20.4,19.07,33.05,36.55,5.6,9.97,12.28,19.58,19.26,25.98,12.72,11.69,14.84,23.78,22,37.37s15.46,19.33,30.17,30.67c14.71,11.32,15.76,11.76,13.15,23.88h.02Z" style="fill: #fff; isolation: isolate; opacity: .85;"/>
            </g>
          </g>
          <g id="u" data-name="z">
            <path d="M1265,564.53c-4.73,11.8-9.45-9.45-16.54-11.8,0,4.73-2.36,14.18-4.73,11.8-14.18-4.73-7.09-33.07-28.34-33.07-.09,0-.21,0-.3.02-1.58,54.89-2.31,124.14-12.85,147.33-19.74-12.35-26.62-5.19-31.35-.16-4.53,4.83-6.54,8.67-7.98,13.13-1.42,4.46-1.46,8.71,1.05,11.57,2.4,2.72,6.2,3.93,9.83,3.82-.3,4.32,3.7,8.3,7.36,9.86,3.89,1.65,8.55,1.37,12.21-.75,1.51,3.13,3.93,4.73,7.18,5.79,4.83,1.58,10.5-.21,14.41-1.58,4.94-1.72,9.49-3.91,13.13-5.97,9.77-5.47,14.52-10.34,19.12-29.82,7.02-29.85,13.47-56.08,18.62-78.47,4.85-21.09,10.38-49.08,14.96-73.16-1.88-4.57-3.98-9.1-6.34-13.49-4.73,14.18-2.36,30.69-9.45,44.87v.09Z" style="fill: #fdc382;"/>
            <path d="M1265,564.53c-4.73,11.8-9.45-9.45-16.54-11.8,0,4.73-2.36,14.18-4.73,11.8-14.18-4.73-7.09-33.07-28.34-33.07-.09,0-.21,0-.3.02-1.58,54.89-2.31,124.14-12.85,147.33-19.74-12.35-26.62-5.19-31.35-.16-4.53,4.83-6.54,8.67-7.98,13.13-1.42,4.46-1.46,8.71,1.05,11.57,2.4,2.72,6.2,3.93,9.83,3.82-.3,4.32,3.7,8.3,7.36,9.86,3.89,1.65,8.55,1.37,12.21-.75,1.51,3.13,3.93,4.73,7.18,5.79,4.83,1.58,10.5-.21,14.41-1.58,4.94-1.72,9.49-3.91,13.13-5.97,9.77-5.47,14.52-10.34,19.12-29.82,7.02-29.85,13.47-56.08,18.62-78.47,4.85-21.09,10.38-49.08,14.96-73.16-1.88-4.57-3.98-9.1-6.34-13.49-4.73,14.18-2.36,30.69-9.45,44.87v.09Z" style="fill: #fdc382; isolation: isolate; opacity: .6;"/>
            <path d="M1203.73,675.08c-.48,1.35-.96,2.63-1.46,3.75,6.79,3.77,12.51,8.14,15.83,11.46-4.35-7.71-10.22-12.53-14.36-15.21h0ZM1173.8,707.21c0-7.82,6.06-30.01,18.71-25.57-7.52-3.5-19.39-3.43-18.71,25.57h0ZM1193.4,716.34c-2.38-11.94-.89-29.91,11.39-26.05-7.75-4.3-20.47-2.56-11.39,26.05Z" style="fill: #fdc382; isolation: isolate; opacity: .2;"/>
          </g>
          <g id="v" data-name="aa">
            <g id="w" data-name="ab">
              <path d="M1477.88,604.18c-5.76-11.34-46.31-15.94-70.55-9.42-20.86,17.29-25.61,21.2-42.47,31.17-18.34-6.54-28.56.05-32,4.3-4.3,5.33-5.56,13.61-4.55,20.79.62,4.46,4.19,8.87,8.69,8.78.41,0,.85-.05,1.23.09.5.18.85.64,1.17,1.05,4.32,5.37,12.21,7.57,18.71,5.19.41-.16.85-.32,1.28-.34.69-.02,1.35.32,1.97.62,5.42,2.56,12.24,1.62,17.34-1.49,6.27-3.82,9.63-6.27,16.49-10.93,9.51-6.47,17.36-11.34,25.96-16.9,26.25-16.99,35.75-22,56.7-32.89l.05-.02Z" style="fill: #ac6dad;"/>
              <path d="M1477.88,604.18c-5.76-11.34-46.31-15.94-70.55-9.42-20.86,17.29-25.61,21.2-42.47,31.17-18.34-6.54-28.56.05-32,4.3-4.3,5.33-5.56,13.61-4.55,20.79.62,4.46,4.19,8.87,8.69,8.78.41,0,.85-.05,1.23.09.5.18.85.64,1.17,1.05,4.32,5.37,12.21,7.57,18.71,5.19.41-.16.85-.32,1.28-.34.69-.02,1.35.32,1.97.62,5.42,2.56,12.24,1.62,17.34-1.49,6.27-3.82,9.63-6.27,16.49-10.93,9.51-6.47,17.36-11.34,25.96-16.9,26.25-16.99,35.75-22,56.7-32.89l.05-.02Z" style="fill: #fdc382; isolation: isolate;"/>
              <path d="M1411.35,589.78c-1.51,1.53-2.86,3.18-4.03,5.01,4.14.85,8.42,1.03,12.62.5-.8,2.86-1.4,6.38.8,8.37.91.82,2.15,1.19,3.34,1.46,3.96.91,8.05,1.17,12.1.78-.37.89.05,1.94.78,2.56.71.62,1.67.91,2.61,1.1,6.08,1.21,12.33-.8,18.07-3.11,3.73-1.49,7.43-3.13,10.75-5.4,1.56-1.05,3.06-2.31,4.03-3.93,3.11-5.26-2.81-10.75-6.95-13.24-9.79-5.92-24.15-8.99-35.29-5.65-3.09.94-1.78-1.37-4.57.25-3.61,2.1-11.32,8.32-14.25,11.3h0Z" style="fill: #ac6dad;"/>
              <path d="M1411.35,589.78c-1.51,1.53-2.86,3.18-4.03,5.01,4.14.85,8.42,1.03,12.62.5-.8,2.86-1.4,6.38.8,8.37.91.82,2.15,1.19,3.34,1.46,3.96.91,8.05,1.17,12.1.78-.37.89.05,1.94.78,2.56.71.62,1.67.91,2.61,1.1,6.08,1.21,12.33-.8,18.07-3.11,3.73-1.49,7.43-3.13,10.75-5.4,1.56-1.05,3.06-2.31,4.03-3.93,3.11-5.26-2.81-10.75-6.95-13.24-9.79-5.92-24.15-8.99-35.29-5.65-3.09.94-1.78-1.37-4.57.25-3.61,2.1-11.32,8.32-14.25,11.3h0Z" style="fill: #dc9343; isolation: isolate;"/>
              <path d="M1368.95,623.49c-1.3.78-2.65,1.6-4.09,2.47h-.07c7.5,3.52,13.52,8.55,17.91,13.29-.23-4.62-7.02-11-13.72-15.73l-.02-.02ZM1338.26,659.89c.53-11.16,2.95-27.58,19.46-28.22-11.96-1.03-22.62-2.45-19.46,28.22ZM1359.41,665.8c-.96-10.7-.34-24.13,11.27-27.7-8.81-.94-17.93,6.34-11.27,27.7Z" style="fill: #dc9343; isolation: isolate; opacity: .2;"/>
            </g>
            <g>
              <path d="M1469.87,402.86c-27.28,3.98-53.47,16.95-72.82,36.94-2.97,3.09-5.21,5.01-8.1,8.14-3.5,3.8-6.72,7.84-9.7,12.05-6.01,8.58-10.91,17.95-14.48,27.81,2.63-1.19,5.44-1.92,8.3-2.15-8.53,14.09-11.96,31.19-9.54,47.48,1.44-1.76,2.95-3.48,4.55-5.1,0,3.54-.91,7.36.02,10.79,1.01,3.66,2.31,7.41,3.73,10.95,16.51,41.33,66.67,35.56,66.67,35.56,0,0-23.62,18.11-14,18.11s20.67-7.41,20.67-7.41c0,0-9.42,20.35-1.21,19.33,8.21-1.03,38.74-9.61,60.99-27.74,21.38-17.47,5.83-46.68,26.03-66.57,20.19-19.9,5.56-107.92-61.15-118.19h.02Z" style="fill: #faa64c;"/>
              <path d="M1469.87,402.86c-27.28,3.98-53.47,16.95-72.82,36.94-2.97,3.09-5.21,5.01-8.1,8.14-3.5,3.8-6.72,7.84-9.7,12.05-6.01,8.58-10.91,17.95-14.48,27.81,2.63-1.19,5.44-1.92,8.3-2.15-8.53,14.09-11.96,31.19-9.54,47.48,1.44-1.76,2.95-3.48,4.55-5.1,0,3.54-.91,7.36.02,10.79,1.01,3.66,2.31,7.41,3.73,10.95,16.51,41.33,66.67,35.56,66.67,35.56,0,0-23.62,18.11-14,18.11s20.67-7.41,20.67-7.41c0,0-9.42,20.35-1.21,19.33,8.21-1.03,38.74-9.61,60.99-27.74,21.38-17.47,5.83-46.68,26.03-66.57,20.19-19.9,5.56-107.92-61.15-118.19h.02Z" style="fill: #faa64c; isolation: isolate; opacity: .4;"/>
              <g>
                <path d="M1396.48,439.88c-1.92,1.65-3.7,3.45-5.65,5.08-1.97,1.65-3.96,3.04-5.72,4.94-3.38,3.59-6.36,7.48-9.13,11.57-5.67,8.42-10.25,17.5-13.33,27.17-.39,1.19.85,3.84,2.31,2.58,1.67-1.44,3.48-2.52,5.42-3.36-7.16,14.16-10.82,30.55-8.35,46.33.14.89,1.67,2.49,2.33,1.12.87-1.76,1.26-3.18,2.38-4.76-1.3,15.09,5.03,29.57,18.2,39.68,1.05.8,1.1-.53.53-1.07-5.81-5.76-10.77-11.8-13.58-19.6-2.63-7.32-3.38-15.3-1.88-22.94.18-.94-.87-2.56-1.78-1.56-1.44,1.56-2.72,3.2-3.93,4.89-.27-6.86-.02-13.61,1.4-20.45,1.72-8.23,4.71-16.21,9.06-23.42.66-1.1-.43-2.97-1.74-2.7-2.06.43-3.96,1.14-5.76,2.08,2.58-6.5,5.67-12.78,9.35-18.73,2.61-4.19,5.53-8.12,8.53-12.03,3.68-4.8,7.2-9.47,11.71-13.54.41-.37.23-1.74-.34-1.26l-.02-.05Z" style="fill: #faa64c;"/>
                <path d="M1396.48,439.88c-1.92,1.65-3.7,3.45-5.65,5.08-1.97,1.65-3.96,3.04-5.72,4.94-3.38,3.59-6.36,7.48-9.13,11.57-5.67,8.42-10.25,17.5-13.33,27.17-.39,1.19.85,3.84,2.31,2.58,1.67-1.44,3.48-2.52,5.42-3.36-7.16,14.16-10.82,30.55-8.35,46.33.14.89,1.67,2.49,2.33,1.12.87-1.76,1.26-3.18,2.38-4.76-1.3,15.09,5.03,29.57,18.2,39.68,1.05.8,1.1-.53.53-1.07-5.81-5.76-10.77-11.8-13.58-19.6-2.63-7.32-3.38-15.3-1.88-22.94.18-.94-.87-2.56-1.78-1.56-1.44,1.56-2.72,3.2-3.93,4.89-.27-6.86-.02-13.61,1.4-20.45,1.72-8.23,4.71-16.21,9.06-23.42.66-1.1-.43-2.97-1.74-2.7-2.06.43-3.96,1.14-5.76,2.08,2.58-6.5,5.67-12.78,9.35-18.73,2.61-4.19,5.53-8.12,8.53-12.03,3.68-4.8,7.2-9.47,11.71-13.54.41-.37.23-1.74-.34-1.26l-.02-.05Z" style="fill: #faa64c; isolation: isolate; opacity: .2;"/>
              </g>
            </g>
          </g>
          <g id="x" data-name="ac">
            <path d="M1696.47,674.83c3.87-22.82-1.05-46.93-10.25-61.64,1.42,15.73-2.4,34.53-5.95,45.15-4.19,12.69-12.88,24.7-21.68,34.6-18.18,20.35-42.36,35.06-67.88,44.25-28.75,10.34-59.14,14.43-89.74,16.76-.41-.02-.82-.09-1.24-.16-7.02-.82-14.43-1.65-20.26-5.69,27.42-3.54,53.63-15.78,73.94-34.53-26.92,6.11-54.91,11.53-81.92,5.9,7.5-6.31,15.03-12.58,22.5-18.87-14.68,2.2-29.78,1.9-44.37-.85-1.4-.25-2.93-.64-3.68-1.83-1.1-1.69,0-3.91,1.19-5.56,4.55-6.29,10.61-11.32,16.58-16.26,10.59-8.85,21.15-17.66,31.74-26.48-24.33-1.17-47.78,8.14-70.19,17.59-6.11,2.61-12.49,5.21-19.1,4.69-.46-5.88,1.56-11.92,5.47-16.4-11.98-.14-23.97,3.5-33.85,10.25,2.42-16.03,10.82-30.69,21.5-42.88,4.53-5.12,9.47-9.86,14.59-14.32,5.19-3.52,10.47-6.79,15.87-9.95,29.34-17.06,61.18-29.48,93.08-41.1.87-.3,1.74-.64,2.63-.94,8.76-3.18,17.95-6.56,24.29-13.45,6.36-6.84,8.69-18.41,2.63-25.45-1.97-2.29-4.51-3.84-7.23-5.21,3.96-10.13,6.7-21.82,8.03-33.66,25.71-13.86,63.65-12.67,87.27-3.8-10.13,1.97-20.08,5.31-29.39,9.83,40.25,7.07,76.27,35.06,93.06,72.34,16.76,37.28,13.81,82.81-7.59,117.62l-.07.05Z" style="fill: #ac6dad;"/>
            <path d="M1696.47,674.83c3.87-22.82-1.05-46.93-10.25-61.64,1.42,15.73-2.4,34.53-5.95,45.15-4.19,12.69-12.88,24.7-21.68,34.6-18.18,20.35-42.36,35.06-67.88,44.25-28.75,10.34-59.14,14.43-89.74,16.76-.41-.02-.82-.09-1.24-.16-7.02-.82-14.43-1.65-20.26-5.69,27.42-3.54,53.63-15.78,73.94-34.53-26.92,6.11-54.91,11.53-81.92,5.9,7.5-6.31,15.03-12.58,22.5-18.87-14.68,2.2-29.78,1.9-44.37-.85-1.4-.25-2.93-.64-3.68-1.83-1.1-1.69,0-3.91,1.19-5.56,4.55-6.29,10.61-11.32,16.58-16.26,10.59-8.85,21.15-17.66,31.74-26.48-24.33-1.17-47.78,8.14-70.19,17.59-6.11,2.61-12.49,5.21-19.1,4.69-.46-5.88,1.56-11.92,5.47-16.4-11.98-.14-23.97,3.5-33.85,10.25,2.42-16.03,10.82-30.69,21.5-42.88,4.53-5.12,9.47-9.86,14.59-14.32,5.19-3.52,10.47-6.79,15.87-9.95,29.34-17.06,61.18-29.48,93.08-41.1.87-.3,1.74-.64,2.63-.94,8.76-3.18,17.95-6.56,24.29-13.45,6.36-6.84,8.69-18.41,2.63-25.45-1.97-2.29-4.51-3.84-7.23-5.21,3.96-10.13,6.7-21.82,8.03-33.66,25.71-13.86,63.65-12.67,87.27-3.8-10.13,1.97-20.08,5.31-29.39,9.83,40.25,7.07,76.27,35.06,93.06,72.34,16.76,37.28,13.81,82.81-7.59,117.62l-.07.05Z" style="fill: #faa64c; isolation: isolate;"/>
            <path d="M1550.4,495.05c-1.4,6.13-3.16,12.03-5.28,17.47,2.72,1.37,5.26,2.93,7.23,5.21,6.06,7.07,3.73,18.62-2.63,25.45-6.34,6.88-15.53,10.25-24.29,13.45-.87.3-1.74.64-2.63.94-31.9,11.62-63.74,24.04-93.08,41.1-5.37,3.13-10.68,6.43-15.87,9.95-5.12,4.46-10.06,9.19-14.59,14.32-10.68,12.19-19.05,26.85-21.5,42.88,9.88-6.75,21.86-10.38,33.85-10.25-3.89,4.46-5.9,10.52-5.47,16.4,2.63.21,5.21-.09,7.78-.69,24.45-22.5,54.61-40.94,81.07-54.55,32.52-16.72,111.42-46.29,82.81-95.64-6.06-10.43-15.85-19.26-27.44-26.03l.05-.02Z" style="fill: #dc9343; isolation: isolate; opacity: .4;"/>
            <path d="M1328.49,767.5c-5.37-34.47,4.92-70.3,24.15-99.39,7.89-11.96,17.27-22.85,27.6-32.75h.02c10.34-9.9,21.68-18.78,33.6-26.76-5.15,4.48-10.09,9.19-14.59,14.34-10.7,12.19-19.07,26.85-21.52,42.86,9.9-6.75,21.89-10.36,33.87-10.22-3.89,4.46-5.9,10.5-5.44,16.4,6.59.5,12.97-2.13,19.07-4.71,22.44-9.45,45.9-18.75,70.23-17.61-10.59,8.83-21.18,17.63-31.77,26.46-5.97,4.96-12.01,10.02-16.58,16.28-1.19,1.62-2.29,3.84-1.19,5.53.75,1.19,2.29,1.56,3.68,1.83,14.61,2.74,29.69,3.04,44.39.87-7.5,6.29-15,12.56-22.5,18.84,27.01,5.63,55,.23,81.92-5.92-20.31,18.75-46.52,31.01-73.94,34.56,5.83,4.05,13.24,4.85,20.29,5.72.41.05.82.11,1.21.16-11.5.89-23.03,1.53-34.51,2.15-16.95.89-35.91-.39-52.46,3.18-30.35,6.61-60.1,24.77-71.65,53.56-9.17-24.56-6.77-53.2,6.38-75.86-9.33,8.07-16.44,18.73-20.24,30.49h-.02Z" style="fill: #465b65;"/>
            <path d="M1406.18,671.97c-.46-5.9,1.56-11.94,5.44-16.4-11.98-.14-23.97,3.48-33.87,10.22,2.47-16.01,10.84-30.67,21.52-42.86,4.51-5.12,9.42-9.86,14.59-14.34-11.92,7.98-23.28,16.86-33.6,26.76h-.02c-10.36,9.9-19.71,20.79-27.6,32.75-19.23,29.07-29.53,64.93-24.15,99.39,3.8-11.76,10.91-22.41,20.24-30.49-13.15,22.69-15.53,51.3-6.38,75.86,3.89-9.67,9.86-18.14,17.2-25.36,1.07-24.79,7.02-49.29,18.48-71.29,8.51-16.35,21.15-31.38,35.88-44.94-2.56.59-5.15.89-7.75.71l.02-.02Z" style="fill: #384850;"/>
          </g>
        </g>
      </g>
    </g>
  </g>
</svg>