<?xml version="1.0" encoding="UTF-8"?>
<svg id="b" data-name="Layer 2" xmlns="http://www.w3.org/2000/svg" viewBox="0 0 742.47 530.65">
  <g id="c" data-name="Layer 1">
    <g id="d" data-name="Background Simple">
      <g>
        <path d="M429.86,147.95c-3.2-5.2-6.8-10.3-10.7-15.2-31.8-39.4-73.4-56.1-120.9-67.3-49.1-11.5-106.5-15.2-153.6,5.7-11.1,4.9-21.6,11.5-30,20.4-31.5,33.6-42.3,89.8-77.4,134.3-35.1,44.5-52.2,99.8-20.7,152.4,13.3,22.3,30.3,40.6,50.4,56.8,24.8,19.9,46.1,46.6,74.7,62.1,30.1,16.3,70.1,22,103.4,14.5,38-8.5,60.3-42.3,89.2-65.4,22.9-18.2,50.2-30.1,72.6-48.9,34.3-28.7,60.3-74.9,56-120.7-4.2-44.4-9.7-90.6-33.2-128.7h.2Z" style="fill: #9bd2a5;"/>
        <path d="M429.86,147.95c-3.2-5.2-6.8-10.3-10.7-15.2-31.8-39.4-73.4-56.1-120.9-67.3-49.1-11.5-106.5-15.2-153.6,5.7-11.1,4.9-21.6,11.5-30,20.4-31.5,33.6-42.3,89.8-77.4,134.3-35.1,44.5-52.2,99.8-20.7,152.4,13.3,22.3,30.3,40.6,50.4,56.8,24.8,19.9,46.1,46.6,74.7,62.1,30.1,16.3,70.1,22,103.4,14.5,38-8.5,60.3-42.3,89.2-65.4,22.9-18.2,50.2-30.1,72.6-48.9,34.3-28.7,60.3-74.9,56-120.7-4.2-44.4-9.7-90.6-33.2-128.7h.2Z" style="fill: #fff; isolation: isolate; opacity: .7;"/>
      </g>
    </g>
    <g id="e" data-name="Plants 2">
      <path d="M54.96,294.95c-30.7-21.8-46.2-74.8-46.2-74.8,0,0,64.1,35.8,91.3,64.2,21.7,22.5,33.3,45.4,37.1,53.8v-2.6c0-2.9.2-6.5.4-10.5-5.3-11.2-31.2-66.3-43.4-103.4-13.6-41.6-9.7-95.9-9.7-95.9,0,0,40.9,69.3,50.5,102.3,5.2,17.8,5.8,45.3,5.3,66.7.9-8,2-13.9,2-13.9.3-9.1.8-34.7-2.6-59.4-4.2-30.8,2.9-87.3,2.9-87.3,0,0,18.9,56.9,14.3,84-3.8,22.3-11.4,52.8-13.9,62.9,0,0-.1,6.4-1,14.7,2.4-15.3,6.4-34.3,13-52.8,14.5-41,42.9-90.1,42.8-87.8,0,2.3,1.9,46.2-7.1,74-8.3,25.5-45.3,86.9-51.3,96.8-.2,3.7-.4,7.1-.4,9.9v5c2.7-5.8,19.2-39.6,46.6-71.4,30.1-34.9,47-47.8,47-47.8,0,0-1.8,32.6-24.9,65.5-21.9,31-64,52.1-68.7,54.4.1,5.3.4,10.9.8,16,1.3-1.7,8.5-11,10.8-13.5,2.5-2.7,12.7-10.1,28.9-16.4s56.1-33.2,56.1-33.2c0,0-17.1,38-36.2,50.3-18.2,11.8-56.4,12.9-59.6,13,.7,9.5,1.5,17.1,1.5,17.2l-1.8.2c0-.1-.9-8-1.5-17.8-4.1-.1-29.6-1.6-64.7-16.4-38.3-16.3-53.6-49.5-53.6-49.5,0,0,39.7,18.7,77,40.5,30.5,17.9,39.1,23.5,41.3,24.9-.3-5.1-.6-10.7-.8-15.9-8.6-4.1-54.5-26.1-82.2-45.8v-.2Z" style="fill: #9bd2a5;"/>
      <path d="M291.96,347.05c-.4-28,24.5-60.7,24.5-60.7,0,0,6.8,54.2,1.8,83.1-4,22.9-12.5,40-15.9,46,.5-.4,1-.8,1.5-1.1,1.8-1.3,4-2.8,6.5-4.4,4.4-8.1,26-47.9,42.9-71.6,18.9-26.5,53.2-48.1,53.2-48.1,0,0-23.5,55.1-39.1,75.4-8.4,11-24.6,23.5-37.7,32.6,5.2-3,9.2-4.9,9.2-4.9,5.6-3.8,21.2-14.9,34.5-27.8,16.6-16.1,53.6-36.8,53.6-36.8,0,0-25.8,36.5-44,45.6-15,7.6-36.7,16.5-43.8,19.4,0,0-3.9,2.7-9.3,5.9,10.2-5.3,23.4-11.3,37.4-15.5,31-9.4,72.9-14,71.6-13.1s-26.9,21.5-47.5,28.3c-18.9,6.3-72.1,11.1-80.7,11.9-2.3,1.5-4.4,2.9-6.1,4.1-1,.7-2,1.5-3,2.2,4.7-.9,32.2-6,63.4-3.5,34.2,2.6,49.4,7.1,49.4,7.1,0,0-20.4,13.3-50.3,13.9-28.2.6-59.5-15.4-62.9-17.2-3.1,2.4-6.4,5.1-9.3,7.5,1.6,0,10.3.3,12.8.5,2.7.3,11.7,3.1,22.6,10.1s44.7,19,44.7,19c0,0-30.3,6.5-46.1.5-15.1-5.7-32.6-28.1-34.1-30-5.4,4.6-9.6,8.4-9.7,8.5l-.9-1s4.4-4,10-8.8c-1.7-2.5-12.1-18.5-18.7-46-7.1-30.2,6-54,6-54,0,0,6.3,32,9.7,64,2.7,26.2,3.2,33.8,3.3,35.7,2.9-2.5,6.1-5.1,9.2-7.5-1.4-7-8.4-44.2-8.8-69.5l.1.2Z" style="fill: #9bd2a5;"/>
    </g>
    <g id="f" data-name="Plants 1">
      <g>
        <path d="M422.96,429.05c-3.7-.7-9.6.3-12.3.9-2.2-.2-4.5-.2-6.7-.1,2.4-.9,9.1-3.5,9.8-8.2.7-6.1-7.5-4-9.1.7-1.4,3.8-2.9,6.5-4.1,7.7-2.5.2-5,.6-7.5,1.1,2.2-1.3,8.3-5,8.3-9.8-.4-6.2-8-2.6-8.8,2.2-.8,4-1.8,7-2.8,8.3-2.4.6-4.8,1.4-7.2,2.4,1.9-1.6,7.4-6.3,6.5-11-1.4-6-8.3-1.3-8.3,3.7,0,4.1-.6,7.2-1.3,8.7-2.3,1-4.5,2.2-6.7,3.5,1.6-1.9,6.3-7.5,4.6-12-2.4-5.7-8.4.1-7.6,5,.6,4.1.6,7.2.1,8.8-2.1,1.4-4.1,2.9-6,4.6.7-1.1,1.9-3.3,2.7-5.7,1.7-1.4,2.3-3.1.6-4.2,0-.9-.3-1.9-.8-2.7-.3-.4-.5-.7-.8-1,4.1-1,6.9-4.2,1.8-6.1-4.5-1.9-8.8,2.9-10.3,5.2.5-2.3,1.1-4.6,1.9-6.9,1.4-.8,4.4-1.4,8.3-1,4.7.3,9.2-2.7,4-5.7-4.1-2.6-9.1,1.4-11,3.3.9-2.2,1.9-4.3,3-6.4,1.6-.6,4.6-.6,8.4.4,4.6,1.1,9.5-1.1,4.9-5-3.7-3.3-9.3-.1-11.5,1.5,1.2-2,2.6-4,4-5.9,1.6-.3,4.7.1,8.2,1.7,4.3,1.8,9.6.4,5.7-4.1-3.1-3.9-9.2-1.6-11.7-.4,1.5-1.7,3-3.3,4.7-4.8,2.4-1.1,6.9-2.9,8.8-3.6,2.7-1.1,5.5-3.1,5.2-5.3-.2-2.2-3.4-4.4-7.3-1.3-3,2.2-6.3,7.3-7.7,9.7-1.6,1.5-3.2,3.2-4.7,4.8,1-2.4,3.6-9,.7-12.8-4-4.7-8,2.8-5.7,7.2,1.8,3.6,2.8,6.6,2.8,8.3-1.5,2-3,4.1-4.3,6.2.5-2.5,2-9.5-1.5-12.7-4.8-3.9-7.4,4.1-4.3,8,2.4,3.3,3.9,6,4.2,7.7-1.2,2.2-2.3,4.5-3.2,6.9.1-2.5.4-9.7-3.6-12.3-5.3-3.1-6.6,5.2-2.9,8.6,2.9,2.9,4.8,5.3,5.4,6.9-.8,2.4-1.5,4.8-2,7.3-.3-2.5-1.2-9.7-5.6-11.5-5.8-2.1-5.6,6.3-1.5,9,3.4,2.3,5.6,4.5,6.5,5.9-.4,2.5-.7,5-.8,7.6-.8-2.5-2.9-9.4-7.5-10.4-6.1-1.1-4.5,7.2,0,9.2,3.7,1.7,6.3,3.4,7.4,4.7,0,3,.3,5.9.7,8.9-.2.2-.1.5,0,.7h0c.2.2.5.1.7,0,1.8-2.3,3.8-4.5,5.9-6.5,1.7,0,4.6.7,8,2.9,4,2.4,9.5,1.8,6.3-3.2-2.5-4.3-8.9-3-11.5-2.1,1.9-1.6,3.8-3,5.8-4.4,1.7.2,4.4,1.6,7.3,4.2,3.6,3.1,9,3.4,6.7-2.1-1.7-4.6-8.1-4.5-10.8-4.1,2-1.2,4.2-2.3,6.3-3.3,1.6.5,4,2.3,6.4,5.4,3,3.6,8.2,4.9,6.9-1-.9-4.8-7.2-5.8-9.9-5.8,2.2-.8,4.5-1.6,6.7-2.2,1.5.8,3.6,2.9,5.4,6.4,2.3,4.1,7.3,6.2,7,.2-.1-4.9-6.2-6.9-8.9-7.4,2.3-.5,4.7-.8,7-1,1.3,1,3.1,3.5,4.3,7.2,1.6,4.4,6.2,7.3,6.9,1.4.7-4.9-5.1-7.9-7.6-8.8,2.2,0,4.5,0,6.7.1,2.4,1,6.8,3.1,8.6,4.1,2.6,1.2,6,1.9,7.5.2,1.4-1.6.9-5.5-4-6.3l.2-.3ZM360.96,432.65c-.8,1-1.4,2.4-1.5,3.8-1.9,1.6-3.2,3.9-3.8,5.3.1-2.4.4-4.8.7-7.2.9-.7,2.5-1.5,4.6-1.9h0ZM356.16,453.35c-.4-2.6-.6-5.2-.6-7.8.8-1,2.6-2.2,5.1-3.1.6,2.4.8,4.3.7,5.4-1.8,1.7-3.5,3.6-5.1,5.5h-.1Z" style="fill: #273339;"/>
        <path d="M9.46,437.85c3.7-.7,9.6.3,12.3.9,2.2-.2,4.5-.2,6.7-.1-2.4-.9-9.1-3.5-9.8-8.2-.7-6.1,7.5-4,9.1.7,1.4,3.8,2.9,6.5,4.1,7.7,2.5.2,5,.6,7.5,1.1-2.2-1.3-8.3-5-8.3-9.8.4-6.2,8-2.6,8.8,2.2.8,4,1.8,7,2.8,8.3,2.4.6,4.8,1.4,7.2,2.4-1.9-1.6-7.4-6.3-6.5-11,1.4-6,8.3-1.3,8.3,3.7,0,4.1.6,7.2,1.3,8.7,2.3,1,4.5,2.2,6.7,3.5-1.6-1.9-6.3-7.5-4.6-12,2.4-5.7,8.4.1,7.6,5-.6,4.1-.6,7.2-.1,8.8,2.1,1.4,4.1,2.9,6.1,4.6-.7-1.1-1.9-3.3-2.7-5.7-1.7-1.4-2.3-3.1-.6-4.2,0-.9.3-1.9.8-2.7.3-.4.5-.7.8-1-4.1-1-6.9-4.2-1.8-6.1,4.5-1.9,8.8,2.9,10.3,5.2-.5-2.3-1.1-4.6-1.9-6.9-1.4-.8-4.4-1.4-8.3-1-4.7.3-9.2-2.7-4-5.7,4.1-2.6,9.1,1.4,11,3.3-.9-2.2-1.9-4.3-3-6.4-1.6-.6-4.6-.6-8.4.4-4.6,1.1-9.5-1.1-4.9-5,3.7-3.3,9.3-.1,11.5,1.5-1.2-2-2.6-4-4.1-5.9-1.6-.3-4.7.1-8.2,1.7-4.3,1.8-9.6.4-5.7-4.1,3.1-3.9,9.2-1.6,11.7-.4-1.5-1.7-3-3.3-4.7-4.8-2.4-1.1-6.9-2.9-8.8-3.6-2.7-1.1-5.5-3.1-5.2-5.3.2-2.2,3.4-4.4,7.3-1.3,3,2.2,6.3,7.3,7.7,9.7,1.6,1.5,3.2,3.2,4.7,4.8-1-2.4-3.6-9-.7-12.8,4-4.7,8,2.8,5.7,7.2-1.8,3.6-2.8,6.6-2.8,8.3,1.5,2,3,4.1,4.3,6.2-.5-2.5-2-9.5,1.5-12.7,4.8-3.9,7.4,4.1,4.3,8-2.4,3.3-3.9,6-4.2,7.7,1.2,2.2,2.3,4.5,3.2,6.9-.1-2.5-.4-9.7,3.6-12.3,5.3-3.1,6.6,5.2,2.9,8.6-2.9,2.9-4.8,5.3-5.4,6.9.8,2.4,1.5,4.8,2,7.3.3-2.5,1.2-9.7,5.6-11.5,5.8-2.1,5.6,6.3,1.5,9-3.4,2.3-5.7,4.5-6.5,5.9.4,2.5.7,5,.8,7.6.8-2.5,2.9-9.4,7.5-10.4,6.1-1.1,4.5,7.2,0,9.2-3.7,1.7-6.3,3.4-7.4,4.7,0,3-.3,5.9-.7,8.9.2.2.1.5,0,.7h0c-.2.2-.5.1-.7,0-1.8-2.3-3.8-4.5-5.9-6.5-1.7,0-4.6.7-8,2.9-4,2.4-9.5,1.8-6.3-3.2,2.5-4.3,8.9-3,11.5-2.1-1.9-1.6-3.8-3-5.8-4.4-1.7.2-4.4,1.6-7.3,4.2-3.6,3.1-9,3.4-6.7-2.1,1.7-4.6,8.1-4.5,10.8-4.1-2-1.2-4.2-2.3-6.3-3.3-1.6.5-4,2.3-6.4,5.4-3,3.6-8.2,4.9-6.9-1,.9-4.8,7.2-5.8,9.9-5.8-2.2-.8-4.5-1.6-6.7-2.2-1.5.8-3.6,2.9-5.4,6.4-2.3,4.1-7.3,6.2-7,.2.1-4.9,6.2-6.9,8.9-7.4-2.3-.5-4.7-.8-7-1-1.3,1-3.1,3.5-4.3,7.2-1.6,4.4-6.2,7.3-6.9,1.4-.7-4.9,5.1-7.9,7.6-8.8-2.2,0-4.5,0-6.7.1-2.4,1-6.8,3.1-8.6,4.1-2.6,1.2-6,1.9-7.5.2-1.4-1.6-.9-5.5,4-6.3l-.2-.3ZM71.56,441.45c.8,1,1.4,2.4,1.5,3.8,1.9,1.6,3.2,3.9,3.8,5.3-.1-2.4-.4-4.8-.7-7.2-.9-.7-2.5-1.5-4.6-1.9h0ZM76.36,462.15c.4-2.6.6-5.2.6-7.8-.8-1-2.6-2.2-5.1-3.1-.6,2.4-.8,4.3-.7,5.4,1.8,1.7,3.5,3.6,5.1,5.5h.1Z" style="fill: #273339;"/>
        <path d="M32.66,347.15c3.7.6,8.9,3.6,11.3,5.2,2.2.6,4.3,1.4,6.3,2.2-2-1.7-7.3-6.5-6.3-11.1,1.5-6,8.5-1.1,8.3,3.8,0,4.1.5,7.1,1.2,8.7,2.3,1.1,4.5,2.3,6.6,3.6-1.6-2-6.1-7.6-4.4-12,2.5-5.7,8.5.3,7.5,5.2-.7,4-.7,7.1-.3,8.7,2.1,1.5,4.1,3,5.9,4.7-1.2-2.2-4.8-8.5-2.3-12.6,3.4-5.2,8.3,1.7,6.5,6.3-1.3,3.9-1.9,6.9-1.8,8.6,1.8,1.8,3.5,3.6,5.1,5.6-.8-2.4-3.3-9.2-.2-12.8,4.2-4.5,7.9,3.1,5.4,7.3-2,3.6-3,6.5-3.1,8.2,1.5,2,2.8,4.2,4.1,6.4-.2-1.3-.7-3.8-.6-6.3-1.1-1.9-1.1-3.7.9-4.2.4-.9.9-1.6,1.7-2.3.4-.3.8-.5,1.1-.7-3.5-2.3-5-6.3.5-6.3,4.9-.2,7.2,5.7,7.9,8.4.3-2.4.5-4.7.6-7.1-1.1-1.3-3.7-2.9-7.4-3.9-4.5-1.4-7.7-5.7-1.8-6.7,4.8-1,8.1,4.4,9.2,6.9,0-2.4-.3-4.7-.6-7.1-1.3-1.1-4.1-2.2-8-2.6-4.7-.6-8.5-4.4-2.9-6.4,4.6-1.8,8.8,3.1,10.3,5.4-.5-2.3-1.1-4.6-1.8-6.9-1.4-.9-4.4-1.5-8.3-1.2-4.7.2-9.2-2.9-3.9-5.8,4.2-2.5,9.2,1.7,11.1,3.7-.8-2.1-1.7-4.1-2.7-6.1-1.9-1.8-5.5-5.1-7.1-6.4-2.1-2-4-4.8-3.1-6.8s4.7-2.9,7.3,1.3c2.1,3.1,3.4,9,3.9,11.8,1,2,1.9,4.1,2.7,6.2,0-2.6-.2-9.7,3.8-12.2,5.4-3,6.6,5.4,2.8,8.7-3,2.8-4.9,5.2-5.5,6.8.8,2.4,1.4,4.9,1.8,7.3.4-2.5,1.4-9.6,5.9-11.4,5.8-2,5.5,6.4,1.3,9-3.4,2.3-5.7,4.3-6.6,5.7.3,2.5.5,5,.6,7.6.8-2.4,3-9.3,7.7-10.3,6.1-1,4.4,7.2-.2,9-3.8,1.7-6.4,3.3-7.5,4.6,0,2.5-.3,5-.7,7.5,1.2-2.2,4.5-8.7,9.3-8.8,6.2,0,3.1,7.9-1.7,8.9-4,1-6.8,2.2-8.1,3.3-.5,2.5-1.1,4.9-1.9,7.3,1.6-2.1,5.9-7.8,10.6-7.2,6.1,1,1.7,8.3-3.2,8.6-4.1.3-7.1,1.1-8.6,1.9-1.1,2.8-2.3,5.5-3.8,8.1,0,.3,0,.5-.3.6h0c-.3,0-.6,0-.6-.3-.9-2.8-2-5.5-3.3-8.2-1.5-.7-4.6-.9-8.5,0-4.6.9-9.5-1.6-4.8-5.2,3.8-3.1,9.4.3,11.5,2-1.2-2.1-2.5-4.2-3.9-6.1-1.6-.4-4.7,0-8.3,1.4-4.4,1.6-9.6.1-5.5-4.3,3.2-3.7,9.1-1.4,11.6,0-1.5-1.8-3.1-3.6-4.8-5.3-1.7,0-4.6.7-7.9,2.8-4,2.4-9.4,1.7-6.1-3.3,2.5-4.2,8.7-2.9,11.4-2-1.8-1.6-3.6-3-5.6-4.4-1.6.2-4.4,1.5-7.3,4.1-3.6,3-9,3.3-6.6-2.2,1.8-4.6,8.2-4.3,10.9-3.9-2-1.2-4.1-2.4-6.3-3.4-1.6.5-4.1,2.2-6.6,5.3-3,3.6-8.4,4.7-7-1.1,1-4.8,7.5-5.6,10.2-5.6-2.1-.8-4.2-1.6-6.3-2.2-2.6.1-7.5.5-9.5.8-2.9.2-6.3-.3-7.1-2.4-.8-2,1.1-5.4,5.9-4.5v.1ZM89.66,371.95c.4,1.2.5,2.7.1,4.1,1.2,2.2,1.6,4.8,1.7,6.3.7-2.3,1.3-4.7,1.8-7-.6-1-1.8-2.2-3.7-3.4h.1ZM86.96,393.05c1.2-2.3,2.3-4.7,3.3-7.2-.4-1.2-1.7-2.9-3.7-4.7-1.4,2-2.2,3.7-2.5,4.9,1.1,2.2,2.1,4.6,2.9,6.9v.1Z" style="fill: #273339;"/>
      </g>
    </g>
    <g id="g" data-name="Rock">
      <g>
        <path d="M38.96,500.85s10.6-40.4,37-69.9,68.5-48,76.5-53c15.9-9.9,98.7-15.3,122.1-10.5,23.3,4.8,45,14,60.3,28.8s40.8,75.6,49.1,85.4c8.3,9.9,23,33.9,23,36s7,12.7,7,12.7H14.06l24.9-29.7v.2Z" style="fill: #969696;"/>
        <path d="M242.26,512.85c-19.1-3.5-43.4-1.4-40.8-9.9,2.6-8.5,11.5-16.2,15.3-28.9s-20.4-2.8-37.6-7.1-2.6-15.5-.6-24c1.9-8.5,8.1-29.5,22.3-34.6s45.3-3.5,56.1-3.5,44-7.1,44-7.1c-51.6-36-89.9-26.1-89.9-26.1,0,0-4.5-1.2-12.2-3.3-21.1,2.1-39.8,5.5-46.5,9.7-8,4.9-50.1,23.5-76.5,53s-37,69.9-37,69.9l-24.9,29.7h287.5c-22.6-6.8-47.2-15.4-59.2-17.7v-.1Z" style="fill: #4b4b4b;"/>
      </g>
    </g>
    <g id="h" data-name="Fox">
      <g>
        <path d="M339.46,130.95s25.4-19.7,32-26.3,21.4-21.4,24.6-27,8.3,1,6.1,9.3c-2.2,8.3-5.5,22.5-10.1,40.7s-15.1,28-18.3,32.4c-3.2,4.4-6.2,9.1-6.2,9.1,0,0-4-22.8-13-27.1s-15-10.9-15-10.9l-.1-.2Z" style="fill: #faa64d; stroke: #273339; stroke-miterlimit: 10;"/>
        <path d="M367.56,168.95s2.9-4.7,6.2-9.1c3.2-4.4,13.7-14.2,18.3-32.4,4.7-18.2,7.9-32.4,10.1-40.7,1.3-4.9,0-9.1-1.8-10.7-.3.9-.6,1.8-.8,3-.8,4.7-1.1,11.8-2.1,19.9-1,8.1-6.9,30-16.3,42.5-8.7,11.5-16.6,12.4-17.8,12.5,2.9,7.3,4.3,15,4.3,15h-.1Z" style="fill: #fff;"/>
        <path d="M339.46,130.95s25.4-19.7,32-26.3,21.4-21.4,24.6-27,8.3,1,6.1,9.3c-2.2,8.3-5.5,22.5-10.1,40.7s-15.1,28-18.3,32.4c-3.2,4.4-6.2,9.1-6.2,9.1,0,0-4-22.8-13-27.1s-15-10.9-15-10.9l-.1-.2Z" style="fill: none; stroke: #273339; stroke-miterlimit: 10;"/>
        <path d="M315.06,124.25s13.4-.6,30.8,6.4c17,6.8,26.1,24.3,25,37.8-1.4,16.8-5,26.5-3.9,32.9s6.5,12.4,6.3,15.7c-.2,3.4-6.5,8.5-14.8,8.1s-16-6.9-17.9-6.5c-3.2.6-6.6,6-7.3,12.8-.7,6.8-8.5,24.4-11.3,33.4s-3.3,2.2-3.3,2.2c0,0-1.1,4-3.7,9s-5.2,8.7-7.4,9.7c-2.1,1-9,5.2-9,5.2v-6.1c.1,0-5.8,7.8-11.4,12.3s-12.5,10.5-12.5,10.5c0,0,6.6,46.6,8.1,58.2,1.6,11.6,6.9,14.8,7.8,15.4s8.9.7,12.6,3,5.7,6.6,3.7,10-14.5,4.7-23.2,2.8c-8.6-1.9-10.8-3.7-13.3-6.3-2.5-2.7-5.7-8.1-5.7-8.1l-6.2-12.7-6.2-13.6s-1.4,3.7-11.6,12.6c-10.1,8.9-21.6,13.5-21.6,13.5,0,0,11.4,3.6,15.7,3.8,4.3.2,2.3,5.7-.7,8.3-3,2.5-10.7,1.2-23.8.7-13.2-.5-43.4,0-43.4,0,0,0-43.6,5-49.5-17.8s2.5-40.5,4.5-53.7c2.1-13.2-4-61.4,21.4-93,25.4-31.6,74-31.9,74-31.9,0,0,6.5-7.8,15.2-13s19.7-5.8,19.7-5.8c0,0,8.2-2.7,11.7-8.6s2-23.9,15.2-35.3,36.1-11.8,36.1-11.8l-.1-.1Z" style="fill: #faa64d; stroke: #273339; stroke-miterlimit: 10;"/>
        <path d="M365.76,178.25s-3.9,9.6-3.8,12c0,2.4.9,4.2,1.5,3.3.6-.8,4.7-9.8,4.8-12.7,0-2.9-2-5.5-2.5-2.7v.1Z" style="fill: #010101; isolation: isolate; opacity: .3;"/>
        <path d="M335.16,180.65s-3.7-1.6-5.6-2-.8,1.6-.2,3.9c.5,2.2,7.9,9.9,9.5,10.8,1.6.9,4.3,2.8,4.5.8s-1.6-3.7-2.5-6.9-5.7-6.7-5.7-6.7v.1Z" style="fill: #010101; isolation: isolate; opacity: .3;"/>
        <path d="M373.26,217.15c.2-2.8-3.4-7.3-5.3-12.3-2-3.9-4.6-8.7-6.9-11.3-4.2-4.8-4.7-.8-4.5,3.9.1,4.6-10.4,5.9-12.6,1.9-2.3-4-21.1-11.8-32.5-9s-14.6,8.8-18.5,3.3-5.4-15.6-7.1-10.6-1.6,8.7-2.1,12.8c-.5,4,1,6.7,1,6.7l3.1-3s.4,6.2,1.9,5.3c1.4-.9,2.1-3.5,2.1-3.5,0,0,1.4,7.5,11.2,14.7,9.8,7.1,16.5,11.6,16.5,11.6,0,0-1.8-8.6-.9-8.3s2.6,4.6,4.3,8.9c1.7,4.3,2.3,5.8,2.8,10.8s-1.6,9-3.9,15-4.4,8.5-7.7,10.5c-3.4,2-12.2,6.2-13.4,8.8-1.2,2.5,5.6.8,5.6.8,0,0-8,3.3-17,11.7s-14.4,22.1-14.4,22.1c0,0,6.9-6,12.5-10.5s11.6-12.3,11.6-12.3v6.1c-.1,0,6.8-4.2,8.9-5.2s4.8-4.7,7.4-9.7,3.7-9,3.7-9c0,0,.5,6.7,3.3-2.2s10.5-26.6,11.3-33.4c.7-6.8,4.1-12.1,7.3-12.8,1.8-.4,9.6,6.1,17.9,6.5s14.5-4.7,14.7-8.1l-.3-.2Z" style="fill: #fff;"/>
        <path d="M303.16,384.05c-3.7-2.3-11.7-2.4-12.6-3s-6.2-3.8-7.8-15.4c-.5-3.8-1.6-11.4-2.8-19.9,0,.5-.9,12.4-1.1,14.6s-3.6-6.7-3.8-4.2c-.2,2.5,0,7.7-.6,11.2-.5,3.4-11.2-11.1-12-8.9-.9,2.2-1.3,7.5-1.3,7.5,0,0-4.8-5.7-4.5-3.9.2,1.1,1.1,4.6,1.9,8l6.1,12.4s3.2,5.4,5.7,8.1,4.7,4.4,13.3,6.3c8.6,1.9,21.1.6,23.2-2.8,2-3.4,0-7.7-3.7-10h0Z" style="fill: #fff;"/>
        <path d="M251.06,329.95c-4.2-16.9-24.3-35.8-24.3-35.8l3.7.8s-7.3-7.5-16.7-8.2c-9.3-.7-19.2.6-19.2.6,0,0,21.6,5.9,29.2,23.9s7.3,26.7,7.3,26.7l-5.1-4.8s.2,5.6.7,14.2c.6,8.7.4,14.2-4.7,20.6-5.1,6.3-8.4,9.9-11.1,11.5s-7.9,4.6-7.9,4.6h7.4l-8,2.8s-21.3,4.2-19.9,8.1c9.4,0,20.8-.1,27.6.2,13.2.5,20.9,1.8,23.8-.7,3-2.5,5-8.1.7-8.3-4.3-.2-15.7-3.8-15.7-3.8,0,0,11.5-4.6,21.6-13.5,10.1-8.9,11.6-12.6,11.6-12.6v.2c.9-5.6,1.6-15.5-1.2-26.4l.2-.1Z" style="fill: #fff;"/>
        <path d="M315.06,124.25s13.4-.6,30.8,6.4c17,6.8,26.1,24.3,25,37.8-1.4,16.8-5,26.5-3.9,32.9s6.5,12.4,6.3,15.7c-.2,3.4-6.5,8.5-14.8,8.1s-16-6.9-17.9-6.5c-3.2.6-6.6,6-7.3,12.8-.7,6.8-8.5,24.4-11.3,33.4s-3.3,2.2-3.3,2.2c0,0-1.1,4-3.7,9s-5.2,8.7-7.4,9.7c-2.1,1-9,5.2-9,5.2v-6.1c.1,0-5.8,7.8-11.4,12.3s-12.5,10.5-12.5,10.5c0,0,6.6,46.6,8.1,58.2,1.6,11.6,6.9,14.8,7.8,15.4s8.9.7,12.6,3,5.7,6.6,3.7,10-14.5,4.7-23.2,2.8c-8.6-1.9-10.8-3.7-13.3-6.3-2.5-2.7-5.7-8.1-5.7-8.1l-6.2-12.7-6.2-13.6s-1.4,3.7-11.6,12.6c-10.1,8.9-21.6,13.5-21.6,13.5,0,0,11.4,3.6,15.7,3.8,4.3.2,2.3,5.7-.7,8.3-3,2.5-10.7,1.2-23.8.7-13.2-.5-43.4,0-43.4,0,0,0-43.6,5-49.5-17.8s2.5-40.5,4.5-53.7c2.1-13.2-4-61.4,21.4-93,25.4-31.6,74-31.9,74-31.9,0,0,6.5-7.8,15.2-13s19.7-5.8,19.7-5.8c0,0,8.2-2.7,11.7-8.6s2-23.9,15.2-35.3,36.1-11.8,36.1-11.8l-.1-.1Z" style="fill: none; stroke: #273339; stroke-miterlimit: 10;"/>
        <g>
          <path d="M320.76,136.25s-11.8-28.8-18.3-39.1c-6.5-10.4-16.3-22.4-22.4-31.7s-10.4-6.2-13.2,9.9c-2.8,16.1-3.8,32.9-1.8,49.2,1.9,16.3,17.6,27.9,23.8,29.9" style="fill: #faa64d; stroke: #273339; stroke-miterlimit: 10;"/>
          <path d="M315.96,142.65s-2.1-7.6-9.6-25.1c-7.6-17.5-18.1-33.4-22.9-40.3s-5.4-17.3-8.9-12.6-8.3,20.1-7.8,47,13.2,34.2,16.1,36.2c2.8,2.1,10.2,4.9,10.2,4.9,0,0-7-10.5-5.2-9.6s8.4,4.3,8.4,4.3c0,0-2.9-4.2-1.3-3.9,1.5.3,2.5,1.5,2.5,1.5l2.2,1.5s-3-6.6-.8-4.9c2.2,1.8,3.5,3.9,3.5,3.9,0,0,2.3-6.5,2.9-5,.7,1.5,1.7,5.2,1.7,5.2,0,0-.4-4.3,1.8-2.8s2.9,4.2,2.9,4.2l4.5-4.4-.2-.1Z" style="fill: #fff; stroke: #273339; stroke-miterlimit: 10;"/>
        </g>
        <path d="M343.66,186.35c.1,3.9-2.9,7.1-6.8,7.2s-7.1-2.9-7.2-6.8c-.1-3.9,2.9-7.1,6.8-7.2,3.9-.1,7.1,2.9,7.2,6.8Z" style="fill: #273339; stroke: #273339; stroke-miterlimit: 10;"/>
        <path d="M367.86,186.55c-.9,2.8-2.9,4.7-4.6,4.2s-2.3-3.2-1.4-6,2.9-4.7,4.6-4.2c1.6.5,2.3,3.2,1.4,6Z" style="fill: #273339; stroke: #273339; stroke-miterlimit: 10;"/>
        <path d="M373.46,215.95c-1.3-1.9-4.2-3.1-7-2.9-1.8.1-3.7,1-4.4,2.7-.8,1.8,0,4,1.3,5.4,1.5,1.6,3.7,2.4,5.8,1.9,2.9-.6,6.2-4.1,4.2-7.1h.1Z" style="fill: #273339; stroke: #273339; stroke-miterlimit: 10;"/>
        <path d="M340.56,218.65s-6.7-3.2-10.4-7.5" style="fill: none; stroke: #273339; stroke-miterlimit: 10;"/>
        <path d="M353.76,210.75s-18.1-8.5-27.1-8.7" style="fill: none; stroke: #273339; stroke-miterlimit: 10;"/>
        <path d="M351.36,211.95s-12.8-4.5-17.5-5.3" style="fill: none; stroke: #273339; stroke-miterlimit: 10;"/>
        <line x1="350.96" y1="214.25" x2="343.36" y2="212.75" style="fill: none; stroke: #273339; stroke-miterlimit: 10;"/>
        <path d="M280.86,159.35s8.3,9.5,5.7,18.9c-2.7,9.4-3.7,23.3-2,24.3,1.7.9,3.1-3,3.1-3,0,0,.9,4.4,1.9,5.3,1,.9,2.1-3.5,2.1-3.5,0,0,2.1,6.3,7.9,9.3" style="fill: none; stroke: #273339; stroke-miterlimit: 10;"/>
        <path d="M177.66,291.45c8.9-2.6,22.9-5.9,32.7-4.7,15.6,2,20.1,8.1,20.1,8.1l-3.7-.8s6,3.9,10.5,9.9c4.5,6.1,11.1,18.3,13.9,29.3s1.1,22.9,1.1,22.9" style="fill: none; stroke: #273339; stroke-miterlimit: 10;"/>
        <path d="M169.16,294.25s1.3-.5,3.4-1.2" style="fill: none; stroke: #273339; stroke-miterlimit: 10;"/>
        <path d="M167.66,349.35c-1.9,3.8-3.3,6.8-4.1,7.9" style="fill: none; stroke: #273339; stroke-miterlimit: 10;"/>
        <path d="M207.16,313.85s-17,.2-25.7,11.3c-4.1,5.3-7.8,12-10.8,18" style="fill: none; stroke: #273339; stroke-miterlimit: 10;"/>
        <path d="M219.06,382.25s-24.8,7.2-39.2,6.4" style="fill: #9bd2a5; stroke: #273339; stroke-miterlimit: 10;"/>
        <path d="M145.06,327.85s-29.3-14.4-50,.4-28,65-28,65l8.5-7.3s-7.2,13.8-3.5,28.9,10.6,27.4,10.6,27.4l1.8-13.1s4,24.4,9.8,35.6c5.8,11.3,10.9,18.2,10.9,18.2l-.8-8.1s4,7.5,12.4,13.2c8.3,5.7,22.7,14.6,22.7,14.6l.2-11.4,8.4,7.9,2.2-18,4.6,9.7s8.5-6.2,16.8-19.5,8.4-48.1,8.4-48.1l3.5,6.4s-2.1-17.3-3.4-24.4c-1.3-7,6.6,3.6,6.6,3.6,0,0,.3-26.1-6.7-42.2s-21.6-30.4-21.6-30.4l7.6.3-20.9-8.6-.1-.1Z" style="fill: #faa64d; stroke: #273339; stroke-miterlimit: 10;"/>
        <path d="M240.66,204.95s.3,10.2.8,11.9c.5,1.8,3.4,10.5,3.4,10.5l1.5-8.4s3,10.1,3.9,11.4c.9,1.3,4.7,8.7,4.7,8.7l2.1-4,3.8,8.7s3.2,5.2,4.2,6.5,5.4,4.7,5.4,4.7l-.7-8.4,6.5,10.4" style="fill: none; stroke: #273339; stroke-miterlimit: 10;"/>
        <path d="M225.56,253.15c-.5,5.4-.9,10.9-.8,13.8.2,6.6.7,9.7.7,9.7l3.4-5.8s-2.8,10.7-.9,15.5" style="fill: none; stroke: #273339; stroke-miterlimit: 10;"/>
        <path d="M227.06,239.45s-.5,4.1-1,9.2" style="fill: none; stroke: #273339; stroke-miterlimit: 10;"/>
        <path d="M338.26,183.55c0,1.6-1.2,3-2.9,3.1-1.6,0-3-1.2-3.1-2.9s1.2-3,2.9-3.1c1.6,0,3,1.2,3.1,2.9Z" style="fill: #fff;"/>
        <path d="M365.36,183.35c-.4,1.1-1.2,1.7-1.7,1.5s-.5-1.2,0-2.3c.4-1.1,1.2-1.7,1.7-1.5s.5,1.2,0,2.3Z" style="fill: #fff;"/>
      </g>
    </g>
    <path d="M415.31,108.64c10.59-.24,21.58-1.44,32.11-2.84,46.65-6.4,92.27-18.77,136.84-33.9,41.16-14.11,81.85-30.04,120.61-49.93,12.88-6.69,25.66-13.67,37.6-21.97-35.8,25.02-76,43.08-116.16,59.89-58.97,24.02-120.25,43.8-183.41,53.09-9.1,1.19-18.33,2.34-27.53,2.66,0,0-.06-7-.06-7h0Z" style="fill: #231f20;"/>
    <polygon points="419.11 96.24 398.85 113.71 422.33 126.94 416.61 111.62 419.11 96.24" style="fill: #231f20;"/>
  </g>
</svg>