<?xml version="1.0" encoding="UTF-8"?>
<svg id="b" data-name="Layer 2" xmlns="http://www.w3.org/2000/svg" viewBox="0 0 695.62 441.65">
  <g id="c" data-name="Layer 1">
    <g>
      <g id="d" data-name="Dunes">
        <g id="e" data-name="Dunes">
          <path d="M481.31,298.27v-155.57s-39.72-27.24-69.67-50.64c-32.09-25.08-47.36-19.26-74.21-1.65-24.47,16.05-71.05,46.14-71.05,46.14,0,0-14.51-9.63-30-18.44-22.99-13.09-33.36-13.7-63.35,8.75-16.13,12.07-22.83,17.93-22.83,17.93v153.48h331.1Z" style="fill: #e0e1e0;"/>
          <path d="M219.66,159.68c-2.93-7.91,9.26-24.49,2.89-25.85-4.65-1-14.28,3.34-14.75-2.49-.66-8.15,5.63-16.17,3-18.05-6.24-4.46-16.1-.22-16.55-.05,15.54-7.51,25.56-4.57,42.14,4.88,15.48,8.82,30,18.44,30,18.44-20.09,13.53-43.8,31.03-46.72,23.12Z" style="fill: #ebebeb;"/>
          <path d="M464.18,171.16c-11.47-5.81-3.61-28.58-11.42-39.55s-20.55-4.11-52.52-1.4c-31.97,2.71-32.28-13.57-14.82-29.87,15.8-14.75-1.41-23.92-11.57-25.15,10.81-.11,22.36,4.81,37.79,16.87,29.95,23.41,69.67,50.64,69.67,50.64v30.34s-5.66,3.92-17.13-1.88Z" style="fill: #ebebeb;"/>
          <g id="f" data-name="Dunes">
            <path d="M5.73,154.67c12.05-9.04,44.39-35.71,51.76-40.55,26.85-17.62,42.12-23.44,74.21,1.65,29.95,23.41,69.67,50.64,69.67,50.64l57.32,40.02v91.84H5.73v-143.6Z" style="fill: #e0e1e0;"/>
            <path d="M184.24,194.87c-11.47-9.48-3.62-28.58-11.42-39.55-7.8-10.97-20.55-4.11-52.52-1.4-31.97,2.71-32.28-13.57-14.82-29.87,15.8-14.75-1.41-23.92-11.57-25.15,10.81-.11,22.36,4.8,37.79,16.87,29.95,23.41,69.67,50.64,69.67,50.64l57.32,40.02s-25.26-1-36.81-1.59c-21.38-1.09-27.73-1.78-37.63-9.97Z" style="fill: #ebebeb;"/>
          </g>
        </g>
      </g>
      <g id="g" data-name="Floor">
        <g id="h" data-name="Floor">
          <ellipse id="i" data-name="Floor" cx="243.52" cy="301.06" rx="243.52" ry="140.6" style="fill: #fabca8;"/>
          <ellipse id="j" data-name="Floor" cx="243.52" cy="301.06" rx="243.52" ry="140.6" style="fill: #fff; isolation: isolate; opacity: .2;"/>
          <path d="M71.33,201.64c65.94-38.07,160.29-49.73,243.65-35.01-16.85,3.06-33.44,7.55-49.52,13.46-9.56,3.51-19.5,7.97-25.1,16.48-4.57,6.95-5.54,15.58-8.18,23.47-5.15,15.45-17.26,28.43-32.32,34.64-9.65,3.98-20.31,5.28-29.66,9.9-9.36,4.63-17.6,14.33-15.61,24.58,1.54,7.92,8.82,14.35,8.46,22.41-.47,10.68-12.97,15.59-22.12,21.12-12.51,7.57-21.7,21.57-20.85,36.17,1.13,19.48,18.29,33.7,34.39,44.72,12.79,8.76,25.86,17.12,39.16,25.09-44.82-5.39-87.51-18.12-122.3-38.2-95.1-54.91-95.1-143.93,0-198.83Z" style="fill: #fabca8;"/>
          <path d="M78.21,400.14c1.27,1.89,2.5,3.92,3.6,6.03-3.57-1.83-7.07-3.73-10.49-5.7-95.1-54.9-95.1-143.92,0-198.83,23.77-13.72,51.22-24.01,80.52-30.88,4.08,4.6,7.99,9.35,11.71,14.24,3.71,4.9,7.43,10.86,5.82,16.8-1.67,6.2-8.31,9.44-14.23,11.9-9.82,4.09-19.65,8.18-29.47,12.27-5.94,2.47-11.96,5-16.97,9.02s-8.96,9.84-9.26,16.26c-.3,6.51,3.09,13.19.97,19.36-1.62,4.68-6.04,7.77-10.42,10.09-8.64,4.57-18.1,7.4-26.88,11.7-8.78,4.29-17.2,10.45-21.24,19.36-3.1,6.81-3.33,14.64-2.1,22.02,4.24,25.46,24.05,44.92,38.43,66.35Z" style="fill: #f09a7b; isolation: isolate; opacity: .5;"/>
        </g>
      </g>
      <g id="k" data-name="Sun">
        <circle id="l" data-name="Sun" cx="290.22" cy="26.05" r="26.05" style="fill: #fabca8;"/>
      </g>
      <g id="m" data-name="Clouds">
        <path id="n" data-name="Cloud" d="M33.6,25.12h120.62c-.31-.24-.72-.47-1.3-.66-1.57-.51-3.43-.55-4.78-.63-1.55-.09-2.04-.31-2.33-.55-3.76-3.85-9.98-3.99-13.69-2.89-.91-2.65-5.39-4.94-10.32-4.17.17-3.44-5.97-7.14-11.5-7.97-5.29-.81-9.91-.47-12.93,2.02-3.23-4.51-15.91-5.78-22.77-3.4-3.94,1.37-7.29,2.78-8.93,5.37-1.08,1.71-1.46,2.84-1.49,5.14-2.67-1.68-8.03-2.14-11.6-1.15-3.85,1.06-4.14,3.14-4.33,5.25-3.77-.68-6.3-.24-7.01-.09-2.43.51-3.82,1.87-3.49,2.97-1.02-.04-2.8.26-4.16.76Z" style="fill: #f1f0f0;"/>
        <path id="o" data-name="Cloud" d="M233.85,49.02c-2.79-2.11-7.02-2.18-9.62-1.51-.67-1.7-3.97-3.17-7.6-2.67.12-2.2-4.4-4.57-8.46-5.11-3.9-.52-7.3-.3-9.52,1.29-2.38-2.89-11.71-3.71-16.76-2.18-2.9.88-5.37,1.78-6.57,3.44-.79,1.09-1.08,1.82-1.09,3.29-1.97-1.08-5.91-1.37-8.54-.74-2.83.68-3.05,2.01-3.19,3.36-2.78-.44-4.64-.15-5.16-.06-.95.18-1.68.51-2.12.88h78.64Z" style="fill: #f5f6f6;"/>
        <path id="p" data-name="Cloud" d="M468.41,26.05c-3.85-2.9-9.67-3.01-13.24-2.08-.92-2.34-5.46-4.36-10.47-3.68.17-3.03-6.06-6.3-11.66-7.04-5.37-.71-10.05-.41-13.11,1.78-3.28-3.98-16.13-5.11-23.09-3-4,1.21-7.39,2.46-9.05,4.74-1.1,1.51-1.49,2.51-1.51,4.53-2.71-1.49-8.14-1.89-11.76-1.02-3.9.94-4.2,2.77-4.39,4.63-3.83-.6-6.39-.21-7.11-.08-1.31.24-2.31.7-2.92,1.22h108.3Z" style="fill: #f5f6f6;"/>
      </g>
      <g id="q" data-name="Shadow">
        <ellipse id="r" data-name="Shadow" cx="258.21" cy="324.06" rx="140.99" ry="81.4" style="fill: #010101; isolation: isolate; opacity: .15;"/>
      </g>
      <g id="s" data-name="Fox">
        <g id="t" data-name="Fox">
          <g id="u" data-name="Paw">
            <g id="v" data-name="Paw">
              <path d="M254.78,284.17c-2.93-4.96-20.38-7.65-31.14-4.01-8.93,8.4-10.96,10.31-18.29,15.29-8.47-2.43-12.9.83-14.32,2.85-1.79,2.53-2.12,6.3-1.47,9.52.4,2,2.15,3.88,4.18,3.72.19-.02.38-.05.56,0,.23.07.4.26.56.44,2.11,2.31,5.74,3.07,8.6,1.81.18-.08.37-.17.57-.19.31-.03.62.1.91.22,2.52,1,5.57.39,7.79-1.17,2.72-1.91,4.17-3.11,7.14-5.4,4.11-3.19,7.36-5.84,11.24-8.38,11.67-7.6,14.52-9.19,23.67-14.7Z" style="fill: #fdc382;"/>
              <path d="M254.78,284.17c-2.93-4.96-20.38-7.65-31.14-4.01-8.93,8.4-10.96,10.31-18.29,15.29-8.47-2.43-12.9.83-14.32,2.85-1.79,2.53-2.12,6.3-1.47,9.52.4,2,2.15,3.88,4.18,3.72.19-.02.38-.05.56,0,.23.07.4.26.56.44,2.11,2.31,5.74,3.07,8.6,1.81.18-.08.37-.17.57-.19.31-.03.62.1.91.22,2.52,1,5.57.39,7.79-1.17,2.72-1.91,4.17-3.11,7.14-5.4,4.11-3.19,7.36-5.84,11.24-8.38,11.67-7.6,14.52-9.19,23.67-14.7Z" style="fill: #fdc382; isolation: isolate; opacity: .4;"/>
              <path d="M207.14,294.22c-.56.39-1.15.8-1.78,1.23,0,0-.02,0-.03,0,3.49,1.37,6.34,3.48,8.46,5.49-.23-2.08-3.48-4.77-6.65-6.71ZM194.31,311.54c-.08-5.05.54-12.54,7.99-13.3-5.43-.12-10.28-.46-7.99,13.3ZM204.03,313.6c-.74-4.8-.84-10.88,4.3-12.83-4-.17-7.91,3.37-4.3,12.83Z" style="fill: #fdc382; isolation: isolate; opacity: .5;"/>
            </g>
            <g>
              <path d="M243.29,204.64c-39.94,5.84-51.53,42.53-42.85,64.23,7.22,18.07,29.15,15.55,29.15,15.55,0,0-10.34,7.92-6.12,7.92s9.04-3.24,9.04-3.24c0,0-4.12,8.9-.53,8.45,3.59-.45,16.94-4.2,26.66-12.13,9.35-7.64,2.55-20.41,11.38-29.11,8.83-8.7,2.44-47.19-26.74-51.68Z" style="fill: #f3b57b;"/>
              <path d="M243.29,204.64c-39.94,5.84-51.53,42.53-42.85,64.23,7.22,18.07,29.15,15.55,29.15,15.55,0,0-10.34,7.92-6.12,7.92s9.04-3.24,9.04-3.24c0,0-4.12,8.9-.53,8.45,3.59-.45,16.94-4.2,26.66-12.13,9.35-7.64,2.55-20.41,11.38-29.11,8.83-8.7,2.44-47.19-26.74-51.68Z" style="fill: #f3b57b; isolation: isolate; opacity: .3;"/>
              <path d="M252.81,237.9c-8.79-5.03-19.08-7.04-29.21-6.96-7.7.06-15.6,1.38-22.35,4.99-4.36,10.91-4.55,22.67-1.18,31.94,6.22,1.36,12.11,4.32,17.51,7.78,5.62,3.59,10.71,8.17,16.32,11.66,3.76,2.34,8.8,4.25,13.82,4.94,3.71-1.79,7.54-4.05,10.93-6.81,9.27-7.57,2.68-20.18,11.16-28.88-3.32-7.84-9.57-14.39-17-18.65Z" style="fill: #f3b57b; isolation: isolate; opacity: .2;"/>
              <path d="M252.81,237.9c-8.79-5.03-19.08-7.04-29.21-6.96-7.7.06-15.6,1.38-22.35,4.99-4.36,10.91-4.55,22.67-1.18,31.94,6.22,1.36,12.11,4.32,17.51,7.78,5.62,3.59,10.71,8.17,16.32,11.66,3.76,2.34,8.8,4.25,13.82,4.94,3.71-1.79,7.54-4.05,10.93-6.81,9.27-7.57,2.68-20.18,11.16-28.88-3.32-7.84-9.57-14.39-17-18.65Z" style="fill: #f3b57b; isolation: isolate; opacity: .4;"/>
            </g>
          </g>
          <g id="w" data-name="Paw">
            <path d="M180.57,344.93c2.06-1,3.49-1.87,4.98-2.94,3.97-2.87,6.33-4.6,6.01-15.19-.59-19.91-11.62-83.58-11.62-83.58l-35.6-14.95c9.08,25.37,27.84,75.45,27.77,98.09,0-.62-4.89-.78-5.46-.75-2.85.18-5.01,1.19-6.82,3.36-1.74,2.08-4.47,6.27-3.25,9.13.81,1.9,3.22,2.59,5.1,2.35.24-.03.51-.07.7.08.13.11.19.28.24.44.62,1.79,2.11,3.25,3.91,3.84,1.8.59,3.86.3,5.42-.78-.23.16,1.56,1.61,1.75,1.7.72.35,1.55.42,2.34.38,1.59-.08,3.09-.5,4.52-1.19Z" style="fill: #ac6dad;"/>
            <path d="M180.57,344.93c2.06-1,3.49-1.87,4.98-2.94,3.97-2.87,6.33-4.6,6.01-15.19-.59-19.91-11.62-83.58-11.62-83.58l-35.6-14.95c9.08,25.37,27.84,75.45,27.77,98.09,0-.62-4.89-.78-5.46-.75-2.85.18-5.01,1.19-6.82,3.36-1.74,2.08-4.47,6.27-3.25,9.13.81,1.9,3.22,2.59,5.1,2.35.24-.03.51-.07.7.08.13.11.19.28.24.44.62,1.79,2.11,3.25,3.91,3.84,1.8.59,3.86.3,5.42-.78-.23.16,1.56,1.61,1.75,1.7.72.35,1.55.42,2.34.38,1.59-.08,3.09-.5,4.52-1.19Z" style="fill: #e4a974; isolation: isolate;"/>
            <path d="M182.26,257.04c-1.36-8.3-2.32-13.82-2.32-13.82l-35.6-14.95c1.62,4.52,3.55,9.83,5.62,15.63.5-1.19.75-2.48.73-3.77,1.3,4.05,2.53,6.46,4.05,9.13,2.25,3.95,7.84,10.17,9.44,8.87,1.09-.89.94-2.51.8-3.64,3.65,4.42,6.99,9.27,12.3,11.41.47.19.97.36,1.47.3,1.25-.16,1.85-1.58,2.18-2.8.56-2.1,1-4.22,1.33-6.36Z" style="fill: #ac6dad;"/>
            <path d="M182.26,257.04c-1.36-8.3-2.32-13.82-2.32-13.82l-35.6-14.95c1.62,4.52,3.55,9.83,5.62,15.63.5-1.19.75-2.48.73-3.77,1.3,4.05,2.53,6.46,4.05,9.13,2.25,3.95,7.84,10.17,9.44,8.87,1.09-.89.94-2.51.8-3.64,3.65,4.42,6.99,9.27,12.3,11.41.47.19.97.36,1.47.3,1.25-.16,1.85-1.58,2.18-2.8.56-2.1,1-4.22,1.33-6.36Z" style="fill: #e4a974; isolation: isolate;"/>
            <path d="M179.94,243.23l-22.07-9.27-5.97-.55c3.91,4.52,7.85,9.09,10.73,14.33,2.5,4.55,4.14,9.51,5.66,14.48,8.28,27.05,13.37,55.64,9.55,83.65.94-.2,1.85-.51,2.73-.94,2.06-1,3.49-1.87,4.98-2.94,3.97-2.87,6.33-4.6,6.01-15.19-.59-19.91-11.62-83.58-11.62-83.58Z" style="fill: #010101; isolation: isolate; opacity: .2;"/>
            <path d="M179.94,243.23l-22.07-9.27-5.97-.55c3.91,4.52,7.85,9.09,10.73,14.33,2.5,4.55,4.14,9.51,5.66,14.48,8.28,27.05,13.37,55.64,9.55,83.65.94-.2,1.85-.51,2.73-.94,2.06-1,3.49-1.87,4.98-2.94,3.97-2.87,6.33-4.6,6.01-15.19-.59-19.91-11.62-83.58-11.62-83.58Z" style="fill: #dc9343; isolation: isolate; opacity: .4;"/>
          </g>
          <g id="x" data-name="Body">
            <path d="M288.45,193.7c12.86,6.65,24.09,18.02,28.87,34.57,3.32,11.5,1.43,28.37-4.16,38.95-10.27,19.45-37.79,26.64-58.96,23.44-10.02-1.52-20.09-6.66-28.25-12.69-4.09-3.02-9.53-6.35-13.81-9.09-7.08-4.53-11.04-5.48-11.04-5.48l-1.64,8.72c-1.08-1.78-1.78-4.05-2.77-5.9-2.07,6.2-1.03,13.42-4.13,19.62-2.07,5.16-4.13-4.13-7.23-5.16,0,2.07-1.03,6.2-2.07,5.16-6.2-2.07-3.1-14.46-12.39-14.46-.04,0-.08.01-.13.01.24-7.96.19-15.09-.24-20.22-7-3.11-15.17-10.04-25.71-22.48-9.12-10.76-23.85-35.97-26.74-55.21-1.31-8.74,2.4-25.63,16.86-64.45,7.78-20.86,31.58,25.16,52.23,24.77,4.74-.09,10.1-2.25,12.73-6.21,20.13,15.34,21.62,30.96,41.99,45.98,10.78,7.94,24.98,8.95,46.59,20.12Z" style="fill: #ac6dad;"/>
            <path d="M288.45,193.7c12.86,6.65,24.09,18.02,28.87,34.57,3.32,11.5,1.43,28.37-4.16,38.95-10.27,19.45-37.79,26.64-58.96,23.44-10.02-1.52-20.09-6.66-28.25-12.69-4.09-3.02-9.53-6.35-13.81-9.09-7.08-4.53-11.04-5.48-11.04-5.48l-1.64,8.72c-1.08-1.78-1.78-4.05-2.77-5.9-2.07,6.2-1.03,13.42-4.13,19.62-2.07,5.16-4.13-4.13-7.23-5.16,0,2.07-1.03,6.2-2.07,5.16-6.2-2.07-3.1-14.46-12.39-14.46-.04,0-.08.01-.13.01.24-7.96.19-15.09-.24-20.22-7-3.11-15.17-10.04-25.71-22.48-9.12-10.76-23.85-35.97-26.74-55.21-1.31-8.74,2.4-25.63,16.86-64.45,7.78-20.86,31.58,25.16,52.23,24.77,4.74-.09,10.1-2.25,12.73-6.21,20.13,15.34,21.62,30.96,41.99,45.98,10.78,7.94,24.98,8.95,46.59,20.12Z" style="fill: #faa64c; isolation: isolate;"/>
            <path d="M225.94,277.97c7.86,5.81,17.51,10.8,27.17,12.51.09-1.85.18-3.71.27-5.56.27-5.62.55-11.25.83-16.87.12-2.45.55-5.09.37-7.53-.23-3.24-3.95-6.57-6.35-8.47-2.73-2.16-5.81-3.82-8.91-5.4-2.95-1.51-6.03-2.99-9.34-3.17,1.07-.38,2.2-.8,2.87-1.71-4.7-2.18-9.97-3.06-15.13-2.64-3.42.28-6.87,1.42-9.63,3.5-1.52,1.14-2.56,2.38-3.31,4.11-.85,1.97-1.39,4.07-1.77,6.18,0,0-1.91,10.48-1.91,10.48,0,0,3.96.95,11.04,5.48,4.28,2.74,9.72,6.06,13.81,9.08Z" style="fill: #f1f0f0;"/>
            <path d="M196.68,266.22c1.04,1.92,1.95,3.89,2.77,5.9,1.56-8.18,2.85-15.31,3.55-19.2-.57-1.49-1.57-1.75-3.07.34-1.5,2.09-3.01,4.19-4.51,6.28-.61-.74-.63-1.79-.88-2.72-.25-.93-1.04-1.92-1.98-1.71-.61.14-1,.72-1.32,1.27-2.68,4.64-4.77,9.62-6.19,14.79-.11.41-.28.88-.68,1-.6.18-1.05-.54-1.26-1.13-.38-1.04-2.04-8.43-3.68-8.11-.38.08-.61.45-.8.8-.68,1.26-1.35,2.51-2.03,3.77-1.48-2.37-2.96-4.74-4.44-7.11-.34-.54-.79-1.13-1.34-1.34.06,3.73.02,7.9-.1,12.35.04,0,.08-.01.13-.01,9.29,0,6.2,12.39,12.39,14.46,1.03,1.03,2.07-3.1,2.07-5.16,3.1,1.03,5.16,10.33,7.23,5.16,3.1-6.19,2.07-13.42,4.13-19.62Z" style="fill: #fff; isolation: isolate; opacity: .2;"/>
            <path d="M164.26,247.47c-4.21-10.56-7.57-21.64-7.63-32.99-.04-7.89,1.51-15.7,3.55-23.32,1.95-7.27,3.3-15.02,5.74-22.09,2.54-7.34,4.18-14.99,4.84-22.73-10.53,9.33-24.53,14-32.8,25.69-2.1,2.97-3.85,6.2-5.17,9.59,2.07-1.38,4.2-2.66,6.38-3.84-4.59,6.4-6.73,14.5-5.92,22.33,1.06-.49,2.09-1.07,3.05-1.73-.79,3.71-.79,7.6,0,11.31.96-.09,1.83-.79,2.11-1.71-.34,5.06.31,10.17,1.83,15,1.44,2,2.82,3.79,4.09,5.29,7.77,9.17,14.25,15.34,19.93,19.2Z" style="fill: #fff; isolation: isolate; opacity: .2;"/>
            <path d="M155.11,237.83c1.24,2.19,2.7,4.16,4.41,5.78,3.1,2.92,6.64,5.38,10.53,7.14-2.6-9.24,8.26-15.86,14.45-20.45,4.2-3.11,9.6-7.56,9.29-13.35-2.52,1.43-5.29,2.43-8.15,2.93,5.12-5.69,10.36-11.57,12.94-18.78.59-1.64,1.03-3.45.49-5.1-4.51,4.47-10.07,7.88-16.1,9.89,2.75-7.68,7.9-14.23,11.75-21.42,3.67-6.87,6.13-14.38,7.29-22.07.59-3.91.84-7.87.75-11.82-.07-3.22.74-7.52-3.36-8.04-6.45-.82-13.3,2.06-19.18,4.42-6.09,2.44-11.99,5.65-16.64,10.36-2.73,2.76-4.97,5.96-7.12,9.2-5.3,7.97-10.3,16.57-11.24,26.1,3-3.02,6.44-5.6,10.18-7.64-6.22,10.54-6.58,24.79-6.25,30.01.45,7.08,2.1,16.02,5.95,22.84Z" style="fill: #f1f0f0;"/>
            <path d="M215.58,143.54c-2.22-.38-4.54-.4-6.78-.2-6.03.55-11.82,2.53-17.53,4.54-5.71,2.01-11.46,4.08-17.47,4.82-3.31.41-6.62.3-9.89-.47-1.68-.4-3.33-.93-4.96-1.51-.82-.3-1.63-.61-2.44-.93-.3-.12-2.02-.58-2.1-.85,1.12,3.44,3.59,6.42,6.77,8.14,1.15.62,2.38,1.09,3.61,1.51,5.69,1.96,11.19,2.3,16.72-.26,3.72-1.73,7.45-3.22,11.49-3.95,2.15-.39,4.74-.6,6.92-.48,2.2.13,4.79.76,6.96,1.09,3.68.55,7.06,1.48,10.66.16,1.62-.59,3.13-1.63,4.27-2.95-2.04-2.89-4.04-5.78-6.24-8.67Z" style="fill: #010101; isolation: isolate; opacity: .2;"/>
          </g>
          <g id="y" data-name="head">
            <g>
              <path d="M177.75,87.05c3.64-11.29,10.96-12.86,13.51-20.87,2.55-8.01,4.73-25.49,17.48-23.31s15.71,43.71,3.5,63.67l-34.48-19.49Z" style="fill: #faa64c;"/>
              <path d="M177.75,87.05c3.64-11.29,10.96-12.86,13.51-20.87,2.55-8.01,4.73-25.49,17.48-23.31s15.71,43.71,3.5,63.67l-34.48-19.49Z" style="fill: #fff; isolation: isolate; opacity: .3;"/>
              <g>
                <path d="M215.17,100.63c8.65-21.25,5.15-55.77-6.44-57.76-8.58-1.47-12.37,5.97-14.71,13.43,3.07-8.74,10.72-14.44,16.13-10.61,6.86,4.85,12.64,30.95,5.02,54.94Z" style="fill: #ac6dad;"/>
                <path d="M215.17,100.63c8.65-21.25,5.15-55.77-6.44-57.76-8.58-1.47-12.37,5.97-14.71,13.43,3.07-8.74,10.72-14.44,16.13-10.61,6.86,4.85,12.64,30.95,5.02,54.94Z" style="fill: #fff; isolation: isolate; opacity: .85;"/>
              </g>
            </g>
            <path d="M216.49,113.13c1.14,2.91,1.49,5.67.91,9.02-.9,5.24-4.53,11.48-6.87,16.29-2.3,4.74-3.79,7.64-7.87,10.46-6.68-.71-20.58.54-28.03,9.47-22.77,0-41.22-18.46-41.22-41.22,0-6.79,3.18-12.86,6.08-18.12,6.84-12.37,19.16-19.96,35.14-19.96,21,0,32.97,15.25,41.16,32.46.26.54.49,1.07.69,1.59Z" style="fill: #faa64c;"/>
            <path d="M216.49,113.13c1.14,2.91,1.49,5.67.91,9.02-.9,5.24-4.53,11.48-6.87,16.29-2.3,4.74-3.79,7.64-7.87,10.46-8.5-.71-21.14,1.18-28.03,9.47-22.77,0-41.22-18.46-41.22-41.22,0-6.79,3.18-12.86,6.08-18.12,6.84-12.37,19.16-19.96,35.14-19.96,21,0,32.97,15.25,41.16,32.46.26.54.49,1.07.69,1.59Z" style="fill: #faa64c; isolation: isolate;"/>
            <path d="M214.29,116.14c-.65.32-1.26.75-1.77,1.27-2.11,2.17-2.69,6.21-2.22,9.08.34,2.06,1.41,4.07,3.16,5.21.11.07.23.14.35.21,1.59-3.27,3.06-6.69,3.59-9.76.42-2.45.34-4.58-.17-6.69-.98-.01-2.01.22-2.94.68Z" style="fill: #f5f6f6;"/>
            <path d="M213.32,112.06c.1-.12.14-.49-.06-.55-.41-.14-.88.34-1.15.6-.52.5-.78,1.19-.91,1.88-.05.27-.1.54-.14.81-.07.45-.11.9-.07,1.35,0,.12.14.26.19.08.24-.9.36-1.87.85-2.67.19-.31.41-.59.65-.86.2-.23.46-.41.65-.65ZM215.7,112.53c-.79.09-1.58.4-2.12,1-.28.31-.54.61-.75.97-.19.32-.34.66-.44,1.02,0,.03.04.12.06.07.15-.31.34-.6.57-.86.21-.23.47-.48.75-.63.3-.16.6-.33.91-.47.33-.16.68-.26,1.04-.32.33-.06.35-.81-.03-.76Z" style="fill: #dc9343; isolation: isolate; opacity: .5;"/>
            <g>
              <path d="M212.66,119.53c.42-.59.98-1.07,1.66-1.32.68-.25,1.63-.48,1.94.37.06.17.08.35.1.54.04.47.07,1,0,1.47-.24,1.89-.58,3.79-1.34,5.54-.22.51-.69,1.36-1.33.76-.39-.37-.67-.83-.91-1.3-.65-1.26-1.07-2.7-.87-4.11.09-.69.36-1.38.76-1.95Z" style="fill: #010101;"/>
              <path d="M214.61,119.2c-.26-.27-.56-.5-.88-.69-.42.26-.78.61-1.07,1.02-.4.57-.67,1.25-.76,1.95-.19,1.41.22,2.85.87,4.11.24.47.53.93.91,1.3.07.07.14.11.2.14.02,0,.04-.01.05-.02.53-.42.98-.95,1.32-1.54.31-.83.54-1.68.72-2.55,0-.04,0-.07,0-.11,0-1.28-.48-2.66-1.37-3.62Z" style="fill: #384850;"/>
              <path d="M213.89,122.21c-.04-.9-.22-1.79-.57-2.62-.04-.08-.09-.16-.13-.24-.12.09-.23.18-.35.29-.42,1.42.11,3.78.76,5.2.51-.54.31-2.15.29-2.64Z" style="fill: #010101;"/>
              <path d="M214.61,120.6c.12.5-.2,1-.7,1.12-.5.12-1-.2-1.12-.7-.12-.5.2-1,.7-1.12.5-.12,1,.2,1.12.7Z" style="fill: #fff;"/>
            </g>
            <path d="M227.62,139.31c-.26,3.18-1.14,9.43-5.11,9.56-1.89,4.39-8.04,5.7-15.21,4.06-6.54-1.49-11.25-1.79-18.66.32-7.41,2.12-11.29,6.35-14.07,5.29-2.77-1.05-1.51-8.51-1.51-8.51-6.54.39-8.12,2.87-12.51,2.29-4.71-.61-1.65-12.02,4.71-16.71,2.64-1.95,5.15-2.99,9.22-3.58,3.34-.49,7.71-.65,14.08-.76,5.3-.09,7.38-5.02,10.41-9.17,2.37-3.25,5.32-6,10.85-5.56,1.2,5.17,4.32,11.31,10.42,15.02.74.46,1.41.86,2.03,1.24,4.41,2.71,5.58,3.72,5.34,6.5Z" style="fill: #faa64c;"/>
            <path d="M227.62,139.31c-.26,3.18-1.14,9.43-5.11,9.56-1.89,4.39-8.04,5.7-15.21,4.06-6.54-1.49-11.25-1.79-18.66.32-7.41,2.12-11.29,6.35-14.07,5.29-2.77-1.05-1.51-8.51-1.51-8.51-6.54.39-8.12,2.87-12.51,2.29-4.71-.61-1.65-12.02,4.71-16.71,2.64-1.95,5.15-2.99,9.22-3.58,3.34-.49,7.71-.65,14.08-.76,5.3-.09,7.38-5.02,10.41-9.17,2.37-3.25,5.32-6,10.85-5.56,1.2,5.17,4.32,11.31,10.42,15.02.74.46,1.41.86,2.03,1.24,4.41,2.71,5.58,3.72,5.34,6.5Z" style="fill: #dc9343; isolation: isolate;"/>
            <path d="M227.62,139.31c-.26,3.18-1.14,9.43-5.11,9.56-1.89,4.39-8.04,5.7-15.21,4.06-6.54-1.49-11.25-1.79-18.66.32-7.41,2.12-11.29,6.35-14.07,5.29-2.77-1.05-1.51-8.51-1.51-8.51-6.54.39-8.12,2.87-12.51,2.29-4.71-.61-1.65-12.02,4.71-16.71,2.64-1.95,5.15-2.99,9.22-3.58-.08,0-.15.01-.24.01-1.2,0-2.66-.6-3.6-1.27-.32-.24-.63-.53-.67-.92-.05-.46.25-.86.57-1.19,1.59-1.66,3.74-2.78,6.01-3.14-1.2-.01-2.08-1.28-2.03-2.47.04-1.2.77-2.25,1.6-3.1,6.3-6.41,17.21-4.05,22.86,2.15.88.95,1.63,1.98,2.22,3.09,1.55,2.95,2.61,6.32,3.7,9.45.95,2.69,3.6,5.34,6.66,4.69.74-.16,1.44-.6,1.8-1.25.35-.63.38-1.41.21-2.12-.16-.71-.5-1.36-.83-2.01-.56-1.1-1.12-2.19-1.68-3.29-.17-.33-.34-.68-.31-1.05.06-.7.88-1.13,1.57-1.05.7.07,1.3.5,1.89.88,2.52,1.64,5.21,2.51,8.07,3.37,4.41,2.71,5.58,3.72,5.34,6.5Z" style="fill: #f5f6f6;"/>
            <g>
              <path d="M225.41,147.23c-2.09.8-2.2-1.27-2.2-1.27l-.7.26c-.84,2.02-3.8,3.4-7.85,3.59s-7.25-2.22-12.08-3.85-9.93-.18-9.93-.18c0,0,2.39-.57,6.31.08s8.12,4.02,13.09,5,8.1-.27,10.47-1.99c1.25-.04,2.19-.69,2.9-1.65Z" style="fill: #384850;"/>
              <path d="M222.08,146.36c.49.2,1.01.23,1.52-.1.28-.19.5-.46.7-.74,1.08-1.59,1.59-3.74,1.58-5.63,0-.87-.19-2.02-1.02-2.49-.35-.2-.78-.25-1.18-.25-1.93-.01-3.94.76-5.49,1.89-.37.27-.74.59-.92,1.01-.12.28-.15.6-.15.9.01,1.04.42,2.08,1.13,2.85.33.36.75.68,1.24.71.13,0,.29-.03.32-.16.02-.08-.03-.16-.08-.22-.21-.28-.5-.53-.57-.88-.01-.07-.02-.15.03-.21.04-.04.09-.05.14-.06.4-.05.71.34.86.71.13.32.2.66.21,1.01,0,.1,0,.21.04.31.04.11.12.19.2.27.4.4.91.85,1.46,1.08Z" style="fill: #273339;"/>
            </g>
            <g>
              <path d="M189.31,119.56c.26.03.52.07.77.12,1.25.25,2.44.87,3.43,1.69,1.01.84,1.66,1.92,2.36,3.01.81,1.27,1.4,2.65,1.97,4.04.09.21.17.47.03.66-.21.29-.68.09-.97-.12-1.01-.71-2.21-.72-3.38-.41-.9.24-1.77.64-2.7.75-.97.12-1.9.22-2.87.01-.12-.02-.23-.05-.35-.09-1.35-.39-2.26-1.24-3.2-2.23-.47-.5-.72-1.2-.95-1.84-.26-.71-.46-1.43-.65-2.15-.17-.6-.52-1.53-.08-2.09.17-.21.4-.35.64-.48.87-.45,1.84-.7,2.81-.82,1.05-.13,2.1-.18,3.14-.06Z" style="fill: #273339;"/>
              <path d="M193.13,121.09c-.91-.67-1.95-1.18-3.04-1.4-.26-.05-.51-.09-.77-.12-.51-.06-1.02-.07-1.53-.06-2.3.61-4.01,2.69-4.01,5.18,0,.72.15,1.41.4,2.04.07.1.14.2.22.28.94.99,1.85,1.84,3.2,2.23.11.03.23.06.35.09.97.21,1.9.1,2.87-.01.58-.07,1.13-.25,1.68-.43,1.24-.99,2.04-2.49,2.04-4.19,0-1.39-.54-2.64-1.4-3.59Z" style="fill: #384850;"/>
              <path d="M189.31,119.56c-.51-.06-1.02-.07-1.53-.06-.06.01-.11.04-.17.06.78.88,1.31,1.98,1.65,3.12.42,1.42.58,2.9.8,4.37.02.12.04.26.11.36.07.11.2.19.32.15.1-.02.17-.11.23-.19,1.29-1.69,1.45-3.77,1.43-5.84,0-.36-.04-.77-.15-1.14-.61-.32-1.25-.58-1.93-.71-.25-.05-.51-.09-.77-.12Z" style="fill: #010101;"/>
              <path d="M193.33,122.85c0,.62-.5,1.12-1.12,1.12s-1.12-.5-1.12-1.12.5-1.12,1.12-1.12c.62,0,1.12.5,1.12,1.12Z" style="fill: #fff;"/>
            </g>
            <g>
              <path d="M214.32,143.91c0-.15-.2-.32-.3-.4-.39-.3-.84-.47-1.34-.44-.24.01-.31.39-.13.52.22.15.49.22.74.28.1.02.19.05.28.07.16.04.53.22.67.08.04-.04.06-.08.06-.12Z" style="fill: #465b65;"/>
              <path d="M214.32,147.13c0-.15-.2-.32-.3-.4-.39-.3-.84-.47-1.34-.44-.24.01-.31.39-.13.52.22.15.49.22.74.28.1.02.19.05.28.07.16.04.53.22.67.08.04-.04.06-.08.06-.12Z" style="fill: #465b65;"/>
              <path d="M210.08,145.18s.07-.08.07-.13c0-.04-.02-.08-.05-.12-.3-.45-.95-.7-1.46-.72-.22,0-.27.24-.24.41.04.26.24.29.47.35.3.07.6.14.89.22.08.02.16.04.24.02.03,0,.06-.02.08-.04Z" style="fill: #465b65;"/>
            </g>
            <path d="M194.92,116.59c-.41-.45-.86-.79-1.34-1.15-.93-.7-2.13-.91-3.27-.82-.55.05-.3,1.1.17,1.09.53-.02,1.05.03,1.57.16.48.12.95.27,1.42.41.43.13.88.41,1.24.68.4.3.75.66,1.05,1.06.05.06.09-.07.07-.11-.24-.48-.55-.92-.91-1.31ZM199.35,114.92c-.1-.39-.22-.8-.38-1.18-.12-.31-.26-.6-.43-.87-.15-.26-.51-.61-.82-.36-.56.44.29,1.21.51,1.57.25.42.46.86.63,1.31.09.24.14.51.22.76.04.11.08.32.18.39.2.14.25-.06.25-.24,0-.46-.06-.93-.18-1.38ZM197.09,115.42c-.38-.94-.95-1.85-1.82-2.41-.45-.29-1.26-.84-1.8-.53-.26.15-.1.65.07.8.33.28.75.46,1.09.73.41.32.81.65,1.16,1.03.93.99,1.37,2.34,1.96,3.54.12.24.27,0,.25-.17-.08-.65-.26-1.28-.48-1.89-.13-.38-.28-.74-.43-1.11Z" style="fill: #ac6dad; isolation: isolate; opacity: .5;"/>
            <g>
              <path d="M177.75,106.53c-2.23,1.15-6.12,3.29-10.14,4.01-9.61,1.71-15.59,2.35-26.91-1.76-5.94-2.15-10.62-6.68-14.32-12.97-.01-.01-.01-.04-.03-.05-3.33-5.67-5.86-12.8-7.82-20.92-4.11-17.15,2.24-35.86,7.78-35.84,6.47.03,8.92,8.34,14.45,15.98,1.52,2.1,3.27,4.15,5.41,5.97,11.22,9.55,14.82,21.51,19.98,26.65,5.84,5.82,8.02,4.94,11.33,10.19,1.68,2.68,1.75,4.42.26,8.75Z" style="fill: #dc9343;"/>
              <path d="M177.75,106.53c-2.23,1.15-6.12,3.29-10.14,4.01-9.61,1.71-15.59,2.35-26.91-1.76-5.94-2.15-10.62-6.68-14.32-12.97-.01-.01-.01-.04-.03-.05-3.33-5.67-5.86-12.8-7.82-20.92-4.11-17.15,2.24-35.86,7.78-35.84,6.47.03,8.92,8.34,14.45,15.98,1.52,2.1,3.27,4.15,5.41,5.97,11.22,9.55,14.82,21.51,19.98,26.65,5.84,5.82,8.02,4.94,11.33,10.19,1.68,2.68,1.75,4.42.26,8.75Z" style="fill: #fff; isolation: isolate; opacity: .3;"/>
              <path d="M177.75,106.53c-2.23,1.15-6.12,3.29-10.14,4.01-9.61,1.71-15.59,2.35-26.91-1.76-5.94-2.15-10.62-6.68-14.32-12.97-.01-.01-.01-.04-.03-.05-5.5-12.67-10.61-34.44-5.46-46.54,4.34-10.22,9.3-7.33,12.61-.56,3.29,6.77,9.07,15.53,13.31,19,4.24,3.46,7.7,10.4,9.03,14.68,1.32,4.29,6.43,10.08,10.4,12.88,3.95,2.82,12.67,5.05,11.51,11.31Z" style="fill: #dc9343;"/>
              <path d="M177.75,106.53c-2.23,1.15-6.12,3.29-10.14,4.01-9.61,1.71-15.59,2.35-26.91-1.76-5.94-2.15-10.62-6.68-14.32-12.97-.01-.01-.01-.04-.03-.05-5.5-12.67-10.61-34.44-5.46-46.54,4.34-10.22,9.3-7.33,12.61-.56,3.29,6.77,9.07,15.53,13.31,19,4.24,3.46,7.7,10.4,9.03,14.68,1.32,4.29,6.43,10.08,10.4,12.88,3.95,2.82,12.67,5.05,11.51,11.31Z" style="fill: #fff; isolation: isolate; opacity: .5;"/>
              <path d="M134.59,79.51c.94,1.66,2.29,3.08,3.9,4.11-1.7-.33-3.72-.57-4.9.69-.48.51-.73,1.2-.81,1.89-.23,2.11,1.06,4.08,2.47,5.67,2.37,2.68,5.23,4.93,8.4,6.59-.84.22-1.73,0-2.59.09s-1.82.68-1.77,1.54c.03.51.4.92.76,1.28,2.85,2.77,6.66,4.54,10.61,4.91-.61.26-1.35.86-1.01,1.44.11.19.32.3.51.4,4.57,2.31,10.02,2.33,15,1.15,1.54-.37,3.29-1.07,3.69-2.6.44-1.66-.97-3.2-2.26-4.34-3.53-3.15-7.1-6.27-10.26-9.78-2.9-3.22-5.45-6.76-8.41-9.93-2.79-2.99-5.92-5.12-9.41-7.19-1.01-.6-2.38-1.6-3.58-.93-1.82,1.01-1.15,3.62-.35,5.03Z" style="fill: #ac6dad; isolation: isolate; opacity: .2;"/>
              <path d="M136.75,56.53c-.45,3.25.08,5.87,1.07,7.61,2.17,3.84,4.73,7.45,7.64,10.76-2.3-1.27-4.71-2.33-7.2-3.16-.99-.33-2.18-.6-3.02.02-.4.3-.65.77-.76,1.26-.32,1.44.5,2.87,1.36,4.07,2.64,3.69,5.96,6.89,9.73,9.41-1.82-.01-3.54-.81-5.35-.97-1.81-.16-3.99.68-4.29,2.47-.27,1.65,1.16,3.04,2.47,4.07,4.43,3.49,9.41,6.82,15.04,7.17-1.88.05-3.75.23-5.61.52-.73.12-1.68.64-1.37,1.31.12.26.41.4.68.52,4.28,1.8,8.93,2.69,13.57,2.59-1.35.74-2.71,1.48-4.07,2.22,0,0,2.74,1.08,3.05,1.16.78.2,1.54.5,2.32.69,2.6.64,5.6.46,8.24.19,1.81-.19,5.75-.6,6.97-2.22,1.57-2.09-.92-5.23-2.37-6.61-3.11-2.98-7.05-4.82-10.56-7.25-4-2.78-5.39-5.74-7.2-10.16-1.3-3.17-2.95-6.18-4.54-9.21-.7-1.34-1.41-2.69-2.37-3.86-1.13-1.37-2.58-2.44-4.02-3.5-3.25-2.39-9.01-12.35-9.46-9.1Z" style="fill: #dc9343;"/>
              <path d="M136.75,56.53c-.45,3.25.08,5.87,1.07,7.61,2.17,3.84,4.73,7.45,7.64,10.76-2.3-1.27-4.71-2.33-7.2-3.16-.99-.33-2.18-.6-3.02.02-.4.3-.65.77-.76,1.26-.32,1.44.5,2.87,1.36,4.07,2.64,3.69,5.96,6.89,9.73,9.41-1.82-.01-3.54-.81-5.35-.97-1.81-.16-3.99.68-4.29,2.47-.27,1.65,1.16,3.04,2.47,4.07,4.43,3.49,9.41,6.82,15.04,7.17-1.88.05-3.75.23-5.61.52-.73.12-1.68.64-1.37,1.31.12.26.41.4.68.52,4.28,1.8,8.93,2.69,13.57,2.59-1.35.74-2.71,1.48-4.07,2.22,0,0,2.74,1.08,3.05,1.16.78.2,1.54.5,2.32.69,2.6.64,5.6.46,8.24.19,1.81-.19,5.75-.6,6.97-2.22,1.57-2.09-.92-5.23-2.37-6.61-3.11-2.98-7.05-4.82-10.56-7.25-4-2.78-5.39-5.74-7.2-10.16-1.3-3.17-2.95-6.18-4.54-9.21-.7-1.34-1.41-2.69-2.37-3.86-1.13-1.37-2.58-2.44-4.02-3.5-3.25-2.39-9.01-12.35-9.46-9.1Z" style="fill: #fff; isolation: isolate; opacity: .7;"/>
              <path d="M177.75,106.53c1.17-6.25-7.55-8.49-11.51-11.31-3.97-2.8-9.08-8.59-10.4-12.88-1.32-4.28-4.79-11.22-9.03-14.68-4.24-3.48-10.01-12.23-13.31-19-3.31-6.77-8.26-9.66-12.61.56-5.15,12.1-.04,33.87,5.46,46.54-3.33-5.67-5.86-12.8-7.82-20.92-4.11-17.15,2.24-35.86,7.78-35.84,6.47.03,8.92,8.34,14.45,15.98,2.45,4.36,5.37,8.56,8.42,11.36,5.56,5.11,6.49,10.4,9.62,16.34s6.76,8.45,13.19,13.41c6.43,4.95,6.89,5.14,5.75,10.44Z" style="fill: #ac6dad;"/>
              <path d="M177.75,106.53c1.17-6.25-7.55-8.49-11.51-11.31-3.97-2.8-9.08-8.59-10.4-12.88-1.32-4.28-4.79-11.22-9.03-14.68-4.24-3.48-10.01-12.23-13.31-19-3.31-6.77-8.26-9.66-12.61.56-5.15,12.1-.04,33.87,5.46,46.54-3.33-5.67-5.86-12.8-7.82-20.92-4.11-17.15,2.24-35.86,7.78-35.84,6.47.03,8.92,8.34,14.45,15.98,2.45,4.36,5.37,8.56,8.42,11.36,5.56,5.11,6.49,10.4,9.62,16.34s6.76,8.45,13.19,13.41c6.43,4.95,6.89,5.14,5.75,10.44Z" style="fill: #fff; isolation: isolate; opacity: .85;"/>
            </g>
          </g>
          <g id="z" data-name="Paw">
            <path d="M192.55,285.84c-2.07,5.16-4.13-4.13-7.23-5.16,0,2.07-1.03,6.2-2.07,5.16-6.2-2.07-3.1-14.46-12.39-14.46-.04,0-.09,0-.13.01-.69,24-1.01,54.28-5.62,64.42-8.63-5.4-11.64-2.27-13.71-.07-1.98,2.11-2.86,3.79-3.49,5.74-.62,1.95-.64,3.81.46,5.06,1.05,1.19,2.71,1.72,4.3,1.67-.13,1.89,1.62,3.63,3.22,4.31,1.7.72,3.74.6,5.34-.33.66,1.37,1.72,2.07,3.14,2.53,2.11.69,4.59-.09,6.3-.69,2.16-.75,4.15-1.71,5.74-2.61,4.27-2.39,6.35-4.52,8.36-13.04,3.07-13.05,5.89-24.52,8.14-34.31,2.12-9.22,4.54-21.46,6.54-31.99-.82-2-1.74-3.98-2.77-5.9-2.07,6.2-1.03,13.42-4.13,19.62Z" style="fill: #fdc382;"/>
            <path d="M192.55,285.84c-2.07,5.16-4.13-4.13-7.23-5.16,0,2.07-1.03,6.2-2.07,5.16-6.2-2.07-3.1-14.46-12.39-14.46-.04,0-.09,0-.13.01-.69,24-1.01,54.28-5.62,64.42-8.63-5.4-11.64-2.27-13.71-.07-1.98,2.11-2.86,3.79-3.49,5.74-.62,1.95-.64,3.81.46,5.06,1.05,1.19,2.71,1.72,4.3,1.67-.13,1.89,1.62,3.63,3.22,4.31,1.7.72,3.74.6,5.34-.33.66,1.37,1.72,2.07,3.14,2.53,2.11.69,4.59-.09,6.3-.69,2.16-.75,4.15-1.71,5.74-2.61,4.27-2.39,6.35-4.52,8.36-13.04,3.07-13.05,5.89-24.52,8.14-34.31,2.12-9.22,4.54-21.46,6.54-31.99-.82-2-1.74-3.98-2.77-5.9-2.07,6.2-1.03,13.42-4.13,19.62Z" style="fill: #fdc382; isolation: isolate; opacity: .6;"/>
            <path d="M165.76,334.18c-.21.59-.42,1.15-.64,1.64,2.97,1.65,5.47,3.56,6.92,5.01-1.9-3.37-4.47-5.48-6.28-6.65ZM152.67,348.23c0-3.42,2.65-13.12,8.18-11.18-3.29-1.53-8.48-1.5-8.18,11.18ZM161.24,352.22c-1.04-5.22-.39-13.08,4.98-11.39-3.39-1.88-8.95-1.12-4.98,11.39Z" style="fill: #fdc382; isolation: isolate; opacity: .2;"/>
          </g>
          <g id="aa" data-name="Paw">
            <g id="ab" data-name="Paw">
              <path d="M285.63,303.18c-2.52-4.96-20.25-6.97-30.85-4.12-9.12,7.56-11.2,9.27-18.57,13.63-8.02-2.86-12.49.02-13.99,1.88-1.88,2.33-2.43,5.95-1.99,9.09.27,1.95,1.83,3.88,3.8,3.84.18,0,.37-.02.54.04.22.08.37.28.51.46,1.89,2.35,5.34,3.31,8.18,2.27.18-.07.37-.14.56-.15.3-.01.59.14.86.27,2.37,1.12,5.35.71,7.58-.65,2.74-1.67,4.21-2.74,7.21-4.78,4.16-2.83,7.59-4.96,11.35-7.39,11.48-7.43,15.63-9.62,24.79-14.38Z" style="fill: #ac6dad;"/>
              <path d="M285.63,303.18c-2.52-4.96-20.25-6.97-30.85-4.12-9.12,7.56-11.2,9.27-18.57,13.63-8.02-2.86-12.49.02-13.99,1.88-1.88,2.33-2.43,5.95-1.99,9.09.27,1.95,1.83,3.88,3.8,3.84.18,0,.37-.02.54.04.22.08.37.28.51.46,1.89,2.35,5.34,3.31,8.18,2.27.18-.07.37-.14.56-.15.3-.01.59.14.86.27,2.37,1.12,5.35.71,7.58-.65,2.74-1.67,4.21-2.74,7.21-4.78,4.16-2.83,7.59-4.96,11.35-7.39,11.48-7.43,15.63-9.62,24.79-14.38Z" style="fill: #fdc382; isolation: isolate;"/>
              <path d="M256.54,296.88c-.66.67-1.25,1.39-1.76,2.19,1.81.37,3.68.45,5.52.22-.35,1.25-.61,2.79.35,3.66.4.36.94.52,1.46.64,1.73.4,3.52.51,5.29.34-.16.39.02.85.34,1.12.31.27.73.4,1.14.48,2.66.53,5.39-.35,7.9-1.36,1.63-.65,3.25-1.37,4.7-2.36.68-.46,1.34-1.01,1.76-1.72,1.36-2.3-1.23-4.7-3.04-5.79-4.28-2.59-10.56-3.93-15.43-2.47-1.35.41-.78-.6-2,.11-1.58.92-4.95,3.64-6.23,4.94Z" style="fill: #ac6dad;"/>
              <path d="M256.54,296.88c-.66.67-1.25,1.39-1.76,2.19,1.81.37,3.68.45,5.52.22-.35,1.25-.61,2.79.35,3.66.4.36.94.52,1.46.64,1.73.4,3.52.51,5.29.34-.16.39.02.85.34,1.12.31.27.73.4,1.14.48,2.66.53,5.39-.35,7.9-1.36,1.63-.65,3.25-1.37,4.7-2.36.68-.46,1.34-1.01,1.76-1.72,1.36-2.3-1.23-4.7-3.04-5.79-4.28-2.59-10.56-3.93-15.43-2.47-1.35.41-.78-.6-2,.11-1.58.92-4.95,3.64-6.23,4.94Z" style="fill: #dc9343; isolation: isolate;"/>
              <path d="M238,311.62c-.57.34-1.16.7-1.79,1.08,0,0-.02,0-.03,0,3.28,1.54,5.91,3.74,7.83,5.81-.1-2.02-3.07-4.81-6-6.88ZM224.58,327.54c.23-4.88,1.29-12.06,8.51-12.34-5.23-.45-9.89-1.07-8.51,12.34ZM233.83,330.12c-.42-4.68-.15-10.55,4.93-12.11-3.85-.41-7.84,2.77-4.93,12.11Z" style="fill: #dc9343; isolation: isolate; opacity: .2;"/>
            </g>
            <g>
              <path d="M282.13,215.15c-11.93,1.74-23.38,7.41-31.84,16.15-1.3,1.35-2.28,2.19-3.54,3.56-1.53,1.66-2.94,3.43-4.24,5.27-2.63,3.75-4.77,7.85-6.33,12.16,1.15-.52,2.38-.84,3.63-.94-3.73,6.16-5.23,13.64-4.17,20.76.63-.77,1.29-1.52,1.99-2.23,0,1.55-.4,3.22.01,4.72.44,1.6,1.01,3.24,1.63,4.79,7.22,18.07,29.15,15.55,29.15,15.55,0,0-10.33,7.92-6.12,7.92s9.04-3.24,9.04-3.24c0,0-4.12,8.9-.53,8.45,3.59-.45,16.94-4.2,26.67-12.13,9.35-7.64,2.55-20.41,11.38-29.11,8.83-8.7,2.43-47.19-26.74-51.68Z" style="fill: #faa64c;"/>
              <path d="M282.13,215.15c-11.93,1.74-23.38,7.41-31.84,16.15-1.3,1.35-2.28,2.19-3.54,3.56-1.53,1.66-2.94,3.43-4.24,5.27-2.63,3.75-4.77,7.85-6.33,12.16,1.15-.52,2.38-.84,3.63-.94-3.73,6.16-5.23,13.64-4.17,20.76.63-.77,1.29-1.52,1.99-2.23,0,1.55-.4,3.22.01,4.72.44,1.6,1.01,3.24,1.63,4.79,7.22,18.07,29.15,15.55,29.15,15.55,0,0-10.33,7.92-6.12,7.92s9.04-3.24,9.04-3.24c0,0-4.12,8.9-.53,8.45,3.59-.45,16.94-4.2,26.67-12.13,9.35-7.64,2.55-20.41,11.38-29.11,8.83-8.7,2.43-47.19-26.74-51.68Z" style="fill: #faa64c; isolation: isolate; opacity: .4;"/>
              <g>
                <path d="M250.04,231.34c-.84.72-1.62,1.51-2.47,2.22-.86.72-1.73,1.33-2.5,2.16-1.48,1.57-2.78,3.27-3.99,5.06-2.48,3.68-4.48,7.65-5.83,11.88-.17.52.37,1.68,1.01,1.13.73-.63,1.52-1.1,2.37-1.47-3.13,6.19-4.73,13.36-3.65,20.26.06.39.73,1.09,1.02.49.38-.77.55-1.39,1.04-2.08-.57,6.6,2.2,12.93,7.96,17.35.46.35.48-.23.23-.47-2.54-2.52-4.71-5.16-5.94-8.57-1.15-3.2-1.48-6.69-.82-10.03.08-.41-.38-1.12-.78-.68-.63.68-1.19,1.4-1.72,2.14-.12-3-.01-5.95.61-8.94.75-3.6,2.06-7.09,3.96-10.24.29-.48-.19-1.3-.76-1.18-.9.19-1.73.5-2.52.91,1.13-2.84,2.48-5.59,4.09-8.19,1.14-1.83,2.42-3.55,3.73-5.26,1.61-2.1,3.15-4.14,5.12-5.92.18-.16.1-.76-.15-.55Z" style="fill: #faa64c;"/>
                <path d="M250.04,231.34c-.84.72-1.62,1.51-2.47,2.22-.86.72-1.73,1.33-2.5,2.16-1.48,1.57-2.78,3.27-3.99,5.06-2.48,3.68-4.48,7.65-5.83,11.88-.17.52.37,1.68,1.01,1.13.73-.63,1.52-1.1,2.37-1.47-3.13,6.19-4.73,13.36-3.65,20.26.06.39.73,1.09,1.02.49.38-.77.55-1.39,1.04-2.08-.57,6.6,2.2,12.93,7.96,17.35.46.35.48-.23.23-.47-2.54-2.52-4.71-5.16-5.94-8.57-1.15-3.2-1.48-6.69-.82-10.03.08-.41-.38-1.12-.78-.68-.63.68-1.19,1.4-1.72,2.14-.12-3-.01-5.95.61-8.94.75-3.6,2.06-7.09,3.96-10.24.29-.48-.19-1.3-.76-1.18-.9.19-1.73.5-2.52.91,1.13-2.84,2.48-5.59,4.09-8.19,1.14-1.83,2.42-3.55,3.73-5.26,1.61-2.1,3.15-4.14,5.12-5.92.18-.16.1-.76-.15-.55Z" style="fill: #faa64c; isolation: isolate; opacity: .2;"/>
              </g>
            </g>
          </g>
          <g id="ac" data-name="Tail">
            <path d="M381.21,334.07c1.69-9.98-.46-20.52-4.48-26.95.62,6.88-1.05,15.1-2.6,19.74-1.83,5.55-5.63,10.8-9.48,15.13-7.95,8.9-18.52,15.33-29.68,19.35-12.57,4.52-25.86,6.31-39.24,7.33-.18-.01-.36-.04-.54-.07-3.07-.36-6.31-.72-8.86-2.49,11.99-1.55,23.45-6.9,32.33-15.1-11.77,2.67-24.01,5.04-35.82,2.58,3.28-2.76,6.57-5.5,9.84-8.25-6.42.96-13.02.83-19.4-.37-.61-.11-1.28-.28-1.61-.8-.48-.74,0-1.71.52-2.43,1.99-2.75,4.64-4.95,7.25-7.11,4.63-3.87,9.25-7.72,13.88-11.58-10.64-.51-20.89,3.56-30.69,7.69-2.67,1.14-5.46,2.28-8.35,2.05-.2-2.57.68-5.21,2.39-7.17-5.24-.06-10.48,1.53-14.8,4.48,1.06-7.01,4.73-13.42,9.4-18.75,1.98-2.24,4.14-4.31,6.38-6.26,2.27-1.54,4.58-2.97,6.94-4.35,12.83-7.46,26.75-12.89,40.7-17.97.38-.13.76-.28,1.15-.41,3.83-1.39,7.85-2.87,10.62-5.88,2.78-2.99,3.8-8.05,1.15-11.13-.86-1-1.97-1.68-3.16-2.28,1.73-4.43,2.93-9.54,3.51-14.72,11.24-6.06,27.83-5.54,38.16-1.66-4.43.86-8.78,2.32-12.85,4.3,17.6,3.09,33.35,15.33,40.69,31.63,7.33,16.3,6.04,36.21-3.32,51.43Z" style="fill: #ac6dad;"/>
            <path d="M381.21,334.07c1.69-9.98-.46-20.52-4.48-26.95.62,6.88-1.05,15.1-2.6,19.74-1.83,5.55-5.63,10.8-9.48,15.13-7.95,8.9-18.52,15.33-29.68,19.35-12.57,4.52-25.86,6.31-39.24,7.33-.18-.01-.36-.04-.54-.07-3.07-.36-6.31-.72-8.86-2.49,11.99-1.55,23.45-6.9,32.33-15.1-11.77,2.67-24.01,5.04-35.82,2.58,3.28-2.76,6.57-5.5,9.84-8.25-6.42.96-13.02.83-19.4-.37-.61-.11-1.28-.28-1.61-.8-.48-.74,0-1.71.52-2.43,1.99-2.75,4.64-4.95,7.25-7.11,4.63-3.87,9.25-7.72,13.88-11.58-10.64-.51-20.89,3.56-30.69,7.69-2.67,1.14-5.46,2.28-8.35,2.05-.2-2.57.68-5.21,2.39-7.17-5.24-.06-10.48,1.53-14.8,4.48,1.06-7.01,4.73-13.42,9.4-18.75,1.98-2.24,4.14-4.31,6.38-6.26,2.27-1.54,4.58-2.97,6.94-4.35,12.83-7.46,26.75-12.89,40.7-17.97.38-.13.76-.28,1.15-.41,3.83-1.39,7.85-2.87,10.62-5.88,2.78-2.99,3.8-8.05,1.15-11.13-.86-1-1.97-1.68-3.16-2.28,1.73-4.43,2.93-9.54,3.51-14.72,11.24-6.06,27.83-5.54,38.16-1.66-4.43.86-8.78,2.32-12.85,4.3,17.6,3.09,33.35,15.33,40.69,31.63,7.33,16.3,6.04,36.21-3.32,51.43Z" style="fill: #faa64c; isolation: isolate;"/>
            <path d="M317.34,255.46c-.61,2.68-1.38,5.26-2.31,7.64,1.19.6,2.3,1.28,3.16,2.28,2.65,3.09,1.63,8.14-1.15,11.13-2.77,3.01-6.79,4.48-10.62,5.88-.38.13-.76.28-1.15.41-13.95,5.08-27.87,10.51-40.7,17.97-2.35,1.37-4.67,2.81-6.94,4.35-2.24,1.95-4.4,4.02-6.38,6.26-4.67,5.33-8.33,11.74-9.4,18.75,4.32-2.95,9.56-4.54,14.8-4.48-1.7,1.95-2.58,4.6-2.39,7.17,1.15.09,2.28-.04,3.4-.3,10.69-9.84,23.88-17.9,35.45-23.85,14.22-7.31,48.72-20.24,36.21-41.82-2.65-4.56-6.93-8.42-12-11.38Z" style="fill: #dc9343; isolation: isolate; opacity: .4;"/>
            <path d="M220.31,374.59c-2.35-15.07,2.15-30.74,10.56-43.46,3.45-5.23,7.55-9.99,12.07-14.32h.01c4.52-4.33,9.48-8.21,14.69-11.7-2.25,1.96-4.41,4.02-6.38,6.27-4.68,5.33-8.34,11.74-9.41,18.74,4.33-2.95,9.57-4.53,14.81-4.47-1.7,1.95-2.58,4.59-2.38,7.17,2.88.22,5.67-.93,8.34-2.06,9.81-4.13,20.07-8.2,30.71-7.7-4.63,3.86-9.26,7.71-13.89,11.57-2.61,2.17-5.25,4.38-7.25,7.12-.52.71-1,1.68-.52,2.42.33.52,1,.68,1.61.8,6.39,1.2,12.98,1.33,19.41.38-3.28,2.75-6.56,5.49-9.84,8.24,11.81,2.46,24.05.1,35.82-2.59-8.88,8.2-20.34,13.56-32.33,15.11,2.55,1.77,5.79,2.12,8.87,2.5.18.02.36.05.53.07-5.03.39-10.07.67-15.09.94-7.41.39-15.7-.17-22.94,1.39-13.27,2.89-26.28,10.83-31.33,23.42-4.01-10.74-2.96-23.26,2.79-33.17-4.08,3.53-7.19,8.19-8.85,13.33Z" style="fill: #465b65;"/>
            <path d="M254.28,332.82c-.2-2.58.68-5.22,2.38-7.17-5.24-.06-10.48,1.52-14.81,4.47,1.08-7,4.74-13.41,9.41-18.74,1.97-2.24,4.12-4.31,6.38-6.27-5.21,3.49-10.18,7.37-14.69,11.7h-.01c-4.53,4.33-8.62,9.09-12.07,14.32-8.41,12.71-12.91,28.39-10.56,43.46,1.66-5.14,4.77-9.8,8.85-13.33-5.75,9.92-6.79,22.43-2.79,33.17,1.7-4.23,4.31-7.93,7.52-11.09.47-10.84,3.07-21.55,8.08-31.17,3.72-7.15,9.25-13.72,15.69-19.65-1.12.26-2.25.39-3.39.31Z" style="fill: #384850;"/>
          </g>
        </g>
      </g>
      <g>
        <path d="M371.44,266.8c11.59-9.02,24.15-16.88,36.78-24.34,44.1-25.75,91.3-45.88,139.41-62.74,34.3-11.92,69.36-22.44,104.9-29.9,14.24-2.92,28.59-5.54,43.1-6.62-14.47,1.41-28.73,4.36-42.88,7.6-42.42,9.93-83.74,24.13-124.25,40.01-45.44,17.98-89.83,38.98-130.8,65.67-5.87,3.94-12.03,8.13-17.63,12.42-1.41,1.07-2.85,2.2-4.14,3.26l-4.49-5.37h0Z" style="fill: #231f20;"/>
        <polygon points="386.85 279.17 360.1 278.97 369.43 253.69 374.99 269.07 386.85 279.17" style="fill: #231f20;"/>
      </g>
    </g>
  </g>
</svg>